<svg class="readme-element" viewBox="0 0 1072.6 365.0" xmlns="http://www.w3.org/2000/svg">
    <style>
    @font-face {
        font-family: "Fira Code";
        src: local("FiraCode-Regular"),
                url("https://cdnjs.cloudflare.com/ajax/libs/firacode/6.2.0/woff2/FiraCode-Regular.woff2") format("woff2"),
                url("https://cdnjs.cloudflare.com/ajax/libs/firacode/6.2.0/woff/FiraCode-Regular.woff") format("woff");
        font-style: normal;
        font-weight: 400;
    }
    @font-face {
        font-family: "Fira Code";
        src: local("FiraCode-Bold"),
                url("https://cdnjs.cloudflare.com/ajax/libs/firacode/6.2.0/woff2/FiraCode-Bold.woff2") format("woff2"),
                url("https://cdnjs.cloudflare.com/ajax/libs/firacode/6.2.0/woff/FiraCode-Bold.woff") format("woff");
        font-style: bold;
        font-weight: 700;
    }
    .terminal-3711520632-matrix {
        font-family: Fira Code, monospace;
        font-size: 20px;
        line-height: 24.4px;
        font-variant-east-asian: full-width;
    }
    .terminal-3711520632-r1 { fill: #c5c8c6 }
.terminal-3711520632-r2 { fill: #00ffff }
.terminal-3711520632-r3 { fill: #e0e0e0 }
.terminal-3711520632-r4 { fill: #58d1eb;font-weight: bold }
.terminal-3711520632-r5 { fill: #98e024;font-weight: bold }
.terminal-3711520632-r6 { fill: #c4c5b5 }
.terminal-3711520632-r7 { fill: #9e9e9e }
.terminal-3711520632-r8 { fill: #fd971f;font-weight: bold }
.terminal-3711520632-r9 { fill: #ffaf00;font-weight: bold }
.terminal-3711520632-r10 { fill: #f4005f;font-weight: bold }
    </style>
    <defs>
    <clipPath id="terminal-3711520632-clip-terminal">
      <rect x="0" y="0" width="1072.6" height="365.0" />
    </clipPath>
    <clipPath id="terminal-3711520632-line-0">
    <rect x="0" y="1.5" width="1073.6" height="24.65"/>
            </clipPath>
<clipPath id="terminal-3711520632-line-1">
    <rect x="0" y="25.9" width="1073.6" height="24.65"/>
            </clipPath>
<clipPath id="terminal-3711520632-line-2">
    <rect x="0" y="50.3" width="1073.6" height="24.65"/>
            </clipPath>
<clipPath id="terminal-3711520632-line-3">
    <rect x="0" y="74.7" width="1073.6" height="24.65"/>
            </clipPath>
<clipPath id="terminal-3711520632-line-4">
    <rect x="0" y="99.1" width="1073.6" height="24.65"/>
            </clipPath>
<clipPath id="terminal-3711520632-line-5">
    <rect x="0" y="123.5" width="1073.6" height="24.65"/>
            </clipPath>
<clipPath id="terminal-3711520632-line-6">
    <rect x="0" y="147.9" width="1073.6" height="24.65"/>
            </clipPath>
<clipPath id="terminal-3711520632-line-7">
    <rect x="0" y="172.3" width="1073.6" height="24.65"/>
            </clipPath>
<clipPath id="terminal-3711520632-line-8">
    <rect x="0" y="196.7" width="1073.6" height="24.65"/>
            </clipPath>
<clipPath id="terminal-3711520632-line-9">
    <rect x="0" y="221.1" width="1073.6" height="24.65"/>
            </clipPath>
<clipPath id="terminal-3711520632-line-10">
    <rect x="0" y="245.5" width="1073.6" height="24.65"/>
            </clipPath>
<clipPath id="terminal-3711520632-line-11">
    <rect x="0" y="269.9" width="1073.6" height="24.65"/>
            </clipPath>
<clipPath id="terminal-3711520632-line-12">
    <rect x="0" y="294.3" width="1073.6" height="24.65"/>
            </clipPath>
<clipPath id="terminal-3711520632-line-13">
    <rect x="0" y="318.7" width="1073.6" height="24.65"/>
            </clipPath>
    </defs>
    <g clip-path="url(#terminal-3711520632-clip-terminal)">
    <rect fill="#121212" x="0" y="1.5" width="1073.6" height="24.65" shape-rendering="crispEdges"/><rect fill="#121212" x="0" y="25.9" width="24.4" height="24.65" shape-rendering="crispEdges"/><rect fill="#1e1e1e" x="24.4" y="25.9" width="12.2" height="24.65" shape-rendering="crispEdges"/><rect fill="#1e1e1e" x="36.6" y="25.9" width="12.2" height="24.65" shape-rendering="crispEdges"/><rect fill="#1e1e1e" x="48.8" y="25.9" width="158.6" height="24.65" shape-rendering="crispEdges"/><rect fill="#1e1e1e" x="207.4" y="25.9" width="829.6" height="24.65" shape-rendering="crispEdges"/><rect fill="#1e1e1e" x="1037" y="25.9" width="12.2" height="24.65" shape-rendering="crispEdges"/><rect fill="#121212" x="1049.2" y="25.9" width="24.4" height="24.65" shape-rendering="crispEdges"/><rect fill="#121212" x="0" y="50.3" width="24.4" height="24.65" shape-rendering="crispEdges"/><rect fill="#1e1e1e" x="24.4" y="50.3" width="12.2" height="24.65" shape-rendering="crispEdges"/><rect fill="#1e1e1e" x="36.6" y="50.3" width="1000.4" height="24.65" shape-rendering="crispEdges"/><rect fill="#1e1e1e" x="1037" y="50.3" width="12.2" height="24.65" shape-rendering="crispEdges"/><rect fill="#121212" x="1049.2" y="50.3" width="24.4" height="24.65" shape-rendering="crispEdges"/><rect fill="#121212" x="0" y="74.7" width="24.4" height="24.65" shape-rendering="crispEdges"/><rect fill="#1e1e1e" x="24.4" y="74.7" width="12.2" height="24.65" shape-rendering="crispEdges"/><rect fill="#1e1e1e" x="36.6" y="74.7" width="24.4" height="24.65" shape-rendering="crispEdges"/><rect fill="#1e1e1e" x="61" y="74.7" width="951.6" height="24.65" shape-rendering="crispEdges"/><rect fill="#1e1e1e" x="1012.6" y="74.7" width="24.4" height="24.65" shape-rendering="crispEdges"/><rect fill="#1e1e1e" x="1037" y="74.7" width="12.2" height="24.65" shape-rendering="crispEdges"/><rect fill="#121212" x="1049.2" y="74.7" width="24.4" height="24.65" shape-rendering="crispEdges"/><rect fill="#121212" x="0" y="99.1" width="24.4" height="24.65" shape-rendering="crispEdges"/><rect fill="#1e1e1e" x="24.4" y="99.1" width="12.2" height="24.65" shape-rendering="crispEdges"/><rect fill="#1e1e1e" x="36.6" y="99.1" width="24.4" height="24.65" shape-rendering="crispEdges"/><rect fill="#1e1e1e" x="61" y="99.1" width="12.2" height="24.65" shape-rendering="crispEdges"/><rect fill="#1e1e1e" x="73.2" y="99.1" width="122" height="24.65" shape-rendering="crispEdges"/><rect fill="#1e1e1e" x="195.2" y="99.1" width="12.2" height="24.65" shape-rendering="crispEdges"/><rect fill="#1e1e1e" x="207.4" y="99.1" width="12.2" height="24.65" shape-rendering="crispEdges"/><rect fill="#1e1e1e" x="219.6" y="99.1" width="12.2" height="24.65" shape-rendering="crispEdges"/><rect fill="#1e1e1e" x="231.8" y="99.1" width="109.8" height="24.65" shape-rendering="crispEdges"/><rect fill="#1e1e1e" x="341.6" y="99.1" width="12.2" height="24.65" shape-rendering="crispEdges"/><rect fill="#1e1e1e" x="353.8" y="99.1" width="12.2" height="24.65" shape-rendering="crispEdges"/><rect fill="#1e1e1e" x="366" y="99.1" width="12.2" height="24.65" shape-rendering="crispEdges"/><rect fill="#1e1e1e" x="378.2" y="99.1" width="622.2" height="24.65" shape-rendering="crispEdges"/><rect fill="#1e1e1e" x="1000.4" y="99.1" width="12.2" height="24.65" shape-rendering="crispEdges"/><rect fill="#1e1e1e" x="1012.6" y="99.1" width="24.4" height="24.65" shape-rendering="crispEdges"/><rect fill="#1e1e1e" x="1037" y="99.1" width="12.2" height="24.65" shape-rendering="crispEdges"/><rect fill="#121212" x="1049.2" y="99.1" width="24.4" height="24.65" shape-rendering="crispEdges"/><rect fill="#121212" x="0" y="123.5" width="24.4" height="24.65" shape-rendering="crispEdges"/><rect fill="#1e1e1e" x="24.4" y="123.5" width="12.2" height="24.65" shape-rendering="crispEdges"/><rect fill="#1e1e1e" x="36.6" y="123.5" width="24.4" height="24.65" shape-rendering="crispEdges"/><rect fill="#1e1e1e" x="61" y="123.5" width="951.6" height="24.65" shape-rendering="crispEdges"/><rect fill="#1e1e1e" x="1012.6" y="123.5" width="24.4" height="24.65" shape-rendering="crispEdges"/><rect fill="#1e1e1e" x="1037" y="123.5" width="12.2" height="24.65" shape-rendering="crispEdges"/><rect fill="#121212" x="1049.2" y="123.5" width="24.4" height="24.65" shape-rendering="crispEdges"/><rect fill="#121212" x="0" y="147.9" width="24.4" height="24.65" shape-rendering="crispEdges"/><rect fill="#1e1e1e" x="24.4" y="147.9" width="12.2" height="24.65" shape-rendering="crispEdges"/><rect fill="#1e1e1e" x="36.6" y="147.9" width="24.4" height="24.65" shape-rendering="crispEdges"/><rect fill="#1e1e1e" x="61" y="147.9" width="12.2" height="24.65" shape-rendering="crispEdges"/><rect fill="#1e1e1e" x="73.2" y="147.9" width="122" height="24.65" shape-rendering="crispEdges"/><rect fill="#1e1e1e" x="195.2" y="147.9" width="12.2" height="24.65" shape-rendering="crispEdges"/><rect fill="#1e1e1e" x="207.4" y="147.9" width="12.2" height="24.65" shape-rendering="crispEdges"/><rect fill="#1e1e1e" x="219.6" y="147.9" width="12.2" height="24.65" shape-rendering="crispEdges"/><rect fill="#1e1e1e" x="231.8" y="147.9" width="109.8" height="24.65" shape-rendering="crispEdges"/><rect fill="#1e1e1e" x="341.6" y="147.9" width="12.2" height="24.65" shape-rendering="crispEdges"/><rect fill="#1e1e1e" x="353.8" y="147.9" width="12.2" height="24.65" shape-rendering="crispEdges"/><rect fill="#1e1e1e" x="366" y="147.9" width="12.2" height="24.65" shape-rendering="crispEdges"/><rect fill="#1e1e1e" x="378.2" y="147.9" width="622.2" height="24.65" shape-rendering="crispEdges"/><rect fill="#1e1e1e" x="1000.4" y="147.9" width="12.2" height="24.65" shape-rendering="crispEdges"/><rect fill="#1e1e1e" x="1012.6" y="147.9" width="24.4" height="24.65" shape-rendering="crispEdges"/><rect fill="#1e1e1e" x="1037" y="147.9" width="12.2" height="24.65" shape-rendering="crispEdges"/><rect fill="#121212" x="1049.2" y="147.9" width="24.4" height="24.65" shape-rendering="crispEdges"/><rect fill="#121212" x="0" y="172.3" width="24.4" height="24.65" shape-rendering="crispEdges"/><rect fill="#1e1e1e" x="24.4" y="172.3" width="12.2" height="24.65" shape-rendering="crispEdges"/><rect fill="#1e1e1e" x="36.6" y="172.3" width="24.4" height="24.65" shape-rendering="crispEdges"/><rect fill="#1e1e1e" x="61" y="172.3" width="12.2" height="24.65" shape-rendering="crispEdges"/><rect fill="#1e1e1e" x="73.2" y="172.3" width="122" height="24.65" shape-rendering="crispEdges"/><rect fill="#1e1e1e" x="195.2" y="172.3" width="12.2" height="24.65" shape-rendering="crispEdges"/><rect fill="#1e1e1e" x="207.4" y="172.3" width="12.2" height="24.65" shape-rendering="crispEdges"/><rect fill="#1e1e1e" x="219.6" y="172.3" width="12.2" height="24.65" shape-rendering="crispEdges"/><rect fill="#1e1e1e" x="231.8" y="172.3" width="109.8" height="24.65" shape-rendering="crispEdges"/><rect fill="#1e1e1e" x="341.6" y="172.3" width="12.2" height="24.65" shape-rendering="crispEdges"/><rect fill="#1e1e1e" x="353.8" y="172.3" width="12.2" height="24.65" shape-rendering="crispEdges"/><rect fill="#1e1e1e" x="366" y="172.3" width="12.2" height="24.65" shape-rendering="crispEdges"/><rect fill="#1e1e1e" x="378.2" y="172.3" width="622.2" height="24.65" shape-rendering="crispEdges"/><rect fill="#1e1e1e" x="1000.4" y="172.3" width="12.2" height="24.65" shape-rendering="crispEdges"/><rect fill="#1e1e1e" x="1012.6" y="172.3" width="24.4" height="24.65" shape-rendering="crispEdges"/><rect fill="#1e1e1e" x="1037" y="172.3" width="12.2" height="24.65" shape-rendering="crispEdges"/><rect fill="#121212" x="1049.2" y="172.3" width="24.4" height="24.65" shape-rendering="crispEdges"/><rect fill="#121212" x="0" y="196.7" width="24.4" height="24.65" shape-rendering="crispEdges"/><rect fill="#1e1e1e" x="24.4" y="196.7" width="12.2" height="24.65" shape-rendering="crispEdges"/><rect fill="#1e1e1e" x="36.6" y="196.7" width="24.4" height="24.65" shape-rendering="crispEdges"/><rect fill="#1e1e1e" x="61" y="196.7" width="12.2" height="24.65" shape-rendering="crispEdges"/><rect fill="#1e1e1e" x="73.2" y="196.7" width="134.2" height="24.65" shape-rendering="crispEdges"/><rect fill="#1e1e1e" x="207.4" y="196.7" width="12.2" height="24.65" shape-rendering="crispEdges"/><rect fill="#1e1e1e" x="219.6" y="196.7" width="134.2" height="24.65" shape-rendering="crispEdges"/><rect fill="#1e1e1e" x="353.8" y="196.7" width="12.2" height="24.65" shape-rendering="crispEdges"/><rect fill="#1e1e1e" x="366" y="196.7" width="12.2" height="24.65" shape-rendering="crispEdges"/><rect fill="#1e1e1e" x="378.2" y="196.7" width="622.2" height="24.65" shape-rendering="crispEdges"/><rect fill="#1e1e1e" x="1000.4" y="196.7" width="12.2" height="24.65" shape-rendering="crispEdges"/><rect fill="#1e1e1e" x="1012.6" y="196.7" width="24.4" height="24.65" shape-rendering="crispEdges"/><rect fill="#1e1e1e" x="1037" y="196.7" width="12.2" height="24.65" shape-rendering="crispEdges"/><rect fill="#121212" x="1049.2" y="196.7" width="24.4" height="24.65" shape-rendering="crispEdges"/><rect fill="#121212" x="0" y="221.1" width="24.4" height="24.65" shape-rendering="crispEdges"/><rect fill="#1e1e1e" x="24.4" y="221.1" width="12.2" height="24.65" shape-rendering="crispEdges"/><rect fill="#1e1e1e" x="36.6" y="221.1" width="24.4" height="24.65" shape-rendering="crispEdges"/><rect fill="#1e1e1e" x="61" y="221.1" width="12.2" height="24.65" shape-rendering="crispEdges"/><rect fill="#1e1e1e" x="73.2" y="221.1" width="122" height="24.65" shape-rendering="crispEdges"/><rect fill="#1e1e1e" x="195.2" y="221.1" width="12.2" height="24.65" shape-rendering="crispEdges"/><rect fill="#1e1e1e" x="207.4" y="221.1" width="12.2" height="24.65" shape-rendering="crispEdges"/><rect fill="#1e1e1e" x="219.6" y="221.1" width="12.2" height="24.65" shape-rendering="crispEdges"/><rect fill="#1e1e1e" x="231.8" y="221.1" width="109.8" height="24.65" shape-rendering="crispEdges"/><rect fill="#1e1e1e" x="341.6" y="221.1" width="12.2" height="24.65" shape-rendering="crispEdges"/><rect fill="#1e1e1e" x="353.8" y="221.1" width="12.2" height="24.65" shape-rendering="crispEdges"/><rect fill="#1e1e1e" x="366" y="221.1" width="12.2" height="24.65" shape-rendering="crispEdges"/><rect fill="#1e1e1e" x="378.2" y="221.1" width="622.2" height="24.65" shape-rendering="crispEdges"/><rect fill="#1e1e1e" x="1000.4" y="221.1" width="12.2" height="24.65" shape-rendering="crispEdges"/><rect fill="#1e1e1e" x="1012.6" y="221.1" width="24.4" height="24.65" shape-rendering="crispEdges"/><rect fill="#1e1e1e" x="1037" y="221.1" width="12.2" height="24.65" shape-rendering="crispEdges"/><rect fill="#121212" x="1049.2" y="221.1" width="24.4" height="24.65" shape-rendering="crispEdges"/><rect fill="#121212" x="0" y="245.5" width="24.4" height="24.65" shape-rendering="crispEdges"/><rect fill="#1e1e1e" x="24.4" y="245.5" width="12.2" height="24.65" shape-rendering="crispEdges"/><rect fill="#1e1e1e" x="36.6" y="245.5" width="24.4" height="24.65" shape-rendering="crispEdges"/><rect fill="#1e1e1e" x="61" y="245.5" width="12.2" height="24.65" shape-rendering="crispEdges"/><rect fill="#1e1e1e" x="73.2" y="245.5" width="122" height="24.65" shape-rendering="crispEdges"/><rect fill="#1e1e1e" x="195.2" y="245.5" width="12.2" height="24.65" shape-rendering="crispEdges"/><rect fill="#1e1e1e" x="207.4" y="245.5" width="12.2" height="24.65" shape-rendering="crispEdges"/><rect fill="#1e1e1e" x="219.6" y="245.5" width="12.2" height="24.65" shape-rendering="crispEdges"/><rect fill="#1e1e1e" x="231.8" y="245.5" width="109.8" height="24.65" shape-rendering="crispEdges"/><rect fill="#1e1e1e" x="341.6" y="245.5" width="12.2" height="24.65" shape-rendering="crispEdges"/><rect fill="#1e1e1e" x="353.8" y="245.5" width="12.2" height="24.65" shape-rendering="crispEdges"/><rect fill="#1e1e1e" x="366" y="245.5" width="12.2" height="24.65" shape-rendering="crispEdges"/><rect fill="#1e1e1e" x="378.2" y="245.5" width="622.2" height="24.65" shape-rendering="crispEdges"/><rect fill="#1e1e1e" x="1000.4" y="245.5" width="12.2" height="24.65" shape-rendering="crispEdges"/><rect fill="#1e1e1e" x="1012.6" y="245.5" width="24.4" height="24.65" shape-rendering="crispEdges"/><rect fill="#1e1e1e" x="1037" y="245.5" width="12.2" height="24.65" shape-rendering="crispEdges"/><rect fill="#121212" x="1049.2" y="245.5" width="24.4" height="24.65" shape-rendering="crispEdges"/><rect fill="#121212" x="0" y="269.9" width="24.4" height="24.65" shape-rendering="crispEdges"/><rect fill="#1e1e1e" x="24.4" y="269.9" width="12.2" height="24.65" shape-rendering="crispEdges"/><rect fill="#1e1e1e" x="36.6" y="269.9" width="24.4" height="24.65" shape-rendering="crispEdges"/><rect fill="#1e1e1e" x="61" y="269.9" width="951.6" height="24.65" shape-rendering="crispEdges"/><rect fill="#1e1e1e" x="1012.6" y="269.9" width="24.4" height="24.65" shape-rendering="crispEdges"/><rect fill="#1e1e1e" x="1037" y="269.9" width="12.2" height="24.65" shape-rendering="crispEdges"/><rect fill="#121212" x="1049.2" y="269.9" width="24.4" height="24.65" shape-rendering="crispEdges"/><rect fill="#121212" x="0" y="294.3" width="24.4" height="24.65" shape-rendering="crispEdges"/><rect fill="#1e1e1e" x="24.4" y="294.3" width="12.2" height="24.65" shape-rendering="crispEdges"/><rect fill="#1e1e1e" x="36.6" y="294.3" width="1000.4" height="24.65" shape-rendering="crispEdges"/><rect fill="#1e1e1e" x="1037" y="294.3" width="12.2" height="24.65" shape-rendering="crispEdges"/><rect fill="#121212" x="1049.2" y="294.3" width="24.4" height="24.65" shape-rendering="crispEdges"/><rect fill="#121212" x="0" y="318.7" width="24.4" height="24.65" shape-rendering="crispEdges"/><rect fill="#1e1e1e" x="24.4" y="318.7" width="12.2" height="24.65" shape-rendering="crispEdges"/><rect fill="#1e1e1e" x="36.6" y="318.7" width="1000.4" height="24.65" shape-rendering="crispEdges"/><rect fill="#1e1e1e" x="1037" y="318.7" width="12.2" height="24.65" shape-rendering="crispEdges"/><rect fill="#121212" x="1049.2" y="318.7" width="24.4" height="24.65" shape-rendering="crispEdges"/><rect fill="#121212" x="0" y="343.1" width="1073.6" height="24.65" shape-rendering="crispEdges"/>
    <g class="terminal-3711520632-matrix">
    <text class="terminal-3711520632-r1" x="1073.6" y="20" textLength="12.2" clip-path="url(#terminal-3711520632-line-0)">
</text><text class="terminal-3711520632-r2" x="24.4" y="44.4" textLength="12.2" clip-path="url(#terminal-3711520632-line-1)">╭</text><text class="terminal-3711520632-r2" x="36.6" y="44.4" textLength="12.2" clip-path="url(#terminal-3711520632-line-1)">─</text><text class="terminal-3711520632-r2" x="48.8" y="44.4" textLength="158.6" clip-path="url(#terminal-3711520632-line-1)">&#160;SCORE&#160;BANDS&#160;</text><text class="terminal-3711520632-r2" x="207.4" y="44.4" textLength="829.6" clip-path="url(#terminal-3711520632-line-1)">────────────────────────────────────────────────────────────────────</text><text class="terminal-3711520632-r2" x="1037" y="44.4" textLength="12.2" clip-path="url(#terminal-3711520632-line-1)">╮</text><text class="terminal-3711520632-r1" x="1073.6" y="44.4" textLength="12.2" clip-path="url(#terminal-3711520632-line-1)">
</text><text class="terminal-3711520632-r2" x="24.4" y="68.8" textLength="12.2" clip-path="url(#terminal-3711520632-line-2)">│</text><text class="terminal-3711520632-r2" x="1037" y="68.8" textLength="12.2" clip-path="url(#terminal-3711520632-line-2)">│</text><text class="terminal-3711520632-r1" x="1073.6" y="68.8" textLength="12.2" clip-path="url(#terminal-3711520632-line-2)">
</text><text class="terminal-3711520632-r2" x="24.4" y="93.2" textLength="12.2" clip-path="url(#terminal-3711520632-line-3)">│</text><text class="terminal-3711520632-r2" x="1037" y="93.2" textLength="12.2" clip-path="url(#terminal-3711520632-line-3)">│</text><text class="terminal-3711520632-r1" x="1073.6" y="93.2" textLength="12.2" clip-path="url(#terminal-3711520632-line-3)">
</text><text class="terminal-3711520632-r2" x="24.4" y="117.6" textLength="12.2" clip-path="url(#terminal-3711520632-line-4)">│</text><text class="terminal-3711520632-r4" x="73.2" y="117.6" textLength="122" clip-path="url(#terminal-3711520632-line-4)">Band&#160;&#160;&#160;&#160;&#160;&#160;</text><text class="terminal-3711520632-r4" x="231.8" y="117.6" textLength="109.8" clip-path="url(#terminal-3711520632-line-4)">Score&#160;&#160;&#160;&#160;</text><text class="terminal-3711520632-r4" x="378.2" y="117.6" textLength="622.2" clip-path="url(#terminal-3711520632-line-4)">Gate&#160;&#160;&#160;&#160;&#160;&#160;&#160;&#160;&#160;&#160;&#160;&#160;&#160;&#160;&#160;&#160;&#160;&#160;&#160;&#160;&#160;&#160;&#160;&#160;&#160;&#160;&#160;&#160;&#160;&#160;&#160;&#160;&#160;&#160;&#160;&#160;&#160;&#160;&#160;&#160;&#160;&#160;&#160;&#160;&#160;&#160;&#160;</text><text class="terminal-3711520632-r2" x="1037" y="117.6" textLength="12.2" clip-path="url(#terminal-3711520632-line-4)">│</text><text class="terminal-3711520632-r1" x="1073.6" y="117.6" textLength="12.2" clip-path="url(#terminal-3711520632-line-4)">
</text><text class="terminal-3711520632-r2" x="24.4" y="142" textLength="12.2" clip-path="url(#terminal-3711520632-line-5)">│</text><text class="terminal-3711520632-r3" x="61" y="142" textLength="951.6" clip-path="url(#terminal-3711520632-line-5)">&#160;────────────────────────────────────────────────────────────────────────────&#160;</text><text class="terminal-3711520632-r2" x="1037" y="142" textLength="12.2" clip-path="url(#terminal-3711520632-line-5)">│</text><text class="terminal-3711520632-r1" x="1073.6" y="142" textLength="12.2" clip-path="url(#terminal-3711520632-line-5)">
</text><text class="terminal-3711520632-r2" x="24.4" y="166.4" textLength="12.2" clip-path="url(#terminal-3711520632-line-6)">│</text><text class="terminal-3711520632-r5" x="73.2" y="166.4" textLength="122" clip-path="url(#terminal-3711520632-line-6)">LOW&#160;&#160;&#160;&#160;&#160;&#160;&#160;</text><text class="terminal-3711520632-r6" x="231.8" y="166.4" textLength="109.8" clip-path="url(#terminal-3711520632-line-6)">0–20&#160;&#160;&#160;&#160;&#160;</text><text class="terminal-3711520632-r7" x="378.2" y="166.4" textLength="622.2" clip-path="url(#terminal-3711520632-line-6)">Passes.&#160;&#160;&#160;&#160;&#160;&#160;&#160;&#160;&#160;&#160;&#160;&#160;&#160;&#160;&#160;&#160;&#160;&#160;&#160;&#160;&#160;&#160;&#160;&#160;&#160;&#160;&#160;&#160;&#160;&#160;&#160;&#160;&#160;&#160;&#160;&#160;&#160;&#160;&#160;&#160;&#160;&#160;&#160;&#160;</text><text class="terminal-3711520632-r2" x="1037" y="166.4" textLength="12.2" clip-path="url(#terminal-3711520632-line-6)">│</text><text class="terminal-3711520632-r1" x="1073.6" y="166.4" textLength="12.2" clip-path="url(#terminal-3711520632-line-6)">
</text><text class="terminal-3711520632-r2" x="24.4" y="190.8" textLength="12.2" clip-path="url(#terminal-3711520632-line-7)">│</text><text class="terminal-3711520632-r8" x="73.2" y="190.8" textLength="122" clip-path="url(#terminal-3711520632-line-7)">MEDIUM&#160;&#160;&#160;&#160;</text><text class="terminal-3711520632-r6" x="231.8" y="190.8" textLength="109.8" clip-path="url(#terminal-3711520632-line-7)">21–50&#160;&#160;&#160;&#160;</text><text class="terminal-3711520632-r7" x="378.2" y="190.8" textLength="622.2" clip-path="url(#terminal-3711520632-line-7)">Passes&#160;only&#160;if&#160;every&#160;finding&#160;is&#160;recorded&#160;on&#160;the&#160;&#160;&#160;&#160;</text><text class="terminal-3711520632-r2" x="1037" y="190.8" textLength="12.2" clip-path="url(#terminal-3711520632-line-7)">│</text><text class="terminal-3711520632-r1" x="1073.6" y="190.8" textLength="12.2" clip-path="url(#terminal-3711520632-line-7)">
</text><text class="terminal-3711520632-r2" x="24.4" y="215.2" textLength="12.2" clip-path="url(#terminal-3711520632-line-8)">│</text><text class="terminal-3711520632-r7" x="378.2" y="215.2" textLength="622.2" clip-path="url(#terminal-3711520632-line-8)">card&#160;as&#160;accepted,&#160;with&#160;a&#160;written&#160;note.&#160;&#160;&#160;&#160;&#160;&#160;&#160;&#160;&#160;&#160;&#160;&#160;&#160;</text><text class="terminal-3711520632-r2" x="1037" y="215.2" textLength="12.2" clip-path="url(#terminal-3711520632-line-8)">│</text><text class="terminal-3711520632-r1" x="1073.6" y="215.2" textLength="12.2" clip-path="url(#terminal-3711520632-line-8)">
</text><text class="terminal-3711520632-r2" x="24.4" y="239.6" textLength="12.2" clip-path="url(#terminal-3711520632-line-9)">│</text><text class="terminal-3711520632-r9" x="73.2" y="239.6" textLength="122" clip-path="url(#terminal-3711520632-line-9)">HIGH&#160;&#160;&#160;&#160;&#160;&#160;</text><text class="terminal-3711520632-r6" x="231.8" y="239.6" textLength="109.8" clip-path="url(#terminal-3711520632-line-9)">51–80&#160;&#160;&#160;&#160;</text><text class="terminal-3711520632-r7" x="378.2" y="239.6" textLength="622.2" clip-path="url(#terminal-3711520632-line-9)">Hard&#160;fail.&#160;Does&#160;not&#160;merge.&#160;&#160;&#160;&#160;&#160;&#160;&#160;&#160;&#160;&#160;&#160;&#160;&#160;&#160;&#160;&#160;&#160;&#160;&#160;&#160;&#160;&#160;&#160;&#160;&#160;</text><text class="terminal-3711520632-r2" x="1037" y="239.6" textLength="12.2" clip-path="url(#terminal-3711520632-line-9)">│</text><text class="terminal-3711520632-r1" x="1073.6" y="239.6" textLength="12.2" clip-path="url(#terminal-3711520632-line-9)">
</text><text class="terminal-3711520632-r2" x="24.4" y="264" textLength="12.2" clip-path="url(#terminal-3711520632-line-10)">│</text><text class="terminal-3711520632-r10" x="73.2" y="264" textLength="122" clip-path="url(#terminal-3711520632-line-10)">CRITICAL&#160;&#160;</text><text class="terminal-3711520632-r6" x="231.8" y="264" textLength="109.8" clip-path="url(#terminal-3711520632-line-10)">81–100&#160;&#160;&#160;</text><text class="terminal-3711520632-r7" x="378.2" y="264" textLength="622.2" clip-path="url(#terminal-3711520632-line-10)">Hard&#160;fail.&#160;Does&#160;not&#160;merge.&#160;&#160;&#160;&#160;&#160;&#160;&#160;&#160;&#160;&#160;&#160;&#160;&#160;&#160;&#160;&#160;&#160;&#160;&#160;&#160;&#160;&#160;&#160;&#160;&#160;</text><text class="terminal-3711520632-r2" x="1037" y="264" textLength="12.2" clip-path="url(#terminal-3711520632-line-10)">│</text><text class="terminal-3711520632-r1" x="1073.6" y="264" textLength="12.2" clip-path="url(#terminal-3711520632-line-10)">
</text><text class="terminal-3711520632-r2" x="24.4" y="288.4" textLength="12.2" clip-path="url(#terminal-3711520632-line-11)">│</text><text class="terminal-3711520632-r2" x="1037" y="288.4" textLength="12.2" clip-path="url(#terminal-3711520632-line-11)">│</text><text class="terminal-3711520632-r1" x="1073.6" y="288.4" textLength="12.2" clip-path="url(#terminal-3711520632-line-11)">
</text><text class="terminal-3711520632-r2" x="24.4" y="312.8" textLength="12.2" clip-path="url(#terminal-3711520632-line-12)">│</text><text class="terminal-3711520632-r2" x="1037" y="312.8" textLength="12.2" clip-path="url(#terminal-3711520632-line-12)">│</text><text class="terminal-3711520632-r1" x="1073.6" y="312.8" textLength="12.2" clip-path="url(#terminal-3711520632-line-12)">
</text><text class="terminal-3711520632-r2" x="24.4" y="337.2" textLength="12.2" clip-path="url(#terminal-3711520632-line-13)">╰</text><text class="terminal-3711520632-r2" x="36.6" y="337.2" textLength="1000.4" clip-path="url(#terminal-3711520632-line-13)">──────────────────────────────────────────────────────────────────────────────────</text><text class="terminal-3711520632-r2" x="1037" y="337.2" textLength="12.2" clip-path="url(#terminal-3711520632-line-13)">╯</text><text class="terminal-3711520632-r1" x="1073.6" y="337.2" textLength="12.2" clip-path="url(#terminal-3711520632-line-13)">
</text>
    </g>
    </g>
</svg>
