<svg class="readme-element" viewBox="0 0 926.1999999999999 365.0" xmlns="http://www.w3.org/2000/svg">
    <style>
    @font-face {
        font-family: "Fira Code";
        src: local("FiraCode-Regular"),
                url("https://cdnjs.cloudflare.com/ajax/libs/firacode/6.2.0/woff2/FiraCode-Regular.woff2") format("woff2"),
                url("https://cdnjs.cloudflare.com/ajax/libs/firacode/6.2.0/woff/FiraCode-Regular.woff") format("woff");
        font-style: normal;
        font-weight: 400;
    }
    @font-face {
        font-family: "Fira Code";
        src: local("FiraCode-Bold"),
                url("https://cdnjs.cloudflare.com/ajax/libs/firacode/6.2.0/woff2/FiraCode-Bold.woff2") format("woff2"),
                url("https://cdnjs.cloudflare.com/ajax/libs/firacode/6.2.0/woff/FiraCode-Bold.woff") format("woff");
        font-style: bold;
        font-weight: 700;
    }
    .terminal-3006677588-matrix {
        font-family: Fira Code, monospace;
        font-size: 20px;
        line-height: 24.4px;
        font-variant-east-asian: full-width;
    }
    .terminal-3006677588-r1 { fill: #c5c8c6 }
.terminal-3006677588-r2 { fill: #00ffff }
.terminal-3006677588-r3 { fill: #e0e0e0 }
.terminal-3006677588-r4 { fill: #58d1eb;font-weight: bold }
.terminal-3006677588-r5 { fill: #98e024;font-weight: bold }
.terminal-3006677588-r6 { fill: #c4c5b5 }
.terminal-3006677588-r7 { fill: #9e9e9e }
.terminal-3006677588-r8 { fill: #fd971f }
    </style>
    <defs>
    <clipPath id="terminal-3006677588-clip-terminal">
      <rect x="0" y="0" width="926.1999999999999" height="365.0" />
    </clipPath>
    <clipPath id="terminal-3006677588-line-0">
    <rect x="0" y="1.5" width="927.2" height="24.65"/>
            </clipPath>
<clipPath id="terminal-3006677588-line-1">
    <rect x="0" y="25.9" width="927.2" height="24.65"/>
            </clipPath>
<clipPath id="terminal-3006677588-line-2">
    <rect x="0" y="50.3" width="927.2" height="24.65"/>
            </clipPath>
<clipPath id="terminal-3006677588-line-3">
    <rect x="0" y="74.7" width="927.2" height="24.65"/>
            </clipPath>
<clipPath id="terminal-3006677588-line-4">
    <rect x="0" y="99.1" width="927.2" height="24.65"/>
            </clipPath>
<clipPath id="terminal-3006677588-line-5">
    <rect x="0" y="123.5" width="927.2" height="24.65"/>
            </clipPath>
<clipPath id="terminal-3006677588-line-6">
    <rect x="0" y="147.9" width="927.2" height="24.65"/>
            </clipPath>
<clipPath id="terminal-3006677588-line-7">
    <rect x="0" y="172.3" width="927.2" height="24.65"/>
            </clipPath>
<clipPath id="terminal-3006677588-line-8">
    <rect x="0" y="196.7" width="927.2" height="24.65"/>
            </clipPath>
<clipPath id="terminal-3006677588-line-9">
    <rect x="0" y="221.1" width="927.2" height="24.65"/>
            </clipPath>
<clipPath id="terminal-3006677588-line-10">
    <rect x="0" y="245.5" width="927.2" height="24.65"/>
            </clipPath>
<clipPath id="terminal-3006677588-line-11">
    <rect x="0" y="269.9" width="927.2" height="24.65"/>
            </clipPath>
<clipPath id="terminal-3006677588-line-12">
    <rect x="0" y="294.3" width="927.2" height="24.65"/>
            </clipPath>
<clipPath id="terminal-3006677588-line-13">
    <rect x="0" y="318.7" width="927.2" height="24.65"/>
            </clipPath>
    </defs>
    <g clip-path="url(#terminal-3006677588-clip-terminal)">
    <rect fill="#121212" x="0" y="1.5" width="927.2" height="24.65" shape-rendering="crispEdges"/><rect fill="#121212" x="0" y="25.9" width="24.4" height="24.65" shape-rendering="crispEdges"/><rect fill="#1e1e1e" x="24.4" y="25.9" width="12.2" height="24.65" shape-rendering="crispEdges"/><rect fill="#1e1e1e" x="36.6" y="25.9" width="12.2" height="24.65" shape-rendering="crispEdges"/><rect fill="#1e1e1e" x="48.8" y="25.9" width="292.8" height="24.65" shape-rendering="crispEdges"/><rect fill="#1e1e1e" x="341.6" y="25.9" width="549" height="24.65" shape-rendering="crispEdges"/><rect fill="#1e1e1e" x="890.6" y="25.9" width="12.2" height="24.65" shape-rendering="crispEdges"/><rect fill="#121212" x="902.8" y="25.9" width="24.4" height="24.65" shape-rendering="crispEdges"/><rect fill="#121212" x="0" y="50.3" width="24.4" height="24.65" shape-rendering="crispEdges"/><rect fill="#1e1e1e" x="24.4" y="50.3" width="12.2" height="24.65" shape-rendering="crispEdges"/><rect fill="#1e1e1e" x="36.6" y="50.3" width="854" height="24.65" shape-rendering="crispEdges"/><rect fill="#1e1e1e" x="890.6" y="50.3" width="12.2" height="24.65" shape-rendering="crispEdges"/><rect fill="#121212" x="902.8" y="50.3" width="24.4" height="24.65" shape-rendering="crispEdges"/><rect fill="#121212" x="0" y="74.7" width="24.4" height="24.65" shape-rendering="crispEdges"/><rect fill="#1e1e1e" x="24.4" y="74.7" width="12.2" height="24.65" shape-rendering="crispEdges"/><rect fill="#1e1e1e" x="36.6" y="74.7" width="24.4" height="24.65" shape-rendering="crispEdges"/><rect fill="#1e1e1e" x="61" y="74.7" width="805.2" height="24.65" shape-rendering="crispEdges"/><rect fill="#1e1e1e" x="866.2" y="74.7" width="24.4" height="24.65" shape-rendering="crispEdges"/><rect fill="#1e1e1e" x="890.6" y="74.7" width="12.2" height="24.65" shape-rendering="crispEdges"/><rect fill="#121212" x="902.8" y="74.7" width="24.4" height="24.65" shape-rendering="crispEdges"/><rect fill="#121212" x="0" y="99.1" width="24.4" height="24.65" shape-rendering="crispEdges"/><rect fill="#1e1e1e" x="24.4" y="99.1" width="12.2" height="24.65" shape-rendering="crispEdges"/><rect fill="#1e1e1e" x="36.6" y="99.1" width="24.4" height="24.65" shape-rendering="crispEdges"/><rect fill="#1e1e1e" x="61" y="99.1" width="12.2" height="24.65" shape-rendering="crispEdges"/><rect fill="#1e1e1e" x="73.2" y="99.1" width="158.6" height="24.65" shape-rendering="crispEdges"/><rect fill="#1e1e1e" x="231.8" y="99.1" width="12.2" height="24.65" shape-rendering="crispEdges"/><rect fill="#1e1e1e" x="244" y="99.1" width="12.2" height="24.65" shape-rendering="crispEdges"/><rect fill="#1e1e1e" x="256.2" y="99.1" width="12.2" height="24.65" shape-rendering="crispEdges"/><rect fill="#1e1e1e" x="268.4" y="99.1" width="585.6" height="24.65" shape-rendering="crispEdges"/><rect fill="#1e1e1e" x="854" y="99.1" width="12.2" height="24.65" shape-rendering="crispEdges"/><rect fill="#1e1e1e" x="866.2" y="99.1" width="24.4" height="24.65" shape-rendering="crispEdges"/><rect fill="#1e1e1e" x="890.6" y="99.1" width="12.2" height="24.65" shape-rendering="crispEdges"/><rect fill="#121212" x="902.8" y="99.1" width="24.4" height="24.65" shape-rendering="crispEdges"/><rect fill="#121212" x="0" y="123.5" width="24.4" height="24.65" shape-rendering="crispEdges"/><rect fill="#1e1e1e" x="24.4" y="123.5" width="12.2" height="24.65" shape-rendering="crispEdges"/><rect fill="#1e1e1e" x="36.6" y="123.5" width="24.4" height="24.65" shape-rendering="crispEdges"/><rect fill="#1e1e1e" x="61" y="123.5" width="805.2" height="24.65" shape-rendering="crispEdges"/><rect fill="#1e1e1e" x="866.2" y="123.5" width="24.4" height="24.65" shape-rendering="crispEdges"/><rect fill="#1e1e1e" x="890.6" y="123.5" width="12.2" height="24.65" shape-rendering="crispEdges"/><rect fill="#121212" x="902.8" y="123.5" width="24.4" height="24.65" shape-rendering="crispEdges"/><rect fill="#121212" x="0" y="147.9" width="24.4" height="24.65" shape-rendering="crispEdges"/><rect fill="#1e1e1e" x="24.4" y="147.9" width="12.2" height="24.65" shape-rendering="crispEdges"/><rect fill="#1e1e1e" x="36.6" y="147.9" width="24.4" height="24.65" shape-rendering="crispEdges"/><rect fill="#1e1e1e" x="61" y="147.9" width="12.2" height="24.65" shape-rendering="crispEdges"/><rect fill="#1e1e1e" x="73.2" y="147.9" width="158.6" height="24.65" shape-rendering="crispEdges"/><rect fill="#1e1e1e" x="231.8" y="147.9" width="12.2" height="24.65" shape-rendering="crispEdges"/><rect fill="#1e1e1e" x="244" y="147.9" width="12.2" height="24.65" shape-rendering="crispEdges"/><rect fill="#1e1e1e" x="256.2" y="147.9" width="12.2" height="24.65" shape-rendering="crispEdges"/><rect fill="#1e1e1e" x="268.4" y="147.9" width="36.6" height="24.65" shape-rendering="crispEdges"/><rect fill="#1e1e1e" x="305" y="147.9" width="256.2" height="24.65" shape-rendering="crispEdges"/><rect fill="#1e1e1e" x="561.2" y="147.9" width="292.8" height="24.65" shape-rendering="crispEdges"/><rect fill="#1e1e1e" x="854" y="147.9" width="12.2" height="24.65" shape-rendering="crispEdges"/><rect fill="#1e1e1e" x="866.2" y="147.9" width="24.4" height="24.65" shape-rendering="crispEdges"/><rect fill="#1e1e1e" x="890.6" y="147.9" width="12.2" height="24.65" shape-rendering="crispEdges"/><rect fill="#121212" x="902.8" y="147.9" width="24.4" height="24.65" shape-rendering="crispEdges"/><rect fill="#121212" x="0" y="172.3" width="24.4" height="24.65" shape-rendering="crispEdges"/><rect fill="#1e1e1e" x="24.4" y="172.3" width="12.2" height="24.65" shape-rendering="crispEdges"/><rect fill="#1e1e1e" x="36.6" y="172.3" width="24.4" height="24.65" shape-rendering="crispEdges"/><rect fill="#1e1e1e" x="61" y="172.3" width="12.2" height="24.65" shape-rendering="crispEdges"/><rect fill="#1e1e1e" x="73.2" y="172.3" width="158.6" height="24.65" shape-rendering="crispEdges"/><rect fill="#1e1e1e" x="231.8" y="172.3" width="12.2" height="24.65" shape-rendering="crispEdges"/><rect fill="#1e1e1e" x="244" y="172.3" width="12.2" height="24.65" shape-rendering="crispEdges"/><rect fill="#1e1e1e" x="256.2" y="172.3" width="12.2" height="24.65" shape-rendering="crispEdges"/><rect fill="#1e1e1e" x="268.4" y="172.3" width="585.6" height="24.65" shape-rendering="crispEdges"/><rect fill="#1e1e1e" x="854" y="172.3" width="12.2" height="24.65" shape-rendering="crispEdges"/><rect fill="#1e1e1e" x="866.2" y="172.3" width="24.4" height="24.65" shape-rendering="crispEdges"/><rect fill="#1e1e1e" x="890.6" y="172.3" width="12.2" height="24.65" shape-rendering="crispEdges"/><rect fill="#121212" x="902.8" y="172.3" width="24.4" height="24.65" shape-rendering="crispEdges"/><rect fill="#121212" x="0" y="196.7" width="24.4" height="24.65" shape-rendering="crispEdges"/><rect fill="#1e1e1e" x="24.4" y="196.7" width="12.2" height="24.65" shape-rendering="crispEdges"/><rect fill="#1e1e1e" x="36.6" y="196.7" width="24.4" height="24.65" shape-rendering="crispEdges"/><rect fill="#1e1e1e" x="61" y="196.7" width="12.2" height="24.65" shape-rendering="crispEdges"/><rect fill="#1e1e1e" x="73.2" y="196.7" width="158.6" height="24.65" shape-rendering="crispEdges"/><rect fill="#1e1e1e" x="231.8" y="196.7" width="12.2" height="24.65" shape-rendering="crispEdges"/><rect fill="#1e1e1e" x="244" y="196.7" width="12.2" height="24.65" shape-rendering="crispEdges"/><rect fill="#1e1e1e" x="256.2" y="196.7" width="12.2" height="24.65" shape-rendering="crispEdges"/><rect fill="#1e1e1e" x="268.4" y="196.7" width="585.6" height="24.65" shape-rendering="crispEdges"/><rect fill="#1e1e1e" x="854" y="196.7" width="12.2" height="24.65" shape-rendering="crispEdges"/><rect fill="#1e1e1e" x="866.2" y="196.7" width="24.4" height="24.65" shape-rendering="crispEdges"/><rect fill="#1e1e1e" x="890.6" y="196.7" width="12.2" height="24.65" shape-rendering="crispEdges"/><rect fill="#121212" x="902.8" y="196.7" width="24.4" height="24.65" shape-rendering="crispEdges"/><rect fill="#121212" x="0" y="221.1" width="24.4" height="24.65" shape-rendering="crispEdges"/><rect fill="#1e1e1e" x="24.4" y="221.1" width="12.2" height="24.65" shape-rendering="crispEdges"/><rect fill="#1e1e1e" x="36.6" y="221.1" width="24.4" height="24.65" shape-rendering="crispEdges"/><rect fill="#1e1e1e" x="61" y="221.1" width="12.2" height="24.65" shape-rendering="crispEdges"/><rect fill="#1e1e1e" x="73.2" y="221.1" width="158.6" height="24.65" shape-rendering="crispEdges"/><rect fill="#1e1e1e" x="231.8" y="221.1" width="12.2" height="24.65" shape-rendering="crispEdges"/><rect fill="#1e1e1e" x="244" y="221.1" width="12.2" height="24.65" shape-rendering="crispEdges"/><rect fill="#1e1e1e" x="256.2" y="221.1" width="12.2" height="24.65" shape-rendering="crispEdges"/><rect fill="#1e1e1e" x="268.4" y="221.1" width="585.6" height="24.65" shape-rendering="crispEdges"/><rect fill="#1e1e1e" x="854" y="221.1" width="12.2" height="24.65" shape-rendering="crispEdges"/><rect fill="#1e1e1e" x="866.2" y="221.1" width="24.4" height="24.65" shape-rendering="crispEdges"/><rect fill="#1e1e1e" x="890.6" y="221.1" width="12.2" height="24.65" shape-rendering="crispEdges"/><rect fill="#121212" x="902.8" y="221.1" width="24.4" height="24.65" shape-rendering="crispEdges"/><rect fill="#121212" x="0" y="245.5" width="24.4" height="24.65" shape-rendering="crispEdges"/><rect fill="#1e1e1e" x="24.4" y="245.5" width="12.2" height="24.65" shape-rendering="crispEdges"/><rect fill="#1e1e1e" x="36.6" y="245.5" width="24.4" height="24.65" shape-rendering="crispEdges"/><rect fill="#1e1e1e" x="61" y="245.5" width="12.2" height="24.65" shape-rendering="crispEdges"/><rect fill="#1e1e1e" x="73.2" y="245.5" width="158.6" height="24.65" shape-rendering="crispEdges"/><rect fill="#1e1e1e" x="231.8" y="245.5" width="12.2" height="24.65" shape-rendering="crispEdges"/><rect fill="#1e1e1e" x="244" y="245.5" width="12.2" height="24.65" shape-rendering="crispEdges"/><rect fill="#1e1e1e" x="256.2" y="245.5" width="12.2" height="24.65" shape-rendering="crispEdges"/><rect fill="#1e1e1e" x="268.4" y="245.5" width="24.4" height="24.65" shape-rendering="crispEdges"/><rect fill="#1e1e1e" x="292.8" y="245.5" width="48.8" height="24.65" shape-rendering="crispEdges"/><rect fill="#1e1e1e" x="341.6" y="245.5" width="512.4" height="24.65" shape-rendering="crispEdges"/><rect fill="#1e1e1e" x="854" y="245.5" width="12.2" height="24.65" shape-rendering="crispEdges"/><rect fill="#1e1e1e" x="866.2" y="245.5" width="24.4" height="24.65" shape-rendering="crispEdges"/><rect fill="#1e1e1e" x="890.6" y="245.5" width="12.2" height="24.65" shape-rendering="crispEdges"/><rect fill="#121212" x="902.8" y="245.5" width="24.4" height="24.65" shape-rendering="crispEdges"/><rect fill="#121212" x="0" y="269.9" width="24.4" height="24.65" shape-rendering="crispEdges"/><rect fill="#1e1e1e" x="24.4" y="269.9" width="12.2" height="24.65" shape-rendering="crispEdges"/><rect fill="#1e1e1e" x="36.6" y="269.9" width="24.4" height="24.65" shape-rendering="crispEdges"/><rect fill="#1e1e1e" x="61" y="269.9" width="805.2" height="24.65" shape-rendering="crispEdges"/><rect fill="#1e1e1e" x="866.2" y="269.9" width="24.4" height="24.65" shape-rendering="crispEdges"/><rect fill="#1e1e1e" x="890.6" y="269.9" width="12.2" height="24.65" shape-rendering="crispEdges"/><rect fill="#121212" x="902.8" y="269.9" width="24.4" height="24.65" shape-rendering="crispEdges"/><rect fill="#121212" x="0" y="294.3" width="24.4" height="24.65" shape-rendering="crispEdges"/><rect fill="#1e1e1e" x="24.4" y="294.3" width="12.2" height="24.65" shape-rendering="crispEdges"/><rect fill="#1e1e1e" x="36.6" y="294.3" width="854" height="24.65" shape-rendering="crispEdges"/><rect fill="#1e1e1e" x="890.6" y="294.3" width="12.2" height="24.65" shape-rendering="crispEdges"/><rect fill="#121212" x="902.8" y="294.3" width="24.4" height="24.65" shape-rendering="crispEdges"/><rect fill="#121212" x="0" y="318.7" width="24.4" height="24.65" shape-rendering="crispEdges"/><rect fill="#1e1e1e" x="24.4" y="318.7" width="12.2" height="24.65" shape-rendering="crispEdges"/><rect fill="#1e1e1e" x="36.6" y="318.7" width="854" height="24.65" shape-rendering="crispEdges"/><rect fill="#1e1e1e" x="890.6" y="318.7" width="12.2" height="24.65" shape-rendering="crispEdges"/><rect fill="#121212" x="902.8" y="318.7" width="24.4" height="24.65" shape-rendering="crispEdges"/><rect fill="#121212" x="0" y="343.1" width="927.2" height="24.65" shape-rendering="crispEdges"/>
    <g class="terminal-3006677588-matrix">
    <text class="terminal-3006677588-r1" x="927.2" y="20" textLength="12.2" clip-path="url(#terminal-3006677588-line-0)">
</text><text class="terminal-3006677588-r2" x="24.4" y="44.4" textLength="12.2" clip-path="url(#terminal-3006677588-line-1)">╭</text><text class="terminal-3006677588-r2" x="36.6" y="44.4" textLength="12.2" clip-path="url(#terminal-3006677588-line-1)">─</text><text class="terminal-3006677588-r2" x="48.8" y="44.4" textLength="292.8" clip-path="url(#terminal-3006677588-line-1)">&#160;A&#160;WORKED&#160;CARD:&#160;textual&#160;</text><text class="terminal-3006677588-r2" x="341.6" y="44.4" textLength="549" clip-path="url(#terminal-3006677588-line-1)">─────────────────────────────────────────────</text><text class="terminal-3006677588-r2" x="890.6" y="44.4" textLength="12.2" clip-path="url(#terminal-3006677588-line-1)">╮</text><text class="terminal-3006677588-r1" x="927.2" y="44.4" textLength="12.2" clip-path="url(#terminal-3006677588-line-1)">
</text><text class="terminal-3006677588-r2" x="24.4" y="68.8" textLength="12.2" clip-path="url(#terminal-3006677588-line-2)">│</text><text class="terminal-3006677588-r2" x="890.6" y="68.8" textLength="12.2" clip-path="url(#terminal-3006677588-line-2)">│</text><text class="terminal-3006677588-r1" x="927.2" y="68.8" textLength="12.2" clip-path="url(#terminal-3006677588-line-2)">
</text><text class="terminal-3006677588-r2" x="24.4" y="93.2" textLength="12.2" clip-path="url(#terminal-3006677588-line-3)">│</text><text class="terminal-3006677588-r2" x="890.6" y="93.2" textLength="12.2" clip-path="url(#terminal-3006677588-line-3)">│</text><text class="terminal-3006677588-r1" x="927.2" y="93.2" textLength="12.2" clip-path="url(#terminal-3006677588-line-3)">
</text><text class="terminal-3006677588-r2" x="24.4" y="117.6" textLength="12.2" clip-path="url(#terminal-3006677588-line-4)">│</text><text class="terminal-3006677588-r4" x="73.2" y="117.6" textLength="158.6" clip-path="url(#terminal-3006677588-line-4)">Field&#160;&#160;&#160;&#160;&#160;&#160;&#160;&#160;</text><text class="terminal-3006677588-r4" x="268.4" y="117.6" textLength="585.6" clip-path="url(#terminal-3006677588-line-4)">Value&#160;&#160;&#160;&#160;&#160;&#160;&#160;&#160;&#160;&#160;&#160;&#160;&#160;&#160;&#160;&#160;&#160;&#160;&#160;&#160;&#160;&#160;&#160;&#160;&#160;&#160;&#160;&#160;&#160;&#160;&#160;&#160;&#160;&#160;&#160;&#160;&#160;&#160;&#160;&#160;&#160;&#160;&#160;</text><text class="terminal-3006677588-r2" x="890.6" y="117.6" textLength="12.2" clip-path="url(#terminal-3006677588-line-4)">│</text><text class="terminal-3006677588-r1" x="927.2" y="117.6" textLength="12.2" clip-path="url(#terminal-3006677588-line-4)">
</text><text class="terminal-3006677588-r2" x="24.4" y="142" textLength="12.2" clip-path="url(#terminal-3006677588-line-5)">│</text><text class="terminal-3006677588-r3" x="61" y="142" textLength="805.2" clip-path="url(#terminal-3006677588-line-5)">&#160;────────────────────────────────────────────────────────────────&#160;</text><text class="terminal-3006677588-r2" x="890.6" y="142" textLength="12.2" clip-path="url(#terminal-3006677588-line-5)">│</text><text class="terminal-3006677588-r1" x="927.2" y="142" textLength="12.2" clip-path="url(#terminal-3006677588-line-5)">
</text><text class="terminal-3006677588-r2" x="24.4" y="166.4" textLength="12.2" clip-path="url(#terminal-3006677588-line-6)">│</text><text class="terminal-3006677588-r3" x="73.2" y="166.4" textLength="158.6" clip-path="url(#terminal-3006677588-line-6)">Scan&#160;&#160;&#160;&#160;&#160;&#160;&#160;&#160;&#160;</text><text class="terminal-3006677588-r5" x="268.4" y="166.4" textLength="36.6" clip-path="url(#terminal-3006677588-line-6)">LOW</text><text class="terminal-3006677588-r6" x="305" y="166.4" textLength="256.2" clip-path="url(#terminal-3006677588-line-6)">&#160;(0/100),&#160;no&#160;findings</text><text class="terminal-3006677588-r2" x="890.6" y="166.4" textLength="12.2" clip-path="url(#terminal-3006677588-line-6)">│</text><text class="terminal-3006677588-r1" x="927.2" y="166.4" textLength="12.2" clip-path="url(#terminal-3006677588-line-6)">
</text><text class="terminal-3006677588-r2" x="24.4" y="190.8" textLength="12.2" clip-path="url(#terminal-3006677588-line-7)">│</text><text class="terminal-3006677588-r3" x="73.2" y="190.8" textLength="158.6" clip-path="url(#terminal-3006677588-line-7)">Permissions&#160;&#160;</text><text class="terminal-3006677588-r6" x="268.4" y="190.8" textLength="585.6" clip-path="url(#terminal-3006677588-line-7)">shell,&#160;file&#160;(no&#160;network,&#160;env,&#160;or&#160;MCP)&#160;&#160;&#160;&#160;&#160;&#160;&#160;&#160;&#160;&#160;&#160;</text><text class="terminal-3006677588-r2" x="890.6" y="190.8" textLength="12.2" clip-path="url(#terminal-3006677588-line-7)">│</text><text class="terminal-3006677588-r1" x="927.2" y="190.8" textLength="12.2" clip-path="url(#terminal-3006677588-line-7)">
</text><text class="terminal-3006677588-r2" x="24.4" y="215.2" textLength="12.2" clip-path="url(#terminal-3006677588-line-8)">│</text><text class="terminal-3006677588-r3" x="73.2" y="215.2" textLength="158.6" clip-path="url(#terminal-3006677588-line-8)">Dependencies&#160;</text><text class="terminal-3006677588-r6" x="268.4" y="215.2" textLength="585.6" clip-path="url(#terminal-3006677588-line-8)">textual&gt;=8.2,&lt;9&#160;·&#160;rich&gt;=15.0&#160;·&#160;python&gt;=3.9&#160;&#160;&#160;&#160;&#160;&#160;</text><text class="terminal-3006677588-r2" x="890.6" y="215.2" textLength="12.2" clip-path="url(#terminal-3006677588-line-8)">│</text><text class="terminal-3006677588-r1" x="927.2" y="215.2" textLength="12.2" clip-path="url(#terminal-3006677588-line-8)">
</text><text class="terminal-3006677588-r2" x="24.4" y="239.6" textLength="12.2" clip-path="url(#terminal-3006677588-line-9)">│</text><text class="terminal-3006677588-r3" x="73.2" y="239.6" textLength="158.6" clip-path="url(#terminal-3006677588-line-9)">Source&#160;&#160;&#160;&#160;&#160;&#160;&#160;</text><text class="terminal-3006677588-r7" x="268.4" y="239.6" textLength="585.6" clip-path="url(#terminal-3006677588-line-9)">pinned&#160;to&#160;a&#160;content_hash&#160;of&#160;the&#160;skill&#160;folder&#160;&#160;&#160;&#160;</text><text class="terminal-3006677588-r2" x="890.6" y="239.6" textLength="12.2" clip-path="url(#terminal-3006677588-line-9)">│</text><text class="terminal-3006677588-r1" x="927.2" y="239.6" textLength="12.2" clip-path="url(#terminal-3006677588-line-9)">
</text><text class="terminal-3006677588-r2" x="24.4" y="264" textLength="12.2" clip-path="url(#terminal-3006677588-line-10)">│</text><text class="terminal-3006677588-r3" x="73.2" y="264" textLength="158.6" clip-path="url(#terminal-3006677588-line-10)">Status&#160;&#160;&#160;&#160;&#160;&#160;&#160;</text><text class="terminal-3006677588-r8" x="268.4" y="264" textLength="24.4" clip-path="url(#terminal-3006677588-line-10)">●&#160;</text><text class="terminal-3006677588-r6" x="292.8" y="264" textLength="48.8" clip-path="url(#terminal-3006677588-line-10)">beta</text><text class="terminal-3006677588-r2" x="890.6" y="264" textLength="12.2" clip-path="url(#terminal-3006677588-line-10)">│</text><text class="terminal-3006677588-r1" x="927.2" y="264" textLength="12.2" clip-path="url(#terminal-3006677588-line-10)">
</text><text class="terminal-3006677588-r2" x="24.4" y="288.4" textLength="12.2" clip-path="url(#terminal-3006677588-line-11)">│</text><text class="terminal-3006677588-r2" x="890.6" y="288.4" textLength="12.2" clip-path="url(#terminal-3006677588-line-11)">│</text><text class="terminal-3006677588-r1" x="927.2" y="288.4" textLength="12.2" clip-path="url(#terminal-3006677588-line-11)">
</text><text class="terminal-3006677588-r2" x="24.4" y="312.8" textLength="12.2" clip-path="url(#terminal-3006677588-line-12)">│</text><text class="terminal-3006677588-r2" x="890.6" y="312.8" textLength="12.2" clip-path="url(#terminal-3006677588-line-12)">│</text><text class="terminal-3006677588-r1" x="927.2" y="312.8" textLength="12.2" clip-path="url(#terminal-3006677588-line-12)">
</text><text class="terminal-3006677588-r2" x="24.4" y="337.2" textLength="12.2" clip-path="url(#terminal-3006677588-line-13)">╰</text><text class="terminal-3006677588-r2" x="36.6" y="337.2" textLength="854" clip-path="url(#terminal-3006677588-line-13)">──────────────────────────────────────────────────────────────────────</text><text class="terminal-3006677588-r2" x="890.6" y="337.2" textLength="12.2" clip-path="url(#terminal-3006677588-line-13)">╯</text><text class="terminal-3006677588-r1" x="927.2" y="337.2" textLength="12.2" clip-path="url(#terminal-3006677588-line-13)">
</text>
    </g>
    </g>
</svg>
