<svg class="skill-card" viewBox="0 0 950.5999999999999 804.1999999999999" xmlns="http://www.w3.org/2000/svg">
    <style>
    @font-face {
        font-family: "Fira Code";
        src: local("FiraCode-Regular"),
                url("https://cdnjs.cloudflare.com/ajax/libs/firacode/6.2.0/woff2/FiraCode-Regular.woff2") format("woff2"),
                url("https://cdnjs.cloudflare.com/ajax/libs/firacode/6.2.0/woff/FiraCode-Regular.woff") format("woff");
        font-style: normal;
        font-weight: 400;
    }
    @font-face {
        font-family: "Fira Code";
        src: local("FiraCode-Bold"),
                url("https://cdnjs.cloudflare.com/ajax/libs/firacode/6.2.0/woff2/FiraCode-Bold.woff2") format("woff2"),
                url("https://cdnjs.cloudflare.com/ajax/libs/firacode/6.2.0/woff/FiraCode-Bold.woff") format("woff");
        font-style: bold;
        font-weight: 700;
    }
    .terminal-1810094306-matrix {
        font-family: Fira Code, monospace;
        font-size: 20px;
        line-height: 24.4px;
        font-variant-east-asian: full-width;
    }
    .terminal-1810094306-r1 { fill: #c5c8c6 }
.terminal-1810094306-r2 { fill: #00ffff }
.terminal-1810094306-r3 { fill: #c4c5b5;font-weight: bold }
.terminal-1810094306-r4 { fill: #9e9e9e }
.terminal-1810094306-r5 { fill: #e0e0e0 }
.terminal-1810094306-r6 { fill: #fd971f }
.terminal-1810094306-r7 { fill: #c4c5b5 }
.terminal-1810094306-r8 { fill: #9e9e9e;font-style: italic; }
.terminal-1810094306-r9 { fill: #58d1eb;font-weight: bold }
.terminal-1810094306-r10 { fill: #808080;font-style: italic; }
.terminal-1810094306-r11 { fill: #98e024 }
    </style>
    <defs>
    <clipPath id="terminal-1810094306-clip-terminal">
      <rect x="0" y="0" width="950.5999999999999" height="804.1999999999999" />
    </clipPath>
    <clipPath id="terminal-1810094306-line-0">
    <rect x="0" y="1.5" width="951.6" height="24.65"/>
            </clipPath>
<clipPath id="terminal-1810094306-line-1">
    <rect x="0" y="25.9" width="951.6" height="24.65"/>
            </clipPath>
<clipPath id="terminal-1810094306-line-2">
    <rect x="0" y="50.3" width="951.6" height="24.65"/>
            </clipPath>
<clipPath id="terminal-1810094306-line-3">
    <rect x="0" y="74.7" width="951.6" height="24.65"/>
            </clipPath>
<clipPath id="terminal-1810094306-line-4">
    <rect x="0" y="99.1" width="951.6" height="24.65"/>
            </clipPath>
<clipPath id="terminal-1810094306-line-5">
    <rect x="0" y="123.5" width="951.6" height="24.65"/>
            </clipPath>
<clipPath id="terminal-1810094306-line-6">
    <rect x="0" y="147.9" width="951.6" height="24.65"/>
            </clipPath>
<clipPath id="terminal-1810094306-line-7">
    <rect x="0" y="172.3" width="951.6" height="24.65"/>
            </clipPath>
<clipPath id="terminal-1810094306-line-8">
    <rect x="0" y="196.7" width="951.6" height="24.65"/>
            </clipPath>
<clipPath id="terminal-1810094306-line-9">
    <rect x="0" y="221.1" width="951.6" height="24.65"/>
            </clipPath>
<clipPath id="terminal-1810094306-line-10">
    <rect x="0" y="245.5" width="951.6" height="24.65"/>
            </clipPath>
<clipPath id="terminal-1810094306-line-11">
    <rect x="0" y="269.9" width="951.6" height="24.65"/>
            </clipPath>
<clipPath id="terminal-1810094306-line-12">
    <rect x="0" y="294.3" width="951.6" height="24.65"/>
            </clipPath>
<clipPath id="terminal-1810094306-line-13">
    <rect x="0" y="318.7" width="951.6" height="24.65"/>
            </clipPath>
<clipPath id="terminal-1810094306-line-14">
    <rect x="0" y="343.1" width="951.6" height="24.65"/>
            </clipPath>
<clipPath id="terminal-1810094306-line-15">
    <rect x="0" y="367.5" width="951.6" height="24.65"/>
            </clipPath>
<clipPath id="terminal-1810094306-line-16">
    <rect x="0" y="391.9" width="951.6" height="24.65"/>
            </clipPath>
<clipPath id="terminal-1810094306-line-17">
    <rect x="0" y="416.3" width="951.6" height="24.65"/>
            </clipPath>
<clipPath id="terminal-1810094306-line-18">
    <rect x="0" y="440.7" width="951.6" height="24.65"/>
            </clipPath>
<clipPath id="terminal-1810094306-line-19">
    <rect x="0" y="465.1" width="951.6" height="24.65"/>
            </clipPath>
<clipPath id="terminal-1810094306-line-20">
    <rect x="0" y="489.5" width="951.6" height="24.65"/>
            </clipPath>
<clipPath id="terminal-1810094306-line-21">
    <rect x="0" y="513.9" width="951.6" height="24.65"/>
            </clipPath>
<clipPath id="terminal-1810094306-line-22">
    <rect x="0" y="538.3" width="951.6" height="24.65"/>
            </clipPath>
<clipPath id="terminal-1810094306-line-23">
    <rect x="0" y="562.7" width="951.6" height="24.65"/>
            </clipPath>
<clipPath id="terminal-1810094306-line-24">
    <rect x="0" y="587.1" width="951.6" height="24.65"/>
            </clipPath>
<clipPath id="terminal-1810094306-line-25">
    <rect x="0" y="611.5" width="951.6" height="24.65"/>
            </clipPath>
<clipPath id="terminal-1810094306-line-26">
    <rect x="0" y="635.9" width="951.6" height="24.65"/>
            </clipPath>
<clipPath id="terminal-1810094306-line-27">
    <rect x="0" y="660.3" width="951.6" height="24.65"/>
            </clipPath>
<clipPath id="terminal-1810094306-line-28">
    <rect x="0" y="684.7" width="951.6" height="24.65"/>
            </clipPath>
<clipPath id="terminal-1810094306-line-29">
    <rect x="0" y="709.1" width="951.6" height="24.65"/>
            </clipPath>
<clipPath id="terminal-1810094306-line-30">
    <rect x="0" y="733.5" width="951.6" height="24.65"/>
            </clipPath>
<clipPath id="terminal-1810094306-line-31">
    <rect x="0" y="757.9" width="951.6" height="24.65"/>
            </clipPath>
    </defs>
    <g clip-path="url(#terminal-1810094306-clip-terminal)">
    <rect fill="#121212" x="0" y="1.5" width="951.6" height="24.65" shape-rendering="crispEdges"/><rect fill="#121212" x="0" y="25.9" width="24.4" height="24.65" shape-rendering="crispEdges"/><rect fill="#1e1e1e" x="24.4" y="25.9" width="12.2" height="24.65" shape-rendering="crispEdges"/><rect fill="#1e1e1e" x="36.6" y="25.9" width="12.2" height="24.65" shape-rendering="crispEdges"/><rect fill="#1e1e1e" x="48.8" y="25.9" width="146.4" height="24.65" shape-rendering="crispEdges"/><rect fill="#1e1e1e" x="195.2" y="25.9" width="719.8" height="24.65" shape-rendering="crispEdges"/><rect fill="#1e1e1e" x="915" y="25.9" width="12.2" height="24.65" shape-rendering="crispEdges"/><rect fill="#121212" x="927.2" y="25.9" width="24.4" height="24.65" shape-rendering="crispEdges"/><rect fill="#121212" x="0" y="50.3" width="24.4" height="24.65" shape-rendering="crispEdges"/><rect fill="#1e1e1e" x="24.4" y="50.3" width="12.2" height="24.65" shape-rendering="crispEdges"/><rect fill="#1e1e1e" x="36.6" y="50.3" width="878.4" height="24.65" shape-rendering="crispEdges"/><rect fill="#1e1e1e" x="915" y="50.3" width="12.2" height="24.65" shape-rendering="crispEdges"/><rect fill="#121212" x="927.2" y="50.3" width="24.4" height="24.65" shape-rendering="crispEdges"/><rect fill="#121212" x="0" y="74.7" width="24.4" height="24.65" shape-rendering="crispEdges"/><rect fill="#1e1e1e" x="24.4" y="74.7" width="12.2" height="24.65" shape-rendering="crispEdges"/><rect fill="#1e1e1e" x="36.6" y="74.7" width="24.4" height="24.65" shape-rendering="crispEdges"/><rect fill="#1e1e1e" x="61" y="74.7" width="85.4" height="24.65" shape-rendering="crispEdges"/><rect fill="#1e1e1e" x="146.4" y="74.7" width="97.6" height="24.65" shape-rendering="crispEdges"/><rect fill="#1e1e1e" x="244" y="74.7" width="414.8" height="24.65" shape-rendering="crispEdges"/><rect fill="#1e1e1e" x="658.8" y="74.7" width="158.6" height="24.65" shape-rendering="crispEdges"/><rect fill="#1e1e1e" x="817.4" y="74.7" width="24.4" height="24.65" shape-rendering="crispEdges"/><rect fill="#1e1e1e" x="841.8" y="74.7" width="48.8" height="24.65" shape-rendering="crispEdges"/><rect fill="#1e1e1e" x="890.6" y="74.7" width="24.4" height="24.65" shape-rendering="crispEdges"/><rect fill="#1e1e1e" x="915" y="74.7" width="12.2" height="24.65" shape-rendering="crispEdges"/><rect fill="#121212" x="927.2" y="74.7" width="24.4" height="24.65" shape-rendering="crispEdges"/><rect fill="#121212" x="0" y="99.1" width="24.4" height="24.65" shape-rendering="crispEdges"/><rect fill="#1e1e1e" x="24.4" y="99.1" width="12.2" height="24.65" shape-rendering="crispEdges"/><rect fill="#1e1e1e" x="36.6" y="99.1" width="24.4" height="24.65" shape-rendering="crispEdges"/><rect fill="#1e1e1e" x="61" y="99.1" width="829.6" height="24.65" shape-rendering="crispEdges"/><rect fill="#1e1e1e" x="890.6" y="99.1" width="24.4" height="24.65" shape-rendering="crispEdges"/><rect fill="#1e1e1e" x="915" y="99.1" width="12.2" height="24.65" shape-rendering="crispEdges"/><rect fill="#121212" x="927.2" y="99.1" width="24.4" height="24.65" shape-rendering="crispEdges"/><rect fill="#121212" x="0" y="123.5" width="24.4" height="24.65" shape-rendering="crispEdges"/><rect fill="#1e1e1e" x="24.4" y="123.5" width="12.2" height="24.65" shape-rendering="crispEdges"/><rect fill="#1e1e1e" x="36.6" y="123.5" width="24.4" height="24.65" shape-rendering="crispEdges"/><rect fill="#1e1e1e" x="61" y="123.5" width="780.8" height="24.65" shape-rendering="crispEdges"/><rect fill="#1e1e1e" x="841.8" y="123.5" width="48.8" height="24.65" shape-rendering="crispEdges"/><rect fill="#1e1e1e" x="890.6" y="123.5" width="24.4" height="24.65" shape-rendering="crispEdges"/><rect fill="#1e1e1e" x="915" y="123.5" width="12.2" height="24.65" shape-rendering="crispEdges"/><rect fill="#121212" x="927.2" y="123.5" width="24.4" height="24.65" shape-rendering="crispEdges"/><rect fill="#121212" x="0" y="147.9" width="24.4" height="24.65" shape-rendering="crispEdges"/><rect fill="#1e1e1e" x="24.4" y="147.9" width="12.2" height="24.65" shape-rendering="crispEdges"/><rect fill="#1e1e1e" x="36.6" y="147.9" width="24.4" height="24.65" shape-rendering="crispEdges"/><rect fill="#1e1e1e" x="61" y="147.9" width="536.8" height="24.65" shape-rendering="crispEdges"/><rect fill="#1e1e1e" x="597.8" y="147.9" width="292.8" height="24.65" shape-rendering="crispEdges"/><rect fill="#1e1e1e" x="890.6" y="147.9" width="24.4" height="24.65" shape-rendering="crispEdges"/><rect fill="#1e1e1e" x="915" y="147.9" width="12.2" height="24.65" shape-rendering="crispEdges"/><rect fill="#121212" x="927.2" y="147.9" width="24.4" height="24.65" shape-rendering="crispEdges"/><rect fill="#121212" x="0" y="172.3" width="24.4" height="24.65" shape-rendering="crispEdges"/><rect fill="#1e1e1e" x="24.4" y="172.3" width="12.2" height="24.65" shape-rendering="crispEdges"/><rect fill="#1e1e1e" x="36.6" y="172.3" width="24.4" height="24.65" shape-rendering="crispEdges"/><rect fill="#1e1e1e" x="61" y="172.3" width="0" height="24.65" shape-rendering="crispEdges"/><rect fill="#1e1e1e" x="61" y="172.3" width="829.6" height="24.65" shape-rendering="crispEdges"/><rect fill="#1e1e1e" x="890.6" y="172.3" width="24.4" height="24.65" shape-rendering="crispEdges"/><rect fill="#1e1e1e" x="915" y="172.3" width="12.2" height="24.65" shape-rendering="crispEdges"/><rect fill="#121212" x="927.2" y="172.3" width="24.4" height="24.65" shape-rendering="crispEdges"/><rect fill="#121212" x="0" y="196.7" width="24.4" height="24.65" shape-rendering="crispEdges"/><rect fill="#1e1e1e" x="24.4" y="196.7" width="12.2" height="24.65" shape-rendering="crispEdges"/><rect fill="#1e1e1e" x="36.6" y="196.7" width="24.4" height="24.65" shape-rendering="crispEdges"/><rect fill="#1e1e1e" x="61" y="196.7" width="134.2" height="24.65" shape-rendering="crispEdges"/><rect fill="#1e1e1e" x="195.2" y="196.7" width="695.4" height="24.65" shape-rendering="crispEdges"/><rect fill="#1e1e1e" x="890.6" y="196.7" width="24.4" height="24.65" shape-rendering="crispEdges"/><rect fill="#1e1e1e" x="915" y="196.7" width="12.2" height="24.65" shape-rendering="crispEdges"/><rect fill="#121212" x="927.2" y="196.7" width="24.4" height="24.65" shape-rendering="crispEdges"/><rect fill="#121212" x="0" y="221.1" width="24.4" height="24.65" shape-rendering="crispEdges"/><rect fill="#1e1e1e" x="24.4" y="221.1" width="12.2" height="24.65" shape-rendering="crispEdges"/><rect fill="#1e1e1e" x="36.6" y="221.1" width="24.4" height="24.65" shape-rendering="crispEdges"/><rect fill="#1e1e1e" x="61" y="221.1" width="805.2" height="24.65" shape-rendering="crispEdges"/><rect fill="#1e1e1e" x="866.2" y="221.1" width="24.4" height="24.65" shape-rendering="crispEdges"/><rect fill="#1e1e1e" x="890.6" y="221.1" width="24.4" height="24.65" shape-rendering="crispEdges"/><rect fill="#1e1e1e" x="915" y="221.1" width="12.2" height="24.65" shape-rendering="crispEdges"/><rect fill="#121212" x="927.2" y="221.1" width="24.4" height="24.65" shape-rendering="crispEdges"/><rect fill="#121212" x="0" y="245.5" width="24.4" height="24.65" shape-rendering="crispEdges"/><rect fill="#1e1e1e" x="24.4" y="245.5" width="12.2" height="24.65" shape-rendering="crispEdges"/><rect fill="#1e1e1e" x="36.6" y="245.5" width="24.4" height="24.65" shape-rendering="crispEdges"/><rect fill="#1e1e1e" x="61" y="245.5" width="829.6" height="24.65" shape-rendering="crispEdges"/><rect fill="#1e1e1e" x="890.6" y="245.5" width="24.4" height="24.65" shape-rendering="crispEdges"/><rect fill="#1e1e1e" x="915" y="245.5" width="12.2" height="24.65" shape-rendering="crispEdges"/><rect fill="#121212" x="927.2" y="245.5" width="24.4" height="24.65" shape-rendering="crispEdges"/><rect fill="#121212" x="0" y="269.9" width="24.4" height="24.65" shape-rendering="crispEdges"/><rect fill="#1e1e1e" x="24.4" y="269.9" width="12.2" height="24.65" shape-rendering="crispEdges"/><rect fill="#1e1e1e" x="36.6" y="269.9" width="24.4" height="24.65" shape-rendering="crispEdges"/><rect fill="#1e1e1e" x="61" y="269.9" width="695.4" height="24.65" shape-rendering="crispEdges"/><rect fill="#1e1e1e" x="756.4" y="269.9" width="134.2" height="24.65" shape-rendering="crispEdges"/><rect fill="#1e1e1e" x="890.6" y="269.9" width="24.4" height="24.65" shape-rendering="crispEdges"/><rect fill="#1e1e1e" x="915" y="269.9" width="12.2" height="24.65" shape-rendering="crispEdges"/><rect fill="#121212" x="927.2" y="269.9" width="24.4" height="24.65" shape-rendering="crispEdges"/><rect fill="#121212" x="0" y="294.3" width="24.4" height="24.65" shape-rendering="crispEdges"/><rect fill="#1e1e1e" x="24.4" y="294.3" width="12.2" height="24.65" shape-rendering="crispEdges"/><rect fill="#1e1e1e" x="36.6" y="294.3" width="24.4" height="24.65" shape-rendering="crispEdges"/><rect fill="#1e1e1e" x="61" y="294.3" width="0" height="24.65" shape-rendering="crispEdges"/><rect fill="#1e1e1e" x="61" y="294.3" width="829.6" height="24.65" shape-rendering="crispEdges"/><rect fill="#1e1e1e" x="890.6" y="294.3" width="24.4" height="24.65" shape-rendering="crispEdges"/><rect fill="#1e1e1e" x="915" y="294.3" width="12.2" height="24.65" shape-rendering="crispEdges"/><rect fill="#121212" x="927.2" y="294.3" width="24.4" height="24.65" shape-rendering="crispEdges"/><rect fill="#121212" x="0" y="318.7" width="24.4" height="24.65" shape-rendering="crispEdges"/><rect fill="#1e1e1e" x="24.4" y="318.7" width="12.2" height="24.65" shape-rendering="crispEdges"/><rect fill="#1e1e1e" x="36.6" y="318.7" width="24.4" height="24.65" shape-rendering="crispEdges"/><rect fill="#1e1e1e" x="61" y="318.7" width="73.2" height="24.65" shape-rendering="crispEdges"/><rect fill="#1e1e1e" x="134.2" y="318.7" width="756.4" height="24.65" shape-rendering="crispEdges"/><rect fill="#1e1e1e" x="890.6" y="318.7" width="24.4" height="24.65" shape-rendering="crispEdges"/><rect fill="#1e1e1e" x="915" y="318.7" width="12.2" height="24.65" shape-rendering="crispEdges"/><rect fill="#121212" x="927.2" y="318.7" width="24.4" height="24.65" shape-rendering="crispEdges"/><rect fill="#121212" x="0" y="343.1" width="24.4" height="24.65" shape-rendering="crispEdges"/><rect fill="#1e1e1e" x="24.4" y="343.1" width="12.2" height="24.65" shape-rendering="crispEdges"/><rect fill="#1e1e1e" x="36.6" y="343.1" width="24.4" height="24.65" shape-rendering="crispEdges"/><rect fill="#1e1e1e" x="61" y="343.1" width="256.2" height="24.65" shape-rendering="crispEdges"/><rect fill="#1e1e1e" x="317.2" y="343.1" width="573.4" height="24.65" shape-rendering="crispEdges"/><rect fill="#1e1e1e" x="890.6" y="343.1" width="24.4" height="24.65" shape-rendering="crispEdges"/><rect fill="#1e1e1e" x="915" y="343.1" width="12.2" height="24.65" shape-rendering="crispEdges"/><rect fill="#121212" x="927.2" y="343.1" width="24.4" height="24.65" shape-rendering="crispEdges"/><rect fill="#121212" x="0" y="367.5" width="24.4" height="24.65" shape-rendering="crispEdges"/><rect fill="#1e1e1e" x="24.4" y="367.5" width="12.2" height="24.65" shape-rendering="crispEdges"/><rect fill="#1e1e1e" x="36.6" y="367.5" width="24.4" height="24.65" shape-rendering="crispEdges"/><rect fill="#1e1e1e" x="61" y="367.5" width="256.2" height="24.65" shape-rendering="crispEdges"/><rect fill="#1e1e1e" x="317.2" y="367.5" width="573.4" height="24.65" shape-rendering="crispEdges"/><rect fill="#1e1e1e" x="890.6" y="367.5" width="24.4" height="24.65" shape-rendering="crispEdges"/><rect fill="#1e1e1e" x="915" y="367.5" width="12.2" height="24.65" shape-rendering="crispEdges"/><rect fill="#121212" x="927.2" y="367.5" width="24.4" height="24.65" shape-rendering="crispEdges"/><rect fill="#121212" x="0" y="391.9" width="24.4" height="24.65" shape-rendering="crispEdges"/><rect fill="#1e1e1e" x="24.4" y="391.9" width="12.2" height="24.65" shape-rendering="crispEdges"/><rect fill="#1e1e1e" x="36.6" y="391.9" width="24.4" height="24.65" shape-rendering="crispEdges"/><rect fill="#1e1e1e" x="61" y="391.9" width="0" height="24.65" shape-rendering="crispEdges"/><rect fill="#1e1e1e" x="61" y="391.9" width="829.6" height="24.65" shape-rendering="crispEdges"/><rect fill="#1e1e1e" x="890.6" y="391.9" width="24.4" height="24.65" shape-rendering="crispEdges"/><rect fill="#1e1e1e" x="915" y="391.9" width="12.2" height="24.65" shape-rendering="crispEdges"/><rect fill="#121212" x="927.2" y="391.9" width="24.4" height="24.65" shape-rendering="crispEdges"/><rect fill="#121212" x="0" y="416.3" width="24.4" height="24.65" shape-rendering="crispEdges"/><rect fill="#1e1e1e" x="24.4" y="416.3" width="12.2" height="24.65" shape-rendering="crispEdges"/><rect fill="#1e1e1e" x="36.6" y="416.3" width="24.4" height="24.65" shape-rendering="crispEdges"/><rect fill="#1e1e1e" x="61" y="416.3" width="146.4" height="24.65" shape-rendering="crispEdges"/><rect fill="#1e1e1e" x="207.4" y="416.3" width="683.2" height="24.65" shape-rendering="crispEdges"/><rect fill="#1e1e1e" x="890.6" y="416.3" width="24.4" height="24.65" shape-rendering="crispEdges"/><rect fill="#1e1e1e" x="915" y="416.3" width="12.2" height="24.65" shape-rendering="crispEdges"/><rect fill="#121212" x="927.2" y="416.3" width="24.4" height="24.65" shape-rendering="crispEdges"/><rect fill="#121212" x="0" y="440.7" width="24.4" height="24.65" shape-rendering="crispEdges"/><rect fill="#1e1e1e" x="24.4" y="440.7" width="12.2" height="24.65" shape-rendering="crispEdges"/><rect fill="#1e1e1e" x="36.6" y="440.7" width="24.4" height="24.65" shape-rendering="crispEdges"/><rect fill="#1e1e1e" x="61" y="440.7" width="256.2" height="24.65" shape-rendering="crispEdges"/><rect fill="#1e1e1e" x="317.2" y="440.7" width="573.4" height="24.65" shape-rendering="crispEdges"/><rect fill="#1e1e1e" x="890.6" y="440.7" width="24.4" height="24.65" shape-rendering="crispEdges"/><rect fill="#1e1e1e" x="915" y="440.7" width="12.2" height="24.65" shape-rendering="crispEdges"/><rect fill="#121212" x="927.2" y="440.7" width="24.4" height="24.65" shape-rendering="crispEdges"/><rect fill="#121212" x="0" y="465.1" width="24.4" height="24.65" shape-rendering="crispEdges"/><rect fill="#1e1e1e" x="24.4" y="465.1" width="12.2" height="24.65" shape-rendering="crispEdges"/><rect fill="#1e1e1e" x="36.6" y="465.1" width="24.4" height="24.65" shape-rendering="crispEdges"/><rect fill="#1e1e1e" x="61" y="465.1" width="134.2" height="24.65" shape-rendering="crispEdges"/><rect fill="#1e1e1e" x="195.2" y="465.1" width="695.4" height="24.65" shape-rendering="crispEdges"/><rect fill="#1e1e1e" x="890.6" y="465.1" width="24.4" height="24.65" shape-rendering="crispEdges"/><rect fill="#1e1e1e" x="915" y="465.1" width="12.2" height="24.65" shape-rendering="crispEdges"/><rect fill="#121212" x="927.2" y="465.1" width="24.4" height="24.65" shape-rendering="crispEdges"/><rect fill="#121212" x="0" y="489.5" width="24.4" height="24.65" shape-rendering="crispEdges"/><rect fill="#1e1e1e" x="24.4" y="489.5" width="12.2" height="24.65" shape-rendering="crispEdges"/><rect fill="#1e1e1e" x="36.6" y="489.5" width="24.4" height="24.65" shape-rendering="crispEdges"/><rect fill="#1e1e1e" x="61" y="489.5" width="329.4" height="24.65" shape-rendering="crispEdges"/><rect fill="#1e1e1e" x="390.4" y="489.5" width="500.2" height="24.65" shape-rendering="crispEdges"/><rect fill="#1e1e1e" x="890.6" y="489.5" width="24.4" height="24.65" shape-rendering="crispEdges"/><rect fill="#1e1e1e" x="915" y="489.5" width="12.2" height="24.65" shape-rendering="crispEdges"/><rect fill="#121212" x="927.2" y="489.5" width="24.4" height="24.65" shape-rendering="crispEdges"/><rect fill="#121212" x="0" y="513.9" width="24.4" height="24.65" shape-rendering="crispEdges"/><rect fill="#1e1e1e" x="24.4" y="513.9" width="12.2" height="24.65" shape-rendering="crispEdges"/><rect fill="#1e1e1e" x="36.6" y="513.9" width="24.4" height="24.65" shape-rendering="crispEdges"/><rect fill="#1e1e1e" x="61" y="513.9" width="0" height="24.65" shape-rendering="crispEdges"/><rect fill="#1e1e1e" x="61" y="513.9" width="829.6" height="24.65" shape-rendering="crispEdges"/><rect fill="#1e1e1e" x="890.6" y="513.9" width="24.4" height="24.65" shape-rendering="crispEdges"/><rect fill="#1e1e1e" x="915" y="513.9" width="12.2" height="24.65" shape-rendering="crispEdges"/><rect fill="#121212" x="927.2" y="513.9" width="24.4" height="24.65" shape-rendering="crispEdges"/><rect fill="#121212" x="0" y="538.3" width="24.4" height="24.65" shape-rendering="crispEdges"/><rect fill="#1e1e1e" x="24.4" y="538.3" width="12.2" height="24.65" shape-rendering="crispEdges"/><rect fill="#1e1e1e" x="36.6" y="538.3" width="24.4" height="24.65" shape-rendering="crispEdges"/><rect fill="#1e1e1e" x="61" y="538.3" width="85.4" height="24.65" shape-rendering="crispEdges"/><rect fill="#1e1e1e" x="146.4" y="538.3" width="744.2" height="24.65" shape-rendering="crispEdges"/><rect fill="#1e1e1e" x="890.6" y="538.3" width="24.4" height="24.65" shape-rendering="crispEdges"/><rect fill="#1e1e1e" x="915" y="538.3" width="12.2" height="24.65" shape-rendering="crispEdges"/><rect fill="#121212" x="927.2" y="538.3" width="24.4" height="24.65" shape-rendering="crispEdges"/><rect fill="#121212" x="0" y="562.7" width="24.4" height="24.65" shape-rendering="crispEdges"/><rect fill="#1e1e1e" x="24.4" y="562.7" width="12.2" height="24.65" shape-rendering="crispEdges"/><rect fill="#1e1e1e" x="36.6" y="562.7" width="24.4" height="24.65" shape-rendering="crispEdges"/><rect fill="#1e1e1e" x="61" y="562.7" width="305" height="24.65" shape-rendering="crispEdges"/><rect fill="#1e1e1e" x="366" y="562.7" width="524.6" height="24.65" shape-rendering="crispEdges"/><rect fill="#1e1e1e" x="890.6" y="562.7" width="24.4" height="24.65" shape-rendering="crispEdges"/><rect fill="#1e1e1e" x="915" y="562.7" width="12.2" height="24.65" shape-rendering="crispEdges"/><rect fill="#121212" x="927.2" y="562.7" width="24.4" height="24.65" shape-rendering="crispEdges"/><rect fill="#121212" x="0" y="587.1" width="24.4" height="24.65" shape-rendering="crispEdges"/><rect fill="#1e1e1e" x="24.4" y="587.1" width="12.2" height="24.65" shape-rendering="crispEdges"/><rect fill="#1e1e1e" x="36.6" y="587.1" width="24.4" height="24.65" shape-rendering="crispEdges"/><rect fill="#1e1e1e" x="61" y="587.1" width="0" height="24.65" shape-rendering="crispEdges"/><rect fill="#1e1e1e" x="61" y="587.1" width="829.6" height="24.65" shape-rendering="crispEdges"/><rect fill="#1e1e1e" x="890.6" y="587.1" width="24.4" height="24.65" shape-rendering="crispEdges"/><rect fill="#1e1e1e" x="915" y="587.1" width="12.2" height="24.65" shape-rendering="crispEdges"/><rect fill="#121212" x="927.2" y="587.1" width="24.4" height="24.65" shape-rendering="crispEdges"/><rect fill="#121212" x="0" y="611.5" width="24.4" height="24.65" shape-rendering="crispEdges"/><rect fill="#1e1e1e" x="24.4" y="611.5" width="12.2" height="24.65" shape-rendering="crispEdges"/><rect fill="#1e1e1e" x="36.6" y="611.5" width="24.4" height="24.65" shape-rendering="crispEdges"/><rect fill="#1e1e1e" x="61" y="611.5" width="97.6" height="24.65" shape-rendering="crispEdges"/><rect fill="#1e1e1e" x="158.6" y="611.5" width="732" height="24.65" shape-rendering="crispEdges"/><rect fill="#1e1e1e" x="890.6" y="611.5" width="24.4" height="24.65" shape-rendering="crispEdges"/><rect fill="#1e1e1e" x="915" y="611.5" width="12.2" height="24.65" shape-rendering="crispEdges"/><rect fill="#121212" x="927.2" y="611.5" width="24.4" height="24.65" shape-rendering="crispEdges"/><rect fill="#121212" x="0" y="635.9" width="24.4" height="24.65" shape-rendering="crispEdges"/><rect fill="#1e1e1e" x="24.4" y="635.9" width="12.2" height="24.65" shape-rendering="crispEdges"/><rect fill="#1e1e1e" x="36.6" y="635.9" width="24.4" height="24.65" shape-rendering="crispEdges"/><rect fill="#1e1e1e" x="61" y="635.9" width="524.6" height="24.65" shape-rendering="crispEdges"/><rect fill="#1e1e1e" x="585.6" y="635.9" width="305" height="24.65" shape-rendering="crispEdges"/><rect fill="#1e1e1e" x="890.6" y="635.9" width="24.4" height="24.65" shape-rendering="crispEdges"/><rect fill="#1e1e1e" x="915" y="635.9" width="12.2" height="24.65" shape-rendering="crispEdges"/><rect fill="#121212" x="927.2" y="635.9" width="24.4" height="24.65" shape-rendering="crispEdges"/><rect fill="#121212" x="0" y="660.3" width="24.4" height="24.65" shape-rendering="crispEdges"/><rect fill="#1e1e1e" x="24.4" y="660.3" width="12.2" height="24.65" shape-rendering="crispEdges"/><rect fill="#1e1e1e" x="36.6" y="660.3" width="24.4" height="24.65" shape-rendering="crispEdges"/><rect fill="#1e1e1e" x="61" y="660.3" width="0" height="24.65" shape-rendering="crispEdges"/><rect fill="#1e1e1e" x="61" y="660.3" width="829.6" height="24.65" shape-rendering="crispEdges"/><rect fill="#1e1e1e" x="890.6" y="660.3" width="24.4" height="24.65" shape-rendering="crispEdges"/><rect fill="#1e1e1e" x="915" y="660.3" width="12.2" height="24.65" shape-rendering="crispEdges"/><rect fill="#121212" x="927.2" y="660.3" width="24.4" height="24.65" shape-rendering="crispEdges"/><rect fill="#121212" x="0" y="684.7" width="24.4" height="24.65" shape-rendering="crispEdges"/><rect fill="#1e1e1e" x="24.4" y="684.7" width="12.2" height="24.65" shape-rendering="crispEdges"/><rect fill="#1e1e1e" x="36.6" y="684.7" width="24.4" height="24.65" shape-rendering="crispEdges"/><rect fill="#1e1e1e" x="61" y="684.7" width="756.4" height="24.65" shape-rendering="crispEdges"/><rect fill="#1e1e1e" x="817.4" y="684.7" width="73.2" height="24.65" shape-rendering="crispEdges"/><rect fill="#1e1e1e" x="890.6" y="684.7" width="24.4" height="24.65" shape-rendering="crispEdges"/><rect fill="#1e1e1e" x="915" y="684.7" width="12.2" height="24.65" shape-rendering="crispEdges"/><rect fill="#121212" x="927.2" y="684.7" width="24.4" height="24.65" shape-rendering="crispEdges"/><rect fill="#121212" x="0" y="709.1" width="24.4" height="24.65" shape-rendering="crispEdges"/><rect fill="#1e1e1e" x="24.4" y="709.1" width="12.2" height="24.65" shape-rendering="crispEdges"/><rect fill="#1e1e1e" x="36.6" y="709.1" width="24.4" height="24.65" shape-rendering="crispEdges"/><rect fill="#1e1e1e" x="61" y="709.1" width="122" height="24.65" shape-rendering="crispEdges"/><rect fill="#1e1e1e" x="183" y="709.1" width="707.6" height="24.65" shape-rendering="crispEdges"/><rect fill="#1e1e1e" x="890.6" y="709.1" width="24.4" height="24.65" shape-rendering="crispEdges"/><rect fill="#1e1e1e" x="915" y="709.1" width="12.2" height="24.65" shape-rendering="crispEdges"/><rect fill="#121212" x="927.2" y="709.1" width="24.4" height="24.65" shape-rendering="crispEdges"/><rect fill="#121212" x="0" y="733.5" width="24.4" height="24.65" shape-rendering="crispEdges"/><rect fill="#1e1e1e" x="24.4" y="733.5" width="12.2" height="24.65" shape-rendering="crispEdges"/><rect fill="#1e1e1e" x="36.6" y="733.5" width="878.4" height="24.65" shape-rendering="crispEdges"/><rect fill="#1e1e1e" x="915" y="733.5" width="12.2" height="24.65" shape-rendering="crispEdges"/><rect fill="#121212" x="927.2" y="733.5" width="24.4" height="24.65" shape-rendering="crispEdges"/><rect fill="#121212" x="0" y="757.9" width="24.4" height="24.65" shape-rendering="crispEdges"/><rect fill="#1e1e1e" x="24.4" y="757.9" width="12.2" height="24.65" shape-rendering="crispEdges"/><rect fill="#1e1e1e" x="36.6" y="757.9" width="878.4" height="24.65" shape-rendering="crispEdges"/><rect fill="#1e1e1e" x="915" y="757.9" width="12.2" height="24.65" shape-rendering="crispEdges"/><rect fill="#121212" x="927.2" y="757.9" width="24.4" height="24.65" shape-rendering="crispEdges"/><rect fill="#121212" x="0" y="782.3" width="951.6" height="24.65" shape-rendering="crispEdges"/>
    <g class="terminal-1810094306-matrix">
    <text class="terminal-1810094306-r1" x="951.6" y="20" textLength="12.2" clip-path="url(#terminal-1810094306-line-0)">
</text><text class="terminal-1810094306-r2" x="24.4" y="44.4" textLength="12.2" clip-path="url(#terminal-1810094306-line-1)">╭</text><text class="terminal-1810094306-r2" x="36.6" y="44.4" textLength="12.2" clip-path="url(#terminal-1810094306-line-1)">─</text><text class="terminal-1810094306-r2" x="48.8" y="44.4" textLength="146.4" clip-path="url(#terminal-1810094306-line-1)">&#160;SKILL&#160;CARD&#160;</text><text class="terminal-1810094306-r2" x="195.2" y="44.4" textLength="719.8" clip-path="url(#terminal-1810094306-line-1)">───────────────────────────────────────────────────────────</text><text class="terminal-1810094306-r2" x="915" y="44.4" textLength="12.2" clip-path="url(#terminal-1810094306-line-1)">╮</text><text class="terminal-1810094306-r1" x="951.6" y="44.4" textLength="12.2" clip-path="url(#terminal-1810094306-line-1)">
</text><text class="terminal-1810094306-r2" x="24.4" y="68.8" textLength="12.2" clip-path="url(#terminal-1810094306-line-2)">│</text><text class="terminal-1810094306-r2" x="915" y="68.8" textLength="12.2" clip-path="url(#terminal-1810094306-line-2)">│</text><text class="terminal-1810094306-r1" x="951.6" y="68.8" textLength="12.2" clip-path="url(#terminal-1810094306-line-2)">
</text><text class="terminal-1810094306-r2" x="24.4" y="93.2" textLength="12.2" clip-path="url(#terminal-1810094306-line-3)">│</text><text class="terminal-1810094306-r3" x="61" y="93.2" textLength="85.4" clip-path="url(#terminal-1810094306-line-3)">ratatui</text><text class="terminal-1810094306-r4" x="146.4" y="93.2" textLength="97.6" clip-path="url(#terminal-1810094306-line-3)">&#160;&#160;v0.1.0</text><text class="terminal-1810094306-r6" x="817.4" y="93.2" textLength="24.4" clip-path="url(#terminal-1810094306-line-3)">●&#160;</text><text class="terminal-1810094306-r7" x="841.8" y="93.2" textLength="48.8" clip-path="url(#terminal-1810094306-line-3)">beta</text><text class="terminal-1810094306-r2" x="915" y="93.2" textLength="12.2" clip-path="url(#terminal-1810094306-line-3)">│</text><text class="terminal-1810094306-r1" x="951.6" y="93.2" textLength="12.2" clip-path="url(#terminal-1810094306-line-3)">
</text><text class="terminal-1810094306-r2" x="24.4" y="117.6" textLength="12.2" clip-path="url(#terminal-1810094306-line-4)">│</text><text class="terminal-1810094306-r8" x="61" y="117.6" textLength="829.6" clip-path="url(#terminal-1810094306-line-4)">Write&#160;current,&#160;compiling&#160;Ratatui&#160;0.30+&#160;terminal&#160;UIs&#160;in&#160;Rust&#160;—&#160;render</text><text class="terminal-1810094306-r2" x="915" y="117.6" textLength="12.2" clip-path="url(#terminal-1810094306-line-4)">│</text><text class="terminal-1810094306-r1" x="951.6" y="117.6" textLength="12.2" clip-path="url(#terminal-1810094306-line-4)">
</text><text class="terminal-1810094306-r2" x="24.4" y="142" textLength="12.2" clip-path="url(#terminal-1810094306-line-5)">│</text><text class="terminal-1810094306-r8" x="61" y="142" textLength="780.8" clip-path="url(#terminal-1810094306-line-5)">loop&#160;and&#160;teardown,&#160;Layout/Constraint,&#160;widgets,&#160;styling,&#160;Unicode&#160;</text><text class="terminal-1810094306-r2" x="915" y="142" textLength="12.2" clip-path="url(#terminal-1810094306-line-5)">│</text><text class="terminal-1810094306-r1" x="951.6" y="142" textLength="12.2" clip-path="url(#terminal-1810094306-line-5)">
</text><text class="terminal-1810094306-r2" x="24.4" y="166.4" textLength="12.2" clip-path="url(#terminal-1810094306-line-6)">│</text><text class="terminal-1810094306-r8" x="61" y="166.4" textLength="536.8" clip-path="url(#terminal-1810094306-line-6)">width,&#160;streaming,&#160;and&#160;headless&#160;render&#160;tests.</text><text class="terminal-1810094306-r2" x="915" y="166.4" textLength="12.2" clip-path="url(#terminal-1810094306-line-6)">│</text><text class="terminal-1810094306-r1" x="951.6" y="166.4" textLength="12.2" clip-path="url(#terminal-1810094306-line-6)">
</text><text class="terminal-1810094306-r2" x="24.4" y="190.8" textLength="12.2" clip-path="url(#terminal-1810094306-line-7)">│</text><text class="terminal-1810094306-r2" x="915" y="190.8" textLength="12.2" clip-path="url(#terminal-1810094306-line-7)">│</text><text class="terminal-1810094306-r1" x="951.6" y="190.8" textLength="12.2" clip-path="url(#terminal-1810094306-line-7)">
</text><text class="terminal-1810094306-r2" x="24.4" y="215.2" textLength="12.2" clip-path="url(#terminal-1810094306-line-8)">│</text><text class="terminal-1810094306-r9" x="61" y="215.2" textLength="134.2" clip-path="url(#terminal-1810094306-line-8)">WHEN&#160;TO&#160;USE</text><text class="terminal-1810094306-r2" x="915" y="215.2" textLength="12.2" clip-path="url(#terminal-1810094306-line-8)">│</text><text class="terminal-1810094306-r1" x="951.6" y="215.2" textLength="12.2" clip-path="url(#terminal-1810094306-line-8)">
</text><text class="terminal-1810094306-r2" x="24.4" y="239.6" textLength="12.2" clip-path="url(#terminal-1810094306-line-9)">│</text><text class="terminal-1810094306-r4" x="61" y="239.6" textLength="805.2" clip-path="url(#terminal-1810094306-line-9)">&#160;&#160;Use&#160;this&#160;skill&#160;for&#160;any&#160;task&#160;involving&#160;a&#160;Rust&#160;terminal/text&#160;user&#160;</text><text class="terminal-1810094306-r2" x="915" y="239.6" textLength="12.2" clip-path="url(#terminal-1810094306-line-9)">│</text><text class="terminal-1810094306-r1" x="951.6" y="239.6" textLength="12.2" clip-path="url(#terminal-1810094306-line-9)">
</text><text class="terminal-1810094306-r2" x="24.4" y="264" textLength="12.2" clip-path="url(#terminal-1810094306-line-10)">│</text><text class="terminal-1810094306-r4" x="61" y="264" textLength="829.6" clip-path="url(#terminal-1810094306-line-10)">interface&#160;(TUI)&#160;built&#160;with&#160;Ratatui&#160;(or&#160;crossterm)&#160;—&#160;creating&#160;one,&#160;or</text><text class="terminal-1810094306-r2" x="915" y="264" textLength="12.2" clip-path="url(#terminal-1810094306-line-10)">│</text><text class="terminal-1810094306-r1" x="951.6" y="264" textLength="12.2" clip-path="url(#terminal-1810094306-line-10)">
</text><text class="terminal-1810094306-r2" x="24.4" y="288.4" textLength="12.2" clip-path="url(#terminal-1810094306-line-11)">│</text><text class="terminal-1810094306-r4" x="61" y="288.4" textLength="695.4" clip-path="url(#terminal-1810094306-line-11)">debugging,&#160;fixing,&#160;testing,&#160;or&#160;extending&#160;an&#160;existing&#160;one.</text><text class="terminal-1810094306-r2" x="915" y="288.4" textLength="12.2" clip-path="url(#terminal-1810094306-line-11)">│</text><text class="terminal-1810094306-r1" x="951.6" y="288.4" textLength="12.2" clip-path="url(#terminal-1810094306-line-11)">
</text><text class="terminal-1810094306-r2" x="24.4" y="312.8" textLength="12.2" clip-path="url(#terminal-1810094306-line-12)">│</text><text class="terminal-1810094306-r2" x="915" y="312.8" textLength="12.2" clip-path="url(#terminal-1810094306-line-12)">│</text><text class="terminal-1810094306-r1" x="951.6" y="312.8" textLength="12.2" clip-path="url(#terminal-1810094306-line-12)">
</text><text class="terminal-1810094306-r2" x="24.4" y="337.2" textLength="12.2" clip-path="url(#terminal-1810094306-line-13)">│</text><text class="terminal-1810094306-r9" x="61" y="337.2" textLength="73.2" clip-path="url(#terminal-1810094306-line-13)">OUTPUT</text><text class="terminal-1810094306-r2" x="915" y="337.2" textLength="12.2" clip-path="url(#terminal-1810094306-line-13)">│</text><text class="terminal-1810094306-r1" x="951.6" y="337.2" textLength="12.2" clip-path="url(#terminal-1810094306-line-13)">
</text><text class="terminal-1810094306-r2" x="24.4" y="361.6" textLength="12.2" clip-path="url(#terminal-1810094306-line-14)">│</text><text class="terminal-1810094306-r5" x="61" y="361.6" textLength="256.2" clip-path="url(#terminal-1810094306-line-14)">&#160;&#160;Type&#160;&#160;&#160;&#160;&#160;&#160;&#160;&#160;&#160;&#160;&#160;&#160;&#160;&#160;&#160;</text><text class="terminal-1810094306-r7" x="317.2" y="361.6" textLength="573.4" clip-path="url(#terminal-1810094306-line-14)">Code&#160;&#160;&#160;&#160;&#160;&#160;&#160;&#160;&#160;&#160;&#160;&#160;&#160;&#160;&#160;&#160;&#160;&#160;&#160;&#160;&#160;&#160;&#160;&#160;&#160;&#160;&#160;&#160;&#160;&#160;&#160;&#160;&#160;&#160;&#160;&#160;&#160;&#160;&#160;&#160;&#160;&#160;&#160;</text><text class="terminal-1810094306-r2" x="915" y="361.6" textLength="12.2" clip-path="url(#terminal-1810094306-line-14)">│</text><text class="terminal-1810094306-r1" x="951.6" y="361.6" textLength="12.2" clip-path="url(#terminal-1810094306-line-14)">
</text><text class="terminal-1810094306-r2" x="24.4" y="386" textLength="12.2" clip-path="url(#terminal-1810094306-line-15)">│</text><text class="terminal-1810094306-r5" x="61" y="386" textLength="256.2" clip-path="url(#terminal-1810094306-line-15)">&#160;&#160;Format&#160;&#160;&#160;&#160;&#160;&#160;&#160;&#160;&#160;&#160;&#160;&#160;&#160;</text><text class="terminal-1810094306-r7" x="317.2" y="386" textLength="573.4" clip-path="url(#terminal-1810094306-line-15)">Markdown&#160;with&#160;Rust&#160;code&#160;blocks&#160;&#160;&#160;&#160;&#160;&#160;&#160;&#160;&#160;&#160;&#160;&#160;&#160;&#160;&#160;&#160;&#160;</text><text class="terminal-1810094306-r2" x="915" y="386" textLength="12.2" clip-path="url(#terminal-1810094306-line-15)">│</text><text class="terminal-1810094306-r1" x="951.6" y="386" textLength="12.2" clip-path="url(#terminal-1810094306-line-15)">
</text><text class="terminal-1810094306-r2" x="24.4" y="410.4" textLength="12.2" clip-path="url(#terminal-1810094306-line-16)">│</text><text class="terminal-1810094306-r2" x="915" y="410.4" textLength="12.2" clip-path="url(#terminal-1810094306-line-16)">│</text><text class="terminal-1810094306-r1" x="951.6" y="410.4" textLength="12.2" clip-path="url(#terminal-1810094306-line-16)">
</text><text class="terminal-1810094306-r2" x="24.4" y="434.8" textLength="12.2" clip-path="url(#terminal-1810094306-line-17)">│</text><text class="terminal-1810094306-r9" x="61" y="434.8" textLength="146.4" clip-path="url(#terminal-1810094306-line-17)">DEPENDENCIES</text><text class="terminal-1810094306-r2" x="915" y="434.8" textLength="12.2" clip-path="url(#terminal-1810094306-line-17)">│</text><text class="terminal-1810094306-r1" x="951.6" y="434.8" textLength="12.2" clip-path="url(#terminal-1810094306-line-17)">
</text><text class="terminal-1810094306-r2" x="24.4" y="459.2" textLength="12.2" clip-path="url(#terminal-1810094306-line-18)">│</text><text class="terminal-1810094306-r7" x="61" y="459.2" textLength="256.2" clip-path="url(#terminal-1810094306-line-18)">&#160;&#160;ratatui&gt;=0.30,&lt;0.31</text><text class="terminal-1810094306-r2" x="915" y="459.2" textLength="12.2" clip-path="url(#terminal-1810094306-line-18)">│</text><text class="terminal-1810094306-r1" x="951.6" y="459.2" textLength="12.2" clip-path="url(#terminal-1810094306-line-18)">
</text><text class="terminal-1810094306-r2" x="24.4" y="483.6" textLength="12.2" clip-path="url(#terminal-1810094306-line-19)">│</text><text class="terminal-1810094306-r7" x="61" y="483.6" textLength="134.2" clip-path="url(#terminal-1810094306-line-19)">&#160;&#160;crossterm</text><text class="terminal-1810094306-r2" x="915" y="483.6" textLength="12.2" clip-path="url(#terminal-1810094306-line-19)">│</text><text class="terminal-1810094306-r1" x="951.6" y="483.6" textLength="12.2" clip-path="url(#terminal-1810094306-line-19)">
</text><text class="terminal-1810094306-r2" x="24.4" y="508" textLength="12.2" clip-path="url(#terminal-1810094306-line-20)">│</text><text class="terminal-1810094306-r7" x="61" y="508" textLength="329.4" clip-path="url(#terminal-1810094306-line-20)">&#160;&#160;rust&gt;=1.85&#160;(2024&#160;edition)</text><text class="terminal-1810094306-r2" x="915" y="508" textLength="12.2" clip-path="url(#terminal-1810094306-line-20)">│</text><text class="terminal-1810094306-r1" x="951.6" y="508" textLength="12.2" clip-path="url(#terminal-1810094306-line-20)">
</text><text class="terminal-1810094306-r2" x="24.4" y="532.4" textLength="12.2" clip-path="url(#terminal-1810094306-line-21)">│</text><text class="terminal-1810094306-r2" x="915" y="532.4" textLength="12.2" clip-path="url(#terminal-1810094306-line-21)">│</text><text class="terminal-1810094306-r1" x="951.6" y="532.4" textLength="12.2" clip-path="url(#terminal-1810094306-line-21)">
</text><text class="terminal-1810094306-r2" x="24.4" y="556.8" textLength="12.2" clip-path="url(#terminal-1810094306-line-22)">│</text><text class="terminal-1810094306-r9" x="61" y="556.8" textLength="85.4" clip-path="url(#terminal-1810094306-line-22)">QUALITY</text><text class="terminal-1810094306-r2" x="915" y="556.8" textLength="12.2" clip-path="url(#terminal-1810094306-line-22)">│</text><text class="terminal-1810094306-r1" x="951.6" y="556.8" textLength="12.2" clip-path="url(#terminal-1810094306-line-22)">
</text><text class="terminal-1810094306-r2" x="24.4" y="581.2" textLength="12.2" clip-path="url(#terminal-1810094306-line-23)">│</text><text class="terminal-1810094306-r10" x="61" y="581.2" textLength="305" clip-path="url(#terminal-1810094306-line-23)">&#160;&#160;not&#160;yet&#160;measured&#160;—&#160;beta</text><text class="terminal-1810094306-r2" x="915" y="581.2" textLength="12.2" clip-path="url(#terminal-1810094306-line-23)">│</text><text class="terminal-1810094306-r1" x="951.6" y="581.2" textLength="12.2" clip-path="url(#terminal-1810094306-line-23)">
</text><text class="terminal-1810094306-r2" x="24.4" y="605.6" textLength="12.2" clip-path="url(#terminal-1810094306-line-24)">│</text><text class="terminal-1810094306-r2" x="915" y="605.6" textLength="12.2" clip-path="url(#terminal-1810094306-line-24)">│</text><text class="terminal-1810094306-r1" x="951.6" y="605.6" textLength="12.2" clip-path="url(#terminal-1810094306-line-24)">
</text><text class="terminal-1810094306-r2" x="24.4" y="630" textLength="12.2" clip-path="url(#terminal-1810094306-line-25)">│</text><text class="terminal-1810094306-r9" x="61" y="630" textLength="97.6" clip-path="url(#terminal-1810094306-line-25)">SECURITY</text><text class="terminal-1810094306-r2" x="915" y="630" textLength="12.2" clip-path="url(#terminal-1810094306-line-25)">│</text><text class="terminal-1810094306-r1" x="951.6" y="630" textLength="12.2" clip-path="url(#terminal-1810094306-line-25)">
</text><text class="terminal-1810094306-r2" x="24.4" y="654.4" textLength="12.2" clip-path="url(#terminal-1810094306-line-26)">│</text><text class="terminal-1810094306-r5" x="61" y="654.4" textLength="524.6" clip-path="url(#terminal-1810094306-line-26)">&#160;&#160;SkillSpector&#160;&#160;&#160;&#160;&#160;&#160;&#160;&#160;&#160;&#160;&#160;&#160;&#160;&#160;&#160;&#160;&#160;&#160;&#160;&#160;&#160;&#160;&#160;&#160;&#160;&#160;&#160;&#160;&#160;</text><text class="terminal-1810094306-r11" x="585.6" y="654.4" textLength="305" clip-path="url(#terminal-1810094306-line-26)">13&#160;/&#160;LOW&#160;&#160;&#160;&#160;&#160;&#160;&#160;&#160;&#160;&#160;&#160;&#160;&#160;&#160;&#160;&#160;&#160;</text><text class="terminal-1810094306-r2" x="915" y="654.4" textLength="12.2" clip-path="url(#terminal-1810094306-line-26)">│</text><text class="terminal-1810094306-r1" x="951.6" y="654.4" textLength="12.2" clip-path="url(#terminal-1810094306-line-26)">
</text><text class="terminal-1810094306-r2" x="24.4" y="678.8" textLength="12.2" clip-path="url(#terminal-1810094306-line-27)">│</text><text class="terminal-1810094306-r2" x="915" y="678.8" textLength="12.2" clip-path="url(#terminal-1810094306-line-27)">│</text><text class="terminal-1810094306-r1" x="951.6" y="678.8" textLength="12.2" clip-path="url(#terminal-1810094306-line-27)">
</text><text class="terminal-1810094306-r2" x="24.4" y="703.2" textLength="12.2" clip-path="url(#terminal-1810094306-line-28)">│</text><text class="terminal-1810094306-r4" x="61" y="703.2" textLength="756.4" clip-path="url(#terminal-1810094306-line-28)">scan&#160;&#160;skillspector@a5092dd9b9521ff57a9b53612bb129ce78019002&#160;·&#160;</text><text class="terminal-1810094306-r2" x="915" y="703.2" textLength="12.2" clip-path="url(#terminal-1810094306-line-28)">│</text><text class="terminal-1810094306-r1" x="951.6" y="703.2" textLength="12.2" clip-path="url(#terminal-1810094306-line-28)">
</text><text class="terminal-1810094306-r2" x="24.4" y="727.6" textLength="12.2" clip-path="url(#terminal-1810094306-line-29)">│</text><text class="terminal-1810094306-r4" x="61" y="727.6" textLength="122" clip-path="url(#terminal-1810094306-line-29)">2026-06-22</text><text class="terminal-1810094306-r2" x="915" y="727.6" textLength="12.2" clip-path="url(#terminal-1810094306-line-29)">│</text><text class="terminal-1810094306-r1" x="951.6" y="727.6" textLength="12.2" clip-path="url(#terminal-1810094306-line-29)">
</text><text class="terminal-1810094306-r2" x="24.4" y="752" textLength="12.2" clip-path="url(#terminal-1810094306-line-30)">│</text><text class="terminal-1810094306-r2" x="915" y="752" textLength="12.2" clip-path="url(#terminal-1810094306-line-30)">│</text><text class="terminal-1810094306-r1" x="951.6" y="752" textLength="12.2" clip-path="url(#terminal-1810094306-line-30)">
</text><text class="terminal-1810094306-r2" x="24.4" y="776.4" textLength="12.2" clip-path="url(#terminal-1810094306-line-31)">╰</text><text class="terminal-1810094306-r2" x="36.6" y="776.4" textLength="878.4" clip-path="url(#terminal-1810094306-line-31)">────────────────────────────────────────────────────────────────────────</text><text class="terminal-1810094306-r2" x="915" y="776.4" textLength="12.2" clip-path="url(#terminal-1810094306-line-31)">╯</text><text class="terminal-1810094306-r1" x="951.6" y="776.4" textLength="12.2" clip-path="url(#terminal-1810094306-line-31)">
</text>
    </g>
    </g>
</svg>
