<svg class="skill-scorecard" viewBox="0 0 804.1999999999999 413.79999999999995" xmlns="http://www.w3.org/2000/svg">
    <style>
    @font-face {
        font-family: "Fira Code";
        src: local("FiraCode-Regular"),
                url("https://cdnjs.cloudflare.com/ajax/libs/firacode/6.2.0/woff2/FiraCode-Regular.woff2") format("woff2"),
                url("https://cdnjs.cloudflare.com/ajax/libs/firacode/6.2.0/woff/FiraCode-Regular.woff") format("woff");
        font-style: normal;
        font-weight: 400;
    }
    @font-face {
        font-family: "Fira Code";
        src: local("FiraCode-Bold"),
                url("https://cdnjs.cloudflare.com/ajax/libs/firacode/6.2.0/woff2/FiraCode-Bold.woff2") format("woff2"),
                url("https://cdnjs.cloudflare.com/ajax/libs/firacode/6.2.0/woff/FiraCode-Bold.woff") format("woff");
        font-style: bold;
        font-weight: 700;
    }
    .terminal-4142857262-matrix {
        font-family: Fira Code, monospace;
        font-size: 20px;
        line-height: 24.4px;
        font-variant-east-asian: full-width;
    }
    .terminal-4142857262-r1 { fill: #c5c8c6 }
.terminal-4142857262-r2 { fill: #00ffff }
.terminal-4142857262-r3 { fill: #c4c5b5;font-weight: bold }
.terminal-4142857262-r4 { fill: #9e9e9e }
.terminal-4142857262-r5 { fill: #e0e0e0 }
.terminal-4142857262-r6 { fill: #fd971f }
.terminal-4142857262-r7 { fill: #c4c5b5 }
.terminal-4142857262-r8 { fill: #9e9e9e;font-style: italic; }
.terminal-4142857262-r9 { fill: #58d1eb;font-weight: bold }
.terminal-4142857262-r10 { fill: #98e024 }
    </style>
    <defs>
    <clipPath id="terminal-4142857262-clip-terminal">
      <rect x="0" y="0" width="804.1999999999999" height="413.79999999999995" />
    </clipPath>
    <clipPath id="terminal-4142857262-line-0">
    <rect x="0" y="1.5" width="805.2" height="24.65"/>
            </clipPath>
<clipPath id="terminal-4142857262-line-1">
    <rect x="0" y="25.9" width="805.2" height="24.65"/>
            </clipPath>
<clipPath id="terminal-4142857262-line-2">
    <rect x="0" y="50.3" width="805.2" height="24.65"/>
            </clipPath>
<clipPath id="terminal-4142857262-line-3">
    <rect x="0" y="74.7" width="805.2" height="24.65"/>
            </clipPath>
<clipPath id="terminal-4142857262-line-4">
    <rect x="0" y="99.1" width="805.2" height="24.65"/>
            </clipPath>
<clipPath id="terminal-4142857262-line-5">
    <rect x="0" y="123.5" width="805.2" height="24.65"/>
            </clipPath>
<clipPath id="terminal-4142857262-line-6">
    <rect x="0" y="147.9" width="805.2" height="24.65"/>
            </clipPath>
<clipPath id="terminal-4142857262-line-7">
    <rect x="0" y="172.3" width="805.2" height="24.65"/>
            </clipPath>
<clipPath id="terminal-4142857262-line-8">
    <rect x="0" y="196.7" width="805.2" height="24.65"/>
            </clipPath>
<clipPath id="terminal-4142857262-line-9">
    <rect x="0" y="221.1" width="805.2" height="24.65"/>
            </clipPath>
<clipPath id="terminal-4142857262-line-10">
    <rect x="0" y="245.5" width="805.2" height="24.65"/>
            </clipPath>
<clipPath id="terminal-4142857262-line-11">
    <rect x="0" y="269.9" width="805.2" height="24.65"/>
            </clipPath>
<clipPath id="terminal-4142857262-line-12">
    <rect x="0" y="294.3" width="805.2" height="24.65"/>
            </clipPath>
<clipPath id="terminal-4142857262-line-13">
    <rect x="0" y="318.7" width="805.2" height="24.65"/>
            </clipPath>
<clipPath id="terminal-4142857262-line-14">
    <rect x="0" y="343.1" width="805.2" height="24.65"/>
            </clipPath>
<clipPath id="terminal-4142857262-line-15">
    <rect x="0" y="367.5" width="805.2" height="24.65"/>
            </clipPath>
    </defs>
    <g clip-path="url(#terminal-4142857262-clip-terminal)">
    <rect fill="#121212" x="0" y="1.5" width="805.2" height="24.65" shape-rendering="crispEdges"/><rect fill="#121212" x="0" y="25.9" width="12.2" height="24.65" shape-rendering="crispEdges"/><rect fill="#1e1e1e" x="12.2" y="25.9" width="12.2" height="24.65" shape-rendering="crispEdges"/><rect fill="#1e1e1e" x="24.4" y="25.9" width="12.2" height="24.65" shape-rendering="crispEdges"/><rect fill="#1e1e1e" x="36.6" y="25.9" width="207.4" height="24.65" shape-rendering="crispEdges"/><rect fill="#1e1e1e" x="244" y="25.9" width="536.8" height="24.65" shape-rendering="crispEdges"/><rect fill="#1e1e1e" x="780.8" y="25.9" width="12.2" height="24.65" shape-rendering="crispEdges"/><rect fill="#121212" x="793" y="25.9" width="12.2" height="24.65" shape-rendering="crispEdges"/><rect fill="#121212" x="0" y="50.3" width="12.2" height="24.65" shape-rendering="crispEdges"/><rect fill="#1e1e1e" x="12.2" y="50.3" width="12.2" height="24.65" shape-rendering="crispEdges"/><rect fill="#1e1e1e" x="24.4" y="50.3" width="12.2" height="24.65" shape-rendering="crispEdges"/><rect fill="#1e1e1e" x="36.6" y="50.3" width="85.4" height="24.65" shape-rendering="crispEdges"/><rect fill="#1e1e1e" x="122" y="50.3" width="97.6" height="24.65" shape-rendering="crispEdges"/><rect fill="#1e1e1e" x="219.6" y="50.3" width="341.6" height="24.65" shape-rendering="crispEdges"/><rect fill="#1e1e1e" x="561.2" y="50.3" width="134.2" height="24.65" shape-rendering="crispEdges"/><rect fill="#1e1e1e" x="695.4" y="50.3" width="24.4" height="24.65" shape-rendering="crispEdges"/><rect fill="#1e1e1e" x="719.8" y="50.3" width="48.8" height="24.65" shape-rendering="crispEdges"/><rect fill="#1e1e1e" x="768.6" y="50.3" width="12.2" height="24.65" shape-rendering="crispEdges"/><rect fill="#1e1e1e" x="780.8" y="50.3" width="12.2" height="24.65" shape-rendering="crispEdges"/><rect fill="#121212" x="793" y="50.3" width="12.2" height="24.65" shape-rendering="crispEdges"/><rect fill="#121212" x="0" y="74.7" width="12.2" height="24.65" shape-rendering="crispEdges"/><rect fill="#1e1e1e" x="12.2" y="74.7" width="12.2" height="24.65" shape-rendering="crispEdges"/><rect fill="#1e1e1e" x="24.4" y="74.7" width="12.2" height="24.65" shape-rendering="crispEdges"/><rect fill="#1e1e1e" x="36.6" y="74.7" width="573.4" height="24.65" shape-rendering="crispEdges"/><rect fill="#1e1e1e" x="610" y="74.7" width="158.6" height="24.65" shape-rendering="crispEdges"/><rect fill="#1e1e1e" x="768.6" y="74.7" width="12.2" height="24.65" shape-rendering="crispEdges"/><rect fill="#1e1e1e" x="780.8" y="74.7" width="12.2" height="24.65" shape-rendering="crispEdges"/><rect fill="#121212" x="793" y="74.7" width="12.2" height="24.65" shape-rendering="crispEdges"/><rect fill="#121212" x="0" y="99.1" width="12.2" height="24.65" shape-rendering="crispEdges"/><rect fill="#1e1e1e" x="12.2" y="99.1" width="12.2" height="24.65" shape-rendering="crispEdges"/><rect fill="#1e1e1e" x="24.4" y="99.1" width="12.2" height="24.65" shape-rendering="crispEdges"/><rect fill="#1e1e1e" x="36.6" y="99.1" width="719.8" height="24.65" shape-rendering="crispEdges"/><rect fill="#1e1e1e" x="756.4" y="99.1" width="12.2" height="24.65" shape-rendering="crispEdges"/><rect fill="#1e1e1e" x="768.6" y="99.1" width="12.2" height="24.65" shape-rendering="crispEdges"/><rect fill="#1e1e1e" x="780.8" y="99.1" width="12.2" height="24.65" shape-rendering="crispEdges"/><rect fill="#121212" x="793" y="99.1" width="12.2" height="24.65" shape-rendering="crispEdges"/><rect fill="#121212" x="0" y="123.5" width="12.2" height="24.65" shape-rendering="crispEdges"/><rect fill="#1e1e1e" x="12.2" y="123.5" width="12.2" height="24.65" shape-rendering="crispEdges"/><rect fill="#1e1e1e" x="24.4" y="123.5" width="12.2" height="24.65" shape-rendering="crispEdges"/><rect fill="#1e1e1e" x="36.6" y="123.5" width="488" height="24.65" shape-rendering="crispEdges"/><rect fill="#1e1e1e" x="524.6" y="123.5" width="244" height="24.65" shape-rendering="crispEdges"/><rect fill="#1e1e1e" x="768.6" y="123.5" width="12.2" height="24.65" shape-rendering="crispEdges"/><rect fill="#1e1e1e" x="780.8" y="123.5" width="12.2" height="24.65" shape-rendering="crispEdges"/><rect fill="#121212" x="793" y="123.5" width="12.2" height="24.65" shape-rendering="crispEdges"/><rect fill="#121212" x="0" y="147.9" width="12.2" height="24.65" shape-rendering="crispEdges"/><rect fill="#1e1e1e" x="12.2" y="147.9" width="12.2" height="24.65" shape-rendering="crispEdges"/><rect fill="#1e1e1e" x="24.4" y="147.9" width="12.2" height="24.65" shape-rendering="crispEdges"/><rect fill="#1e1e1e" x="36.6" y="147.9" width="0" height="24.65" shape-rendering="crispEdges"/><rect fill="#1e1e1e" x="36.6" y="147.9" width="732" height="24.65" shape-rendering="crispEdges"/><rect fill="#1e1e1e" x="768.6" y="147.9" width="12.2" height="24.65" shape-rendering="crispEdges"/><rect fill="#1e1e1e" x="780.8" y="147.9" width="12.2" height="24.65" shape-rendering="crispEdges"/><rect fill="#121212" x="793" y="147.9" width="12.2" height="24.65" shape-rendering="crispEdges"/><rect fill="#121212" x="0" y="172.3" width="12.2" height="24.65" shape-rendering="crispEdges"/><rect fill="#1e1e1e" x="12.2" y="172.3" width="12.2" height="24.65" shape-rendering="crispEdges"/><rect fill="#1e1e1e" x="24.4" y="172.3" width="12.2" height="24.65" shape-rendering="crispEdges"/><rect fill="#1e1e1e" x="36.6" y="172.3" width="85.4" height="24.65" shape-rendering="crispEdges"/><rect fill="#1e1e1e" x="122" y="172.3" width="646.6" height="24.65" shape-rendering="crispEdges"/><rect fill="#1e1e1e" x="768.6" y="172.3" width="12.2" height="24.65" shape-rendering="crispEdges"/><rect fill="#1e1e1e" x="780.8" y="172.3" width="12.2" height="24.65" shape-rendering="crispEdges"/><rect fill="#121212" x="793" y="172.3" width="12.2" height="24.65" shape-rendering="crispEdges"/><rect fill="#121212" x="0" y="196.7" width="12.2" height="24.65" shape-rendering="crispEdges"/><rect fill="#1e1e1e" x="12.2" y="196.7" width="12.2" height="24.65" shape-rendering="crispEdges"/><rect fill="#1e1e1e" x="24.4" y="196.7" width="12.2" height="24.65" shape-rendering="crispEdges"/><rect fill="#1e1e1e" x="36.6" y="196.7" width="305" height="24.65" shape-rendering="crispEdges"/><rect fill="#1e1e1e" x="341.6" y="196.7" width="427" height="24.65" shape-rendering="crispEdges"/><rect fill="#1e1e1e" x="768.6" y="196.7" width="12.2" height="24.65" shape-rendering="crispEdges"/><rect fill="#1e1e1e" x="780.8" y="196.7" width="12.2" height="24.65" shape-rendering="crispEdges"/><rect fill="#121212" x="793" y="196.7" width="12.2" height="24.65" shape-rendering="crispEdges"/><rect fill="#121212" x="0" y="221.1" width="12.2" height="24.65" shape-rendering="crispEdges"/><rect fill="#1e1e1e" x="12.2" y="221.1" width="12.2" height="24.65" shape-rendering="crispEdges"/><rect fill="#1e1e1e" x="24.4" y="221.1" width="12.2" height="24.65" shape-rendering="crispEdges"/><rect fill="#1e1e1e" x="36.6" y="221.1" width="0" height="24.65" shape-rendering="crispEdges"/><rect fill="#1e1e1e" x="36.6" y="221.1" width="732" height="24.65" shape-rendering="crispEdges"/><rect fill="#1e1e1e" x="768.6" y="221.1" width="12.2" height="24.65" shape-rendering="crispEdges"/><rect fill="#1e1e1e" x="780.8" y="221.1" width="12.2" height="24.65" shape-rendering="crispEdges"/><rect fill="#121212" x="793" y="221.1" width="12.2" height="24.65" shape-rendering="crispEdges"/><rect fill="#121212" x="0" y="245.5" width="12.2" height="24.65" shape-rendering="crispEdges"/><rect fill="#1e1e1e" x="12.2" y="245.5" width="12.2" height="24.65" shape-rendering="crispEdges"/><rect fill="#1e1e1e" x="24.4" y="245.5" width="12.2" height="24.65" shape-rendering="crispEdges"/><rect fill="#1e1e1e" x="36.6" y="245.5" width="97.6" height="24.65" shape-rendering="crispEdges"/><rect fill="#1e1e1e" x="134.2" y="245.5" width="634.4" height="24.65" shape-rendering="crispEdges"/><rect fill="#1e1e1e" x="768.6" y="245.5" width="12.2" height="24.65" shape-rendering="crispEdges"/><rect fill="#1e1e1e" x="780.8" y="245.5" width="12.2" height="24.65" shape-rendering="crispEdges"/><rect fill="#121212" x="793" y="245.5" width="12.2" height="24.65" shape-rendering="crispEdges"/><rect fill="#121212" x="0" y="269.9" width="12.2" height="24.65" shape-rendering="crispEdges"/><rect fill="#1e1e1e" x="12.2" y="269.9" width="12.2" height="24.65" shape-rendering="crispEdges"/><rect fill="#1e1e1e" x="24.4" y="269.9" width="12.2" height="24.65" shape-rendering="crispEdges"/><rect fill="#1e1e1e" x="36.6" y="269.9" width="475.8" height="24.65" shape-rendering="crispEdges"/><rect fill="#1e1e1e" x="512.4" y="269.9" width="256.2" height="24.65" shape-rendering="crispEdges"/><rect fill="#1e1e1e" x="768.6" y="269.9" width="12.2" height="24.65" shape-rendering="crispEdges"/><rect fill="#1e1e1e" x="780.8" y="269.9" width="12.2" height="24.65" shape-rendering="crispEdges"/><rect fill="#121212" x="793" y="269.9" width="12.2" height="24.65" shape-rendering="crispEdges"/><rect fill="#121212" x="0" y="294.3" width="12.2" height="24.65" shape-rendering="crispEdges"/><rect fill="#1e1e1e" x="12.2" y="294.3" width="12.2" height="24.65" shape-rendering="crispEdges"/><rect fill="#1e1e1e" x="24.4" y="294.3" width="12.2" height="24.65" shape-rendering="crispEdges"/><rect fill="#1e1e1e" x="36.6" y="294.3" width="0" height="24.65" shape-rendering="crispEdges"/><rect fill="#1e1e1e" x="36.6" y="294.3" width="732" height="24.65" shape-rendering="crispEdges"/><rect fill="#1e1e1e" x="768.6" y="294.3" width="12.2" height="24.65" shape-rendering="crispEdges"/><rect fill="#1e1e1e" x="780.8" y="294.3" width="12.2" height="24.65" shape-rendering="crispEdges"/><rect fill="#121212" x="793" y="294.3" width="12.2" height="24.65" shape-rendering="crispEdges"/><rect fill="#121212" x="0" y="318.7" width="12.2" height="24.65" shape-rendering="crispEdges"/><rect fill="#1e1e1e" x="12.2" y="318.7" width="12.2" height="24.65" shape-rendering="crispEdges"/><rect fill="#1e1e1e" x="24.4" y="318.7" width="12.2" height="24.65" shape-rendering="crispEdges"/><rect fill="#1e1e1e" x="36.6" y="318.7" width="732" height="24.65" shape-rendering="crispEdges"/><rect fill="#1e1e1e" x="768.6" y="318.7" width="12.2" height="24.65" shape-rendering="crispEdges"/><rect fill="#1e1e1e" x="780.8" y="318.7" width="12.2" height="24.65" shape-rendering="crispEdges"/><rect fill="#121212" x="793" y="318.7" width="12.2" height="24.65" shape-rendering="crispEdges"/><rect fill="#121212" x="0" y="343.1" width="12.2" height="24.65" shape-rendering="crispEdges"/><rect fill="#1e1e1e" x="12.2" y="343.1" width="12.2" height="24.65" shape-rendering="crispEdges"/><rect fill="#1e1e1e" x="24.4" y="343.1" width="12.2" height="24.65" shape-rendering="crispEdges"/><rect fill="#1e1e1e" x="36.6" y="343.1" width="146.4" height="24.65" shape-rendering="crispEdges"/><rect fill="#1e1e1e" x="183" y="343.1" width="585.6" height="24.65" shape-rendering="crispEdges"/><rect fill="#1e1e1e" x="768.6" y="343.1" width="12.2" height="24.65" shape-rendering="crispEdges"/><rect fill="#1e1e1e" x="780.8" y="343.1" width="12.2" height="24.65" shape-rendering="crispEdges"/><rect fill="#121212" x="793" y="343.1" width="12.2" height="24.65" shape-rendering="crispEdges"/><rect fill="#121212" x="0" y="367.5" width="12.2" height="24.65" shape-rendering="crispEdges"/><rect fill="#1e1e1e" x="12.2" y="367.5" width="12.2" height="24.65" shape-rendering="crispEdges"/><rect fill="#1e1e1e" x="24.4" y="367.5" width="756.4" height="24.65" shape-rendering="crispEdges"/><rect fill="#1e1e1e" x="780.8" y="367.5" width="12.2" height="24.65" shape-rendering="crispEdges"/><rect fill="#121212" x="793" y="367.5" width="12.2" height="24.65" shape-rendering="crispEdges"/><rect fill="#121212" x="0" y="391.9" width="805.2" height="24.65" shape-rendering="crispEdges"/>
    <g class="terminal-4142857262-matrix">
    <text class="terminal-4142857262-r1" x="805.2" y="20" textLength="12.2" clip-path="url(#terminal-4142857262-line-0)">
</text><text class="terminal-4142857262-r2" x="12.2" y="44.4" textLength="12.2" clip-path="url(#terminal-4142857262-line-1)">╭</text><text class="terminal-4142857262-r2" x="24.4" y="44.4" textLength="12.2" clip-path="url(#terminal-4142857262-line-1)">─</text><text class="terminal-4142857262-r2" x="36.6" y="44.4" textLength="207.4" clip-path="url(#terminal-4142857262-line-1)">&#160;SKILL&#160;SCORECARD&#160;</text><text class="terminal-4142857262-r2" x="244" y="44.4" textLength="536.8" clip-path="url(#terminal-4142857262-line-1)">────────────────────────────────────────────</text><text class="terminal-4142857262-r2" x="780.8" y="44.4" textLength="12.2" clip-path="url(#terminal-4142857262-line-1)">╮</text><text class="terminal-4142857262-r1" x="805.2" y="44.4" textLength="12.2" clip-path="url(#terminal-4142857262-line-1)">
</text><text class="terminal-4142857262-r2" x="12.2" y="68.8" textLength="12.2" clip-path="url(#terminal-4142857262-line-2)">│</text><text class="terminal-4142857262-r3" x="36.6" y="68.8" textLength="85.4" clip-path="url(#terminal-4142857262-line-2)">textual</text><text class="terminal-4142857262-r4" x="122" y="68.8" textLength="97.6" clip-path="url(#terminal-4142857262-line-2)">&#160;&#160;v0.1.0</text><text class="terminal-4142857262-r6" x="695.4" y="68.8" textLength="24.4" clip-path="url(#terminal-4142857262-line-2)">●&#160;</text><text class="terminal-4142857262-r7" x="719.8" y="68.8" textLength="48.8" clip-path="url(#terminal-4142857262-line-2)">beta</text><text class="terminal-4142857262-r2" x="780.8" y="68.8" textLength="12.2" clip-path="url(#terminal-4142857262-line-2)">│</text><text class="terminal-4142857262-r1" x="805.2" y="68.8" textLength="12.2" clip-path="url(#terminal-4142857262-line-2)">
</text><text class="terminal-4142857262-r2" x="12.2" y="93.2" textLength="12.2" clip-path="url(#terminal-4142857262-line-3)">│</text><text class="terminal-4142857262-r8" x="36.6" y="93.2" textLength="573.4" clip-path="url(#terminal-4142857262-line-3)">Build&#160;and&#160;debug&#160;Python&#160;TUIs&#160;with&#160;Textual&#160;8.x&#160;—&#160;</text><text class="terminal-4142857262-r2" x="780.8" y="93.2" textLength="12.2" clip-path="url(#terminal-4142857262-line-3)">│</text><text class="terminal-4142857262-r1" x="805.2" y="93.2" textLength="12.2" clip-path="url(#terminal-4142857262-line-3)">
</text><text class="terminal-4142857262-r2" x="12.2" y="117.6" textLength="12.2" clip-path="url(#terminal-4142857262-line-4)">│</text><text class="terminal-4142857262-r8" x="36.6" y="117.6" textLength="719.8" clip-path="url(#terminal-4142857262-line-4)">App/Screen/Widget,&#160;reactive&#160;attributes,&#160;TCSS&#160;layout,&#160;@work&#160;</text><text class="terminal-4142857262-r2" x="780.8" y="117.6" textLength="12.2" clip-path="url(#terminal-4142857262-line-4)">│</text><text class="terminal-4142857262-r1" x="805.2" y="117.6" textLength="12.2" clip-path="url(#terminal-4142857262-line-4)">
</text><text class="terminal-4142857262-r2" x="12.2" y="142" textLength="12.2" clip-path="url(#terminal-4142857262-line-5)">│</text><text class="terminal-4142857262-r8" x="36.6" y="142" textLength="488" clip-path="url(#terminal-4142857262-line-5)">workers,&#160;Pilot&#160;tests,&#160;and&#160;textual&#160;serve.</text><text class="terminal-4142857262-r2" x="780.8" y="142" textLength="12.2" clip-path="url(#terminal-4142857262-line-5)">│</text><text class="terminal-4142857262-r1" x="805.2" y="142" textLength="12.2" clip-path="url(#terminal-4142857262-line-5)">
</text><text class="terminal-4142857262-r2" x="12.2" y="166.4" textLength="12.2" clip-path="url(#terminal-4142857262-line-6)">│</text><text class="terminal-4142857262-r2" x="780.8" y="166.4" textLength="12.2" clip-path="url(#terminal-4142857262-line-6)">│</text><text class="terminal-4142857262-r1" x="805.2" y="166.4" textLength="12.2" clip-path="url(#terminal-4142857262-line-6)">
</text><text class="terminal-4142857262-r2" x="12.2" y="190.8" textLength="12.2" clip-path="url(#terminal-4142857262-line-7)">│</text><text class="terminal-4142857262-r9" x="36.6" y="190.8" textLength="85.4" clip-path="url(#terminal-4142857262-line-7)">QUALITY</text><text class="terminal-4142857262-r2" x="780.8" y="190.8" textLength="12.2" clip-path="url(#terminal-4142857262-line-7)">│</text><text class="terminal-4142857262-r1" x="805.2" y="190.8" textLength="12.2" clip-path="url(#terminal-4142857262-line-7)">
</text><text class="terminal-4142857262-r2" x="12.2" y="215.2" textLength="12.2" clip-path="url(#terminal-4142857262-line-8)">│</text><text class="terminal-4142857262-r8" x="36.6" y="215.2" textLength="305" clip-path="url(#terminal-4142857262-line-8)">&#160;&#160;not&#160;yet&#160;measured&#160;—&#160;beta</text><text class="terminal-4142857262-r2" x="780.8" y="215.2" textLength="12.2" clip-path="url(#terminal-4142857262-line-8)">│</text><text class="terminal-4142857262-r1" x="805.2" y="215.2" textLength="12.2" clip-path="url(#terminal-4142857262-line-8)">
</text><text class="terminal-4142857262-r2" x="12.2" y="239.6" textLength="12.2" clip-path="url(#terminal-4142857262-line-9)">│</text><text class="terminal-4142857262-r2" x="780.8" y="239.6" textLength="12.2" clip-path="url(#terminal-4142857262-line-9)">│</text><text class="terminal-4142857262-r1" x="805.2" y="239.6" textLength="12.2" clip-path="url(#terminal-4142857262-line-9)">
</text><text class="terminal-4142857262-r2" x="12.2" y="264" textLength="12.2" clip-path="url(#terminal-4142857262-line-10)">│</text><text class="terminal-4142857262-r9" x="36.6" y="264" textLength="97.6" clip-path="url(#terminal-4142857262-line-10)">SECURITY</text><text class="terminal-4142857262-r2" x="780.8" y="264" textLength="12.2" clip-path="url(#terminal-4142857262-line-10)">│</text><text class="terminal-4142857262-r1" x="805.2" y="264" textLength="12.2" clip-path="url(#terminal-4142857262-line-10)">
</text><text class="terminal-4142857262-r2" x="12.2" y="288.4" textLength="12.2" clip-path="url(#terminal-4142857262-line-11)">│</text><text class="terminal-4142857262-r5" x="36.6" y="288.4" textLength="475.8" clip-path="url(#terminal-4142857262-line-11)">&#160;&#160;SkillSpector&#160;&#160;&#160;&#160;&#160;&#160;&#160;&#160;&#160;&#160;&#160;&#160;&#160;&#160;&#160;&#160;&#160;&#160;&#160;&#160;&#160;&#160;&#160;&#160;&#160;</text><text class="terminal-4142857262-r10" x="512.4" y="288.4" textLength="256.2" clip-path="url(#terminal-4142857262-line-11)">0&#160;/&#160;LOW&#160;&#160;&#160;&#160;&#160;&#160;&#160;&#160;&#160;&#160;&#160;&#160;&#160;&#160;</text><text class="terminal-4142857262-r2" x="780.8" y="288.4" textLength="12.2" clip-path="url(#terminal-4142857262-line-11)">│</text><text class="terminal-4142857262-r1" x="805.2" y="288.4" textLength="12.2" clip-path="url(#terminal-4142857262-line-11)">
</text><text class="terminal-4142857262-r2" x="12.2" y="312.8" textLength="12.2" clip-path="url(#terminal-4142857262-line-12)">│</text><text class="terminal-4142857262-r2" x="780.8" y="312.8" textLength="12.2" clip-path="url(#terminal-4142857262-line-12)">│</text><text class="terminal-4142857262-r1" x="805.2" y="312.8" textLength="12.2" clip-path="url(#terminal-4142857262-line-12)">
</text><text class="terminal-4142857262-r2" x="12.2" y="337.2" textLength="12.2" clip-path="url(#terminal-4142857262-line-13)">│</text><text class="terminal-4142857262-r4" x="36.6" y="337.2" textLength="732" clip-path="url(#terminal-4142857262-line-13)">scan&#160;&#160;skillspector@a5092dd9b9521ff57a9b53612bb129ce78019002&#160;</text><text class="terminal-4142857262-r2" x="780.8" y="337.2" textLength="12.2" clip-path="url(#terminal-4142857262-line-13)">│</text><text class="terminal-4142857262-r1" x="805.2" y="337.2" textLength="12.2" clip-path="url(#terminal-4142857262-line-13)">
</text><text class="terminal-4142857262-r2" x="12.2" y="361.6" textLength="12.2" clip-path="url(#terminal-4142857262-line-14)">│</text><text class="terminal-4142857262-r4" x="36.6" y="361.6" textLength="146.4" clip-path="url(#terminal-4142857262-line-14)">·&#160;2026-06-20</text><text class="terminal-4142857262-r2" x="780.8" y="361.6" textLength="12.2" clip-path="url(#terminal-4142857262-line-14)">│</text><text class="terminal-4142857262-r1" x="805.2" y="361.6" textLength="12.2" clip-path="url(#terminal-4142857262-line-14)">
</text><text class="terminal-4142857262-r2" x="12.2" y="386" textLength="12.2" clip-path="url(#terminal-4142857262-line-15)">╰</text><text class="terminal-4142857262-r2" x="24.4" y="386" textLength="756.4" clip-path="url(#terminal-4142857262-line-15)">──────────────────────────────────────────────────────────────</text><text class="terminal-4142857262-r2" x="780.8" y="386" textLength="12.2" clip-path="url(#terminal-4142857262-line-15)">╯</text><text class="terminal-4142857262-r1" x="805.2" y="386" textLength="12.2" clip-path="url(#terminal-4142857262-line-15)">
</text>
    </g>
    </g>
</svg>
