<svg class="skill-card" viewBox="0 0 950.5999999999999 828.5999999999999" xmlns="http://www.w3.org/2000/svg">
    <style>
    @font-face {
        font-family: "Fira Code";
        src: local("FiraCode-Regular"),
                url("https://cdnjs.cloudflare.com/ajax/libs/firacode/6.2.0/woff2/FiraCode-Regular.woff2") format("woff2"),
                url("https://cdnjs.cloudflare.com/ajax/libs/firacode/6.2.0/woff/FiraCode-Regular.woff") format("woff");
        font-style: normal;
        font-weight: 400;
    }
    @font-face {
        font-family: "Fira Code";
        src: local("FiraCode-Bold"),
                url("https://cdnjs.cloudflare.com/ajax/libs/firacode/6.2.0/woff2/FiraCode-Bold.woff2") format("woff2"),
                url("https://cdnjs.cloudflare.com/ajax/libs/firacode/6.2.0/woff/FiraCode-Bold.woff") format("woff");
        font-style: bold;
        font-weight: 700;
    }
    .terminal-1525660398-matrix {
        font-family: Fira Code, monospace;
        font-size: 20px;
        line-height: 24.4px;
        font-variant-east-asian: full-width;
    }
    .terminal-1525660398-r1 { fill: #c5c8c6 }
.terminal-1525660398-r2 { fill: #00ffff }
.terminal-1525660398-r3 { fill: #c4c5b5;font-weight: bold }
.terminal-1525660398-r4 { fill: #9e9e9e }
.terminal-1525660398-r5 { fill: #e0e0e0 }
.terminal-1525660398-r6 { fill: #fd971f }
.terminal-1525660398-r7 { fill: #c4c5b5 }
.terminal-1525660398-r8 { fill: #9e9e9e;font-style: italic; }
.terminal-1525660398-r9 { fill: #58d1eb;font-weight: bold }
.terminal-1525660398-r10 { fill: #808080;font-style: italic; }
.terminal-1525660398-r11 { fill: #98e024 }
    </style>
    <defs>
    <clipPath id="terminal-1525660398-clip-terminal">
      <rect x="0" y="0" width="950.5999999999999" height="828.5999999999999" />
    </clipPath>
    <clipPath id="terminal-1525660398-line-0">
    <rect x="0" y="1.5" width="951.6" height="24.65"/>
            </clipPath>
<clipPath id="terminal-1525660398-line-1">
    <rect x="0" y="25.9" width="951.6" height="24.65"/>
            </clipPath>
<clipPath id="terminal-1525660398-line-2">
    <rect x="0" y="50.3" width="951.6" height="24.65"/>
            </clipPath>
<clipPath id="terminal-1525660398-line-3">
    <rect x="0" y="74.7" width="951.6" height="24.65"/>
            </clipPath>
<clipPath id="terminal-1525660398-line-4">
    <rect x="0" y="99.1" width="951.6" height="24.65"/>
            </clipPath>
<clipPath id="terminal-1525660398-line-5">
    <rect x="0" y="123.5" width="951.6" height="24.65"/>
            </clipPath>
<clipPath id="terminal-1525660398-line-6">
    <rect x="0" y="147.9" width="951.6" height="24.65"/>
            </clipPath>
<clipPath id="terminal-1525660398-line-7">
    <rect x="0" y="172.3" width="951.6" height="24.65"/>
            </clipPath>
<clipPath id="terminal-1525660398-line-8">
    <rect x="0" y="196.7" width="951.6" height="24.65"/>
            </clipPath>
<clipPath id="terminal-1525660398-line-9">
    <rect x="0" y="221.1" width="951.6" height="24.65"/>
            </clipPath>
<clipPath id="terminal-1525660398-line-10">
    <rect x="0" y="245.5" width="951.6" height="24.65"/>
            </clipPath>
<clipPath id="terminal-1525660398-line-11">
    <rect x="0" y="269.9" width="951.6" height="24.65"/>
            </clipPath>
<clipPath id="terminal-1525660398-line-12">
    <rect x="0" y="294.3" width="951.6" height="24.65"/>
            </clipPath>
<clipPath id="terminal-1525660398-line-13">
    <rect x="0" y="318.7" width="951.6" height="24.65"/>
            </clipPath>
<clipPath id="terminal-1525660398-line-14">
    <rect x="0" y="343.1" width="951.6" height="24.65"/>
            </clipPath>
<clipPath id="terminal-1525660398-line-15">
    <rect x="0" y="367.5" width="951.6" height="24.65"/>
            </clipPath>
<clipPath id="terminal-1525660398-line-16">
    <rect x="0" y="391.9" width="951.6" height="24.65"/>
            </clipPath>
<clipPath id="terminal-1525660398-line-17">
    <rect x="0" y="416.3" width="951.6" height="24.65"/>
            </clipPath>
<clipPath id="terminal-1525660398-line-18">
    <rect x="0" y="440.7" width="951.6" height="24.65"/>
            </clipPath>
<clipPath id="terminal-1525660398-line-19">
    <rect x="0" y="465.1" width="951.6" height="24.65"/>
            </clipPath>
<clipPath id="terminal-1525660398-line-20">
    <rect x="0" y="489.5" width="951.6" height="24.65"/>
            </clipPath>
<clipPath id="terminal-1525660398-line-21">
    <rect x="0" y="513.9" width="951.6" height="24.65"/>
            </clipPath>
<clipPath id="terminal-1525660398-line-22">
    <rect x="0" y="538.3" width="951.6" height="24.65"/>
            </clipPath>
<clipPath id="terminal-1525660398-line-23">
    <rect x="0" y="562.7" width="951.6" height="24.65"/>
            </clipPath>
<clipPath id="terminal-1525660398-line-24">
    <rect x="0" y="587.1" width="951.6" height="24.65"/>
            </clipPath>
<clipPath id="terminal-1525660398-line-25">
    <rect x="0" y="611.5" width="951.6" height="24.65"/>
            </clipPath>
<clipPath id="terminal-1525660398-line-26">
    <rect x="0" y="635.9" width="951.6" height="24.65"/>
            </clipPath>
<clipPath id="terminal-1525660398-line-27">
    <rect x="0" y="660.3" width="951.6" height="24.65"/>
            </clipPath>
<clipPath id="terminal-1525660398-line-28">
    <rect x="0" y="684.7" width="951.6" height="24.65"/>
            </clipPath>
<clipPath id="terminal-1525660398-line-29">
    <rect x="0" y="709.1" width="951.6" height="24.65"/>
            </clipPath>
<clipPath id="terminal-1525660398-line-30">
    <rect x="0" y="733.5" width="951.6" height="24.65"/>
            </clipPath>
<clipPath id="terminal-1525660398-line-31">
    <rect x="0" y="757.9" width="951.6" height="24.65"/>
            </clipPath>
<clipPath id="terminal-1525660398-line-32">
    <rect x="0" y="782.3" width="951.6" height="24.65"/>
            </clipPath>
    </defs>
    <g clip-path="url(#terminal-1525660398-clip-terminal)">
    <rect fill="#121212" x="0" y="1.5" width="951.6" height="24.65" shape-rendering="crispEdges"/><rect fill="#121212" x="0" y="25.9" width="24.4" height="24.65" shape-rendering="crispEdges"/><rect fill="#1e1e1e" x="24.4" y="25.9" width="12.2" height="24.65" shape-rendering="crispEdges"/><rect fill="#1e1e1e" x="36.6" y="25.9" width="12.2" height="24.65" shape-rendering="crispEdges"/><rect fill="#1e1e1e" x="48.8" y="25.9" width="146.4" height="24.65" shape-rendering="crispEdges"/><rect fill="#1e1e1e" x="195.2" y="25.9" width="719.8" height="24.65" shape-rendering="crispEdges"/><rect fill="#1e1e1e" x="915" y="25.9" width="12.2" height="24.65" shape-rendering="crispEdges"/><rect fill="#121212" x="927.2" y="25.9" width="24.4" height="24.65" shape-rendering="crispEdges"/><rect fill="#121212" x="0" y="50.3" width="24.4" height="24.65" shape-rendering="crispEdges"/><rect fill="#1e1e1e" x="24.4" y="50.3" width="12.2" height="24.65" shape-rendering="crispEdges"/><rect fill="#1e1e1e" x="36.6" y="50.3" width="878.4" height="24.65" shape-rendering="crispEdges"/><rect fill="#1e1e1e" x="915" y="50.3" width="12.2" height="24.65" shape-rendering="crispEdges"/><rect fill="#121212" x="927.2" y="50.3" width="24.4" height="24.65" shape-rendering="crispEdges"/><rect fill="#121212" x="0" y="74.7" width="24.4" height="24.65" shape-rendering="crispEdges"/><rect fill="#1e1e1e" x="24.4" y="74.7" width="12.2" height="24.65" shape-rendering="crispEdges"/><rect fill="#1e1e1e" x="36.6" y="74.7" width="24.4" height="24.65" shape-rendering="crispEdges"/><rect fill="#1e1e1e" x="61" y="74.7" width="85.4" height="24.65" shape-rendering="crispEdges"/><rect fill="#1e1e1e" x="146.4" y="74.7" width="97.6" height="24.65" shape-rendering="crispEdges"/><rect fill="#1e1e1e" x="244" y="74.7" width="414.8" height="24.65" shape-rendering="crispEdges"/><rect fill="#1e1e1e" x="658.8" y="74.7" width="158.6" height="24.65" shape-rendering="crispEdges"/><rect fill="#1e1e1e" x="817.4" y="74.7" width="24.4" height="24.65" shape-rendering="crispEdges"/><rect fill="#1e1e1e" x="841.8" y="74.7" width="48.8" height="24.65" shape-rendering="crispEdges"/><rect fill="#1e1e1e" x="890.6" y="74.7" width="24.4" height="24.65" shape-rendering="crispEdges"/><rect fill="#1e1e1e" x="915" y="74.7" width="12.2" height="24.65" shape-rendering="crispEdges"/><rect fill="#121212" x="927.2" y="74.7" width="24.4" height="24.65" shape-rendering="crispEdges"/><rect fill="#121212" x="0" y="99.1" width="24.4" height="24.65" shape-rendering="crispEdges"/><rect fill="#1e1e1e" x="24.4" y="99.1" width="12.2" height="24.65" shape-rendering="crispEdges"/><rect fill="#1e1e1e" x="36.6" y="99.1" width="24.4" height="24.65" shape-rendering="crispEdges"/><rect fill="#1e1e1e" x="61" y="99.1" width="805.2" height="24.65" shape-rendering="crispEdges"/><rect fill="#1e1e1e" x="866.2" y="99.1" width="24.4" height="24.65" shape-rendering="crispEdges"/><rect fill="#1e1e1e" x="890.6" y="99.1" width="24.4" height="24.65" shape-rendering="crispEdges"/><rect fill="#1e1e1e" x="915" y="99.1" width="12.2" height="24.65" shape-rendering="crispEdges"/><rect fill="#121212" x="927.2" y="99.1" width="24.4" height="24.65" shape-rendering="crispEdges"/><rect fill="#121212" x="0" y="123.5" width="24.4" height="24.65" shape-rendering="crispEdges"/><rect fill="#1e1e1e" x="24.4" y="123.5" width="12.2" height="24.65" shape-rendering="crispEdges"/><rect fill="#1e1e1e" x="36.6" y="123.5" width="24.4" height="24.65" shape-rendering="crispEdges"/><rect fill="#1e1e1e" x="61" y="123.5" width="805.2" height="24.65" shape-rendering="crispEdges"/><rect fill="#1e1e1e" x="866.2" y="123.5" width="24.4" height="24.65" shape-rendering="crispEdges"/><rect fill="#1e1e1e" x="890.6" y="123.5" width="24.4" height="24.65" shape-rendering="crispEdges"/><rect fill="#1e1e1e" x="915" y="123.5" width="12.2" height="24.65" shape-rendering="crispEdges"/><rect fill="#121212" x="927.2" y="123.5" width="24.4" height="24.65" shape-rendering="crispEdges"/><rect fill="#121212" x="0" y="147.9" width="24.4" height="24.65" shape-rendering="crispEdges"/><rect fill="#1e1e1e" x="24.4" y="147.9" width="12.2" height="24.65" shape-rendering="crispEdges"/><rect fill="#1e1e1e" x="36.6" y="147.9" width="24.4" height="24.65" shape-rendering="crispEdges"/><rect fill="#1e1e1e" x="61" y="147.9" width="170.8" height="24.65" shape-rendering="crispEdges"/><rect fill="#1e1e1e" x="231.8" y="147.9" width="658.8" height="24.65" shape-rendering="crispEdges"/><rect fill="#1e1e1e" x="890.6" y="147.9" width="24.4" height="24.65" shape-rendering="crispEdges"/><rect fill="#1e1e1e" x="915" y="147.9" width="12.2" height="24.65" shape-rendering="crispEdges"/><rect fill="#121212" x="927.2" y="147.9" width="24.4" height="24.65" shape-rendering="crispEdges"/><rect fill="#121212" x="0" y="172.3" width="24.4" height="24.65" shape-rendering="crispEdges"/><rect fill="#1e1e1e" x="24.4" y="172.3" width="12.2" height="24.65" shape-rendering="crispEdges"/><rect fill="#1e1e1e" x="36.6" y="172.3" width="24.4" height="24.65" shape-rendering="crispEdges"/><rect fill="#1e1e1e" x="61" y="172.3" width="0" height="24.65" shape-rendering="crispEdges"/><rect fill="#1e1e1e" x="61" y="172.3" width="829.6" height="24.65" shape-rendering="crispEdges"/><rect fill="#1e1e1e" x="890.6" y="172.3" width="24.4" height="24.65" shape-rendering="crispEdges"/><rect fill="#1e1e1e" x="915" y="172.3" width="12.2" height="24.65" shape-rendering="crispEdges"/><rect fill="#121212" x="927.2" y="172.3" width="24.4" height="24.65" shape-rendering="crispEdges"/><rect fill="#121212" x="0" y="196.7" width="24.4" height="24.65" shape-rendering="crispEdges"/><rect fill="#1e1e1e" x="24.4" y="196.7" width="12.2" height="24.65" shape-rendering="crispEdges"/><rect fill="#1e1e1e" x="36.6" y="196.7" width="24.4" height="24.65" shape-rendering="crispEdges"/><rect fill="#1e1e1e" x="61" y="196.7" width="134.2" height="24.65" shape-rendering="crispEdges"/><rect fill="#1e1e1e" x="195.2" y="196.7" width="695.4" height="24.65" shape-rendering="crispEdges"/><rect fill="#1e1e1e" x="890.6" y="196.7" width="24.4" height="24.65" shape-rendering="crispEdges"/><rect fill="#1e1e1e" x="915" y="196.7" width="12.2" height="24.65" shape-rendering="crispEdges"/><rect fill="#121212" x="927.2" y="196.7" width="24.4" height="24.65" shape-rendering="crispEdges"/><rect fill="#121212" x="0" y="221.1" width="24.4" height="24.65" shape-rendering="crispEdges"/><rect fill="#1e1e1e" x="24.4" y="221.1" width="12.2" height="24.65" shape-rendering="crispEdges"/><rect fill="#1e1e1e" x="36.6" y="221.1" width="24.4" height="24.65" shape-rendering="crispEdges"/><rect fill="#1e1e1e" x="61" y="221.1" width="793" height="24.65" shape-rendering="crispEdges"/><rect fill="#1e1e1e" x="854" y="221.1" width="36.6" height="24.65" shape-rendering="crispEdges"/><rect fill="#1e1e1e" x="890.6" y="221.1" width="24.4" height="24.65" shape-rendering="crispEdges"/><rect fill="#1e1e1e" x="915" y="221.1" width="12.2" height="24.65" shape-rendering="crispEdges"/><rect fill="#121212" x="927.2" y="221.1" width="24.4" height="24.65" shape-rendering="crispEdges"/><rect fill="#121212" x="0" y="245.5" width="24.4" height="24.65" shape-rendering="crispEdges"/><rect fill="#1e1e1e" x="24.4" y="245.5" width="12.2" height="24.65" shape-rendering="crispEdges"/><rect fill="#1e1e1e" x="36.6" y="245.5" width="24.4" height="24.65" shape-rendering="crispEdges"/><rect fill="#1e1e1e" x="61" y="245.5" width="561.2" height="24.65" shape-rendering="crispEdges"/><rect fill="#1e1e1e" x="622.2" y="245.5" width="268.4" height="24.65" shape-rendering="crispEdges"/><rect fill="#1e1e1e" x="890.6" y="245.5" width="24.4" height="24.65" shape-rendering="crispEdges"/><rect fill="#1e1e1e" x="915" y="245.5" width="12.2" height="24.65" shape-rendering="crispEdges"/><rect fill="#121212" x="927.2" y="245.5" width="24.4" height="24.65" shape-rendering="crispEdges"/><rect fill="#121212" x="0" y="269.9" width="24.4" height="24.65" shape-rendering="crispEdges"/><rect fill="#1e1e1e" x="24.4" y="269.9" width="12.2" height="24.65" shape-rendering="crispEdges"/><rect fill="#1e1e1e" x="36.6" y="269.9" width="24.4" height="24.65" shape-rendering="crispEdges"/><rect fill="#1e1e1e" x="61" y="269.9" width="817.4" height="24.65" shape-rendering="crispEdges"/><rect fill="#1e1e1e" x="878.4" y="269.9" width="12.2" height="24.65" shape-rendering="crispEdges"/><rect fill="#1e1e1e" x="890.6" y="269.9" width="24.4" height="24.65" shape-rendering="crispEdges"/><rect fill="#1e1e1e" x="915" y="269.9" width="12.2" height="24.65" shape-rendering="crispEdges"/><rect fill="#121212" x="927.2" y="269.9" width="24.4" height="24.65" shape-rendering="crispEdges"/><rect fill="#121212" x="0" y="294.3" width="24.4" height="24.65" shape-rendering="crispEdges"/><rect fill="#1e1e1e" x="24.4" y="294.3" width="12.2" height="24.65" shape-rendering="crispEdges"/><rect fill="#1e1e1e" x="36.6" y="294.3" width="24.4" height="24.65" shape-rendering="crispEdges"/><rect fill="#1e1e1e" x="61" y="294.3" width="793" height="24.65" shape-rendering="crispEdges"/><rect fill="#1e1e1e" x="854" y="294.3" width="36.6" height="24.65" shape-rendering="crispEdges"/><rect fill="#1e1e1e" x="890.6" y="294.3" width="24.4" height="24.65" shape-rendering="crispEdges"/><rect fill="#1e1e1e" x="915" y="294.3" width="12.2" height="24.65" shape-rendering="crispEdges"/><rect fill="#121212" x="927.2" y="294.3" width="24.4" height="24.65" shape-rendering="crispEdges"/><rect fill="#121212" x="0" y="318.7" width="24.4" height="24.65" shape-rendering="crispEdges"/><rect fill="#1e1e1e" x="24.4" y="318.7" width="12.2" height="24.65" shape-rendering="crispEdges"/><rect fill="#1e1e1e" x="36.6" y="318.7" width="24.4" height="24.65" shape-rendering="crispEdges"/><rect fill="#1e1e1e" x="61" y="318.7" width="0" height="24.65" shape-rendering="crispEdges"/><rect fill="#1e1e1e" x="61" y="318.7" width="829.6" height="24.65" shape-rendering="crispEdges"/><rect fill="#1e1e1e" x="890.6" y="318.7" width="24.4" height="24.65" shape-rendering="crispEdges"/><rect fill="#1e1e1e" x="915" y="318.7" width="12.2" height="24.65" shape-rendering="crispEdges"/><rect fill="#121212" x="927.2" y="318.7" width="24.4" height="24.65" shape-rendering="crispEdges"/><rect fill="#121212" x="0" y="343.1" width="24.4" height="24.65" shape-rendering="crispEdges"/><rect fill="#1e1e1e" x="24.4" y="343.1" width="12.2" height="24.65" shape-rendering="crispEdges"/><rect fill="#1e1e1e" x="36.6" y="343.1" width="24.4" height="24.65" shape-rendering="crispEdges"/><rect fill="#1e1e1e" x="61" y="343.1" width="73.2" height="24.65" shape-rendering="crispEdges"/><rect fill="#1e1e1e" x="134.2" y="343.1" width="756.4" height="24.65" shape-rendering="crispEdges"/><rect fill="#1e1e1e" x="890.6" y="343.1" width="24.4" height="24.65" shape-rendering="crispEdges"/><rect fill="#1e1e1e" x="915" y="343.1" width="12.2" height="24.65" shape-rendering="crispEdges"/><rect fill="#121212" x="927.2" y="343.1" width="24.4" height="24.65" shape-rendering="crispEdges"/><rect fill="#121212" x="0" y="367.5" width="24.4" height="24.65" shape-rendering="crispEdges"/><rect fill="#1e1e1e" x="24.4" y="367.5" width="12.2" height="24.65" shape-rendering="crispEdges"/><rect fill="#1e1e1e" x="36.6" y="367.5" width="24.4" height="24.65" shape-rendering="crispEdges"/><rect fill="#1e1e1e" x="61" y="367.5" width="207.4" height="24.65" shape-rendering="crispEdges"/><rect fill="#1e1e1e" x="268.4" y="367.5" width="622.2" height="24.65" shape-rendering="crispEdges"/><rect fill="#1e1e1e" x="890.6" y="367.5" width="24.4" height="24.65" shape-rendering="crispEdges"/><rect fill="#1e1e1e" x="915" y="367.5" width="12.2" height="24.65" shape-rendering="crispEdges"/><rect fill="#121212" x="927.2" y="367.5" width="24.4" height="24.65" shape-rendering="crispEdges"/><rect fill="#121212" x="0" y="391.9" width="24.4" height="24.65" shape-rendering="crispEdges"/><rect fill="#1e1e1e" x="24.4" y="391.9" width="12.2" height="24.65" shape-rendering="crispEdges"/><rect fill="#1e1e1e" x="36.6" y="391.9" width="24.4" height="24.65" shape-rendering="crispEdges"/><rect fill="#1e1e1e" x="61" y="391.9" width="207.4" height="24.65" shape-rendering="crispEdges"/><rect fill="#1e1e1e" x="268.4" y="391.9" width="622.2" height="24.65" shape-rendering="crispEdges"/><rect fill="#1e1e1e" x="890.6" y="391.9" width="24.4" height="24.65" shape-rendering="crispEdges"/><rect fill="#1e1e1e" x="915" y="391.9" width="12.2" height="24.65" shape-rendering="crispEdges"/><rect fill="#121212" x="927.2" y="391.9" width="24.4" height="24.65" shape-rendering="crispEdges"/><rect fill="#121212" x="0" y="416.3" width="24.4" height="24.65" shape-rendering="crispEdges"/><rect fill="#1e1e1e" x="24.4" y="416.3" width="12.2" height="24.65" shape-rendering="crispEdges"/><rect fill="#1e1e1e" x="36.6" y="416.3" width="24.4" height="24.65" shape-rendering="crispEdges"/><rect fill="#1e1e1e" x="61" y="416.3" width="0" height="24.65" shape-rendering="crispEdges"/><rect fill="#1e1e1e" x="61" y="416.3" width="829.6" height="24.65" shape-rendering="crispEdges"/><rect fill="#1e1e1e" x="890.6" y="416.3" width="24.4" height="24.65" shape-rendering="crispEdges"/><rect fill="#1e1e1e" x="915" y="416.3" width="12.2" height="24.65" shape-rendering="crispEdges"/><rect fill="#121212" x="927.2" y="416.3" width="24.4" height="24.65" shape-rendering="crispEdges"/><rect fill="#121212" x="0" y="440.7" width="24.4" height="24.65" shape-rendering="crispEdges"/><rect fill="#1e1e1e" x="24.4" y="440.7" width="12.2" height="24.65" shape-rendering="crispEdges"/><rect fill="#1e1e1e" x="36.6" y="440.7" width="24.4" height="24.65" shape-rendering="crispEdges"/><rect fill="#1e1e1e" x="61" y="440.7" width="146.4" height="24.65" shape-rendering="crispEdges"/><rect fill="#1e1e1e" x="207.4" y="440.7" width="683.2" height="24.65" shape-rendering="crispEdges"/><rect fill="#1e1e1e" x="890.6" y="440.7" width="24.4" height="24.65" shape-rendering="crispEdges"/><rect fill="#1e1e1e" x="915" y="440.7" width="12.2" height="24.65" shape-rendering="crispEdges"/><rect fill="#121212" x="927.2" y="440.7" width="24.4" height="24.65" shape-rendering="crispEdges"/><rect fill="#121212" x="0" y="465.1" width="24.4" height="24.65" shape-rendering="crispEdges"/><rect fill="#1e1e1e" x="24.4" y="465.1" width="12.2" height="24.65" shape-rendering="crispEdges"/><rect fill="#1e1e1e" x="36.6" y="465.1" width="24.4" height="24.65" shape-rendering="crispEdges"/><rect fill="#1e1e1e" x="61" y="465.1" width="207.4" height="24.65" shape-rendering="crispEdges"/><rect fill="#1e1e1e" x="268.4" y="465.1" width="622.2" height="24.65" shape-rendering="crispEdges"/><rect fill="#1e1e1e" x="890.6" y="465.1" width="24.4" height="24.65" shape-rendering="crispEdges"/><rect fill="#1e1e1e" x="915" y="465.1" width="12.2" height="24.65" shape-rendering="crispEdges"/><rect fill="#121212" x="927.2" y="465.1" width="24.4" height="24.65" shape-rendering="crispEdges"/><rect fill="#121212" x="0" y="489.5" width="24.4" height="24.65" shape-rendering="crispEdges"/><rect fill="#1e1e1e" x="24.4" y="489.5" width="12.2" height="24.65" shape-rendering="crispEdges"/><rect fill="#1e1e1e" x="36.6" y="489.5" width="24.4" height="24.65" shape-rendering="crispEdges"/><rect fill="#1e1e1e" x="61" y="489.5" width="146.4" height="24.65" shape-rendering="crispEdges"/><rect fill="#1e1e1e" x="207.4" y="489.5" width="683.2" height="24.65" shape-rendering="crispEdges"/><rect fill="#1e1e1e" x="890.6" y="489.5" width="24.4" height="24.65" shape-rendering="crispEdges"/><rect fill="#1e1e1e" x="915" y="489.5" width="12.2" height="24.65" shape-rendering="crispEdges"/><rect fill="#121212" x="927.2" y="489.5" width="24.4" height="24.65" shape-rendering="crispEdges"/><rect fill="#121212" x="0" y="513.9" width="24.4" height="24.65" shape-rendering="crispEdges"/><rect fill="#1e1e1e" x="24.4" y="513.9" width="12.2" height="24.65" shape-rendering="crispEdges"/><rect fill="#1e1e1e" x="36.6" y="513.9" width="24.4" height="24.65" shape-rendering="crispEdges"/><rect fill="#1e1e1e" x="61" y="513.9" width="158.6" height="24.65" shape-rendering="crispEdges"/><rect fill="#1e1e1e" x="219.6" y="513.9" width="671" height="24.65" shape-rendering="crispEdges"/><rect fill="#1e1e1e" x="890.6" y="513.9" width="24.4" height="24.65" shape-rendering="crispEdges"/><rect fill="#1e1e1e" x="915" y="513.9" width="12.2" height="24.65" shape-rendering="crispEdges"/><rect fill="#121212" x="927.2" y="513.9" width="24.4" height="24.65" shape-rendering="crispEdges"/><rect fill="#121212" x="0" y="538.3" width="24.4" height="24.65" shape-rendering="crispEdges"/><rect fill="#1e1e1e" x="24.4" y="538.3" width="12.2" height="24.65" shape-rendering="crispEdges"/><rect fill="#1e1e1e" x="36.6" y="538.3" width="24.4" height="24.65" shape-rendering="crispEdges"/><rect fill="#1e1e1e" x="61" y="538.3" width="0" height="24.65" shape-rendering="crispEdges"/><rect fill="#1e1e1e" x="61" y="538.3" width="829.6" height="24.65" shape-rendering="crispEdges"/><rect fill="#1e1e1e" x="890.6" y="538.3" width="24.4" height="24.65" shape-rendering="crispEdges"/><rect fill="#1e1e1e" x="915" y="538.3" width="12.2" height="24.65" shape-rendering="crispEdges"/><rect fill="#121212" x="927.2" y="538.3" width="24.4" height="24.65" shape-rendering="crispEdges"/><rect fill="#121212" x="0" y="562.7" width="24.4" height="24.65" shape-rendering="crispEdges"/><rect fill="#1e1e1e" x="24.4" y="562.7" width="12.2" height="24.65" shape-rendering="crispEdges"/><rect fill="#1e1e1e" x="36.6" y="562.7" width="24.4" height="24.65" shape-rendering="crispEdges"/><rect fill="#1e1e1e" x="61" y="562.7" width="85.4" height="24.65" shape-rendering="crispEdges"/><rect fill="#1e1e1e" x="146.4" y="562.7" width="744.2" height="24.65" shape-rendering="crispEdges"/><rect fill="#1e1e1e" x="890.6" y="562.7" width="24.4" height="24.65" shape-rendering="crispEdges"/><rect fill="#1e1e1e" x="915" y="562.7" width="12.2" height="24.65" shape-rendering="crispEdges"/><rect fill="#121212" x="927.2" y="562.7" width="24.4" height="24.65" shape-rendering="crispEdges"/><rect fill="#121212" x="0" y="587.1" width="24.4" height="24.65" shape-rendering="crispEdges"/><rect fill="#1e1e1e" x="24.4" y="587.1" width="12.2" height="24.65" shape-rendering="crispEdges"/><rect fill="#1e1e1e" x="36.6" y="587.1" width="24.4" height="24.65" shape-rendering="crispEdges"/><rect fill="#1e1e1e" x="61" y="587.1" width="305" height="24.65" shape-rendering="crispEdges"/><rect fill="#1e1e1e" x="366" y="587.1" width="524.6" height="24.65" shape-rendering="crispEdges"/><rect fill="#1e1e1e" x="890.6" y="587.1" width="24.4" height="24.65" shape-rendering="crispEdges"/><rect fill="#1e1e1e" x="915" y="587.1" width="12.2" height="24.65" shape-rendering="crispEdges"/><rect fill="#121212" x="927.2" y="587.1" width="24.4" height="24.65" shape-rendering="crispEdges"/><rect fill="#121212" x="0" y="611.5" width="24.4" height="24.65" shape-rendering="crispEdges"/><rect fill="#1e1e1e" x="24.4" y="611.5" width="12.2" height="24.65" shape-rendering="crispEdges"/><rect fill="#1e1e1e" x="36.6" y="611.5" width="24.4" height="24.65" shape-rendering="crispEdges"/><rect fill="#1e1e1e" x="61" y="611.5" width="0" height="24.65" shape-rendering="crispEdges"/><rect fill="#1e1e1e" x="61" y="611.5" width="829.6" height="24.65" shape-rendering="crispEdges"/><rect fill="#1e1e1e" x="890.6" y="611.5" width="24.4" height="24.65" shape-rendering="crispEdges"/><rect fill="#1e1e1e" x="915" y="611.5" width="12.2" height="24.65" shape-rendering="crispEdges"/><rect fill="#121212" x="927.2" y="611.5" width="24.4" height="24.65" shape-rendering="crispEdges"/><rect fill="#121212" x="0" y="635.9" width="24.4" height="24.65" shape-rendering="crispEdges"/><rect fill="#1e1e1e" x="24.4" y="635.9" width="12.2" height="24.65" shape-rendering="crispEdges"/><rect fill="#1e1e1e" x="36.6" y="635.9" width="24.4" height="24.65" shape-rendering="crispEdges"/><rect fill="#1e1e1e" x="61" y="635.9" width="97.6" height="24.65" shape-rendering="crispEdges"/><rect fill="#1e1e1e" x="158.6" y="635.9" width="732" height="24.65" shape-rendering="crispEdges"/><rect fill="#1e1e1e" x="890.6" y="635.9" width="24.4" height="24.65" shape-rendering="crispEdges"/><rect fill="#1e1e1e" x="915" y="635.9" width="12.2" height="24.65" shape-rendering="crispEdges"/><rect fill="#121212" x="927.2" y="635.9" width="24.4" height="24.65" shape-rendering="crispEdges"/><rect fill="#121212" x="0" y="660.3" width="24.4" height="24.65" shape-rendering="crispEdges"/><rect fill="#1e1e1e" x="24.4" y="660.3" width="12.2" height="24.65" shape-rendering="crispEdges"/><rect fill="#1e1e1e" x="36.6" y="660.3" width="24.4" height="24.65" shape-rendering="crispEdges"/><rect fill="#1e1e1e" x="61" y="660.3" width="549" height="24.65" shape-rendering="crispEdges"/><rect fill="#1e1e1e" x="610" y="660.3" width="280.6" height="24.65" shape-rendering="crispEdges"/><rect fill="#1e1e1e" x="890.6" y="660.3" width="24.4" height="24.65" shape-rendering="crispEdges"/><rect fill="#1e1e1e" x="915" y="660.3" width="12.2" height="24.65" shape-rendering="crispEdges"/><rect fill="#121212" x="927.2" y="660.3" width="24.4" height="24.65" shape-rendering="crispEdges"/><rect fill="#121212" x="0" y="684.7" width="24.4" height="24.65" shape-rendering="crispEdges"/><rect fill="#1e1e1e" x="24.4" y="684.7" width="12.2" height="24.65" shape-rendering="crispEdges"/><rect fill="#1e1e1e" x="36.6" y="684.7" width="24.4" height="24.65" shape-rendering="crispEdges"/><rect fill="#1e1e1e" x="61" y="684.7" width="0" height="24.65" shape-rendering="crispEdges"/><rect fill="#1e1e1e" x="61" y="684.7" width="829.6" height="24.65" shape-rendering="crispEdges"/><rect fill="#1e1e1e" x="890.6" y="684.7" width="24.4" height="24.65" shape-rendering="crispEdges"/><rect fill="#1e1e1e" x="915" y="684.7" width="12.2" height="24.65" shape-rendering="crispEdges"/><rect fill="#121212" x="927.2" y="684.7" width="24.4" height="24.65" shape-rendering="crispEdges"/><rect fill="#121212" x="0" y="709.1" width="24.4" height="24.65" shape-rendering="crispEdges"/><rect fill="#1e1e1e" x="24.4" y="709.1" width="12.2" height="24.65" shape-rendering="crispEdges"/><rect fill="#1e1e1e" x="36.6" y="709.1" width="24.4" height="24.65" shape-rendering="crispEdges"/><rect fill="#1e1e1e" x="61" y="709.1" width="756.4" height="24.65" shape-rendering="crispEdges"/><rect fill="#1e1e1e" x="817.4" y="709.1" width="73.2" height="24.65" shape-rendering="crispEdges"/><rect fill="#1e1e1e" x="890.6" y="709.1" width="24.4" height="24.65" shape-rendering="crispEdges"/><rect fill="#1e1e1e" x="915" y="709.1" width="12.2" height="24.65" shape-rendering="crispEdges"/><rect fill="#121212" x="927.2" y="709.1" width="24.4" height="24.65" shape-rendering="crispEdges"/><rect fill="#121212" x="0" y="733.5" width="24.4" height="24.65" shape-rendering="crispEdges"/><rect fill="#1e1e1e" x="24.4" y="733.5" width="12.2" height="24.65" shape-rendering="crispEdges"/><rect fill="#1e1e1e" x="36.6" y="733.5" width="24.4" height="24.65" shape-rendering="crispEdges"/><rect fill="#1e1e1e" x="61" y="733.5" width="122" height="24.65" shape-rendering="crispEdges"/><rect fill="#1e1e1e" x="183" y="733.5" width="707.6" height="24.65" shape-rendering="crispEdges"/><rect fill="#1e1e1e" x="890.6" y="733.5" width="24.4" height="24.65" shape-rendering="crispEdges"/><rect fill="#1e1e1e" x="915" y="733.5" width="12.2" height="24.65" shape-rendering="crispEdges"/><rect fill="#121212" x="927.2" y="733.5" width="24.4" height="24.65" shape-rendering="crispEdges"/><rect fill="#121212" x="0" y="757.9" width="24.4" height="24.65" shape-rendering="crispEdges"/><rect fill="#1e1e1e" x="24.4" y="757.9" width="12.2" height="24.65" shape-rendering="crispEdges"/><rect fill="#1e1e1e" x="36.6" y="757.9" width="878.4" height="24.65" shape-rendering="crispEdges"/><rect fill="#1e1e1e" x="915" y="757.9" width="12.2" height="24.65" shape-rendering="crispEdges"/><rect fill="#121212" x="927.2" y="757.9" width="24.4" height="24.65" shape-rendering="crispEdges"/><rect fill="#121212" x="0" y="782.3" width="24.4" height="24.65" shape-rendering="crispEdges"/><rect fill="#1e1e1e" x="24.4" y="782.3" width="12.2" height="24.65" shape-rendering="crispEdges"/><rect fill="#1e1e1e" x="36.6" y="782.3" width="878.4" height="24.65" shape-rendering="crispEdges"/><rect fill="#1e1e1e" x="915" y="782.3" width="12.2" height="24.65" shape-rendering="crispEdges"/><rect fill="#121212" x="927.2" y="782.3" width="24.4" height="24.65" shape-rendering="crispEdges"/><rect fill="#121212" x="0" y="806.7" width="951.6" height="24.65" shape-rendering="crispEdges"/>
    <g class="terminal-1525660398-matrix">
    <text class="terminal-1525660398-r1" x="951.6" y="20" textLength="12.2" clip-path="url(#terminal-1525660398-line-0)">
</text><text class="terminal-1525660398-r2" x="24.4" y="44.4" textLength="12.2" clip-path="url(#terminal-1525660398-line-1)">╭</text><text class="terminal-1525660398-r2" x="36.6" y="44.4" textLength="12.2" clip-path="url(#terminal-1525660398-line-1)">─</text><text class="terminal-1525660398-r2" x="48.8" y="44.4" textLength="146.4" clip-path="url(#terminal-1525660398-line-1)">&#160;SKILL&#160;CARD&#160;</text><text class="terminal-1525660398-r2" x="195.2" y="44.4" textLength="719.8" clip-path="url(#terminal-1525660398-line-1)">───────────────────────────────────────────────────────────</text><text class="terminal-1525660398-r2" x="915" y="44.4" textLength="12.2" clip-path="url(#terminal-1525660398-line-1)">╮</text><text class="terminal-1525660398-r1" x="951.6" y="44.4" textLength="12.2" clip-path="url(#terminal-1525660398-line-1)">
</text><text class="terminal-1525660398-r2" x="24.4" y="68.8" textLength="12.2" clip-path="url(#terminal-1525660398-line-2)">│</text><text class="terminal-1525660398-r2" x="915" y="68.8" textLength="12.2" clip-path="url(#terminal-1525660398-line-2)">│</text><text class="terminal-1525660398-r1" x="951.6" y="68.8" textLength="12.2" clip-path="url(#terminal-1525660398-line-2)">
</text><text class="terminal-1525660398-r2" x="24.4" y="93.2" textLength="12.2" clip-path="url(#terminal-1525660398-line-3)">│</text><text class="terminal-1525660398-r3" x="61" y="93.2" textLength="85.4" clip-path="url(#terminal-1525660398-line-3)">textual</text><text class="terminal-1525660398-r4" x="146.4" y="93.2" textLength="97.6" clip-path="url(#terminal-1525660398-line-3)">&#160;&#160;v0.1.0</text><text class="terminal-1525660398-r6" x="817.4" y="93.2" textLength="24.4" clip-path="url(#terminal-1525660398-line-3)">●&#160;</text><text class="terminal-1525660398-r7" x="841.8" y="93.2" textLength="48.8" clip-path="url(#terminal-1525660398-line-3)">beta</text><text class="terminal-1525660398-r2" x="915" y="93.2" textLength="12.2" clip-path="url(#terminal-1525660398-line-3)">│</text><text class="terminal-1525660398-r1" x="951.6" y="93.2" textLength="12.2" clip-path="url(#terminal-1525660398-line-3)">
</text><text class="terminal-1525660398-r2" x="24.4" y="117.6" textLength="12.2" clip-path="url(#terminal-1525660398-line-4)">│</text><text class="terminal-1525660398-r8" x="61" y="117.6" textLength="805.2" clip-path="url(#terminal-1525660398-line-4)">Build&#160;and&#160;debug&#160;Python&#160;TUIs&#160;with&#160;Textual&#160;8.x&#160;—&#160;App/Screen/Widget,&#160;</text><text class="terminal-1525660398-r2" x="915" y="117.6" textLength="12.2" clip-path="url(#terminal-1525660398-line-4)">│</text><text class="terminal-1525660398-r1" x="951.6" y="117.6" textLength="12.2" clip-path="url(#terminal-1525660398-line-4)">
</text><text class="terminal-1525660398-r2" x="24.4" y="142" textLength="12.2" clip-path="url(#terminal-1525660398-line-5)">│</text><text class="terminal-1525660398-r8" x="61" y="142" textLength="805.2" clip-path="url(#terminal-1525660398-line-5)">reactive&#160;attributes,&#160;TCSS&#160;layout,&#160;@work&#160;workers,&#160;Pilot&#160;tests,&#160;and&#160;</text><text class="terminal-1525660398-r2" x="915" y="142" textLength="12.2" clip-path="url(#terminal-1525660398-line-5)">│</text><text class="terminal-1525660398-r1" x="951.6" y="142" textLength="12.2" clip-path="url(#terminal-1525660398-line-5)">
</text><text class="terminal-1525660398-r2" x="24.4" y="166.4" textLength="12.2" clip-path="url(#terminal-1525660398-line-6)">│</text><text class="terminal-1525660398-r8" x="61" y="166.4" textLength="170.8" clip-path="url(#terminal-1525660398-line-6)">textual&#160;serve.</text><text class="terminal-1525660398-r2" x="915" y="166.4" textLength="12.2" clip-path="url(#terminal-1525660398-line-6)">│</text><text class="terminal-1525660398-r1" x="951.6" y="166.4" textLength="12.2" clip-path="url(#terminal-1525660398-line-6)">
</text><text class="terminal-1525660398-r2" x="24.4" y="190.8" textLength="12.2" clip-path="url(#terminal-1525660398-line-7)">│</text><text class="terminal-1525660398-r2" x="915" y="190.8" textLength="12.2" clip-path="url(#terminal-1525660398-line-7)">│</text><text class="terminal-1525660398-r1" x="951.6" y="190.8" textLength="12.2" clip-path="url(#terminal-1525660398-line-7)">
</text><text class="terminal-1525660398-r2" x="24.4" y="215.2" textLength="12.2" clip-path="url(#terminal-1525660398-line-8)">│</text><text class="terminal-1525660398-r9" x="61" y="215.2" textLength="134.2" clip-path="url(#terminal-1525660398-line-8)">WHEN&#160;TO&#160;USE</text><text class="terminal-1525660398-r2" x="915" y="215.2" textLength="12.2" clip-path="url(#terminal-1525660398-line-8)">│</text><text class="terminal-1525660398-r1" x="951.6" y="215.2" textLength="12.2" clip-path="url(#terminal-1525660398-line-8)">
</text><text class="terminal-1525660398-r2" x="24.4" y="239.6" textLength="12.2" clip-path="url(#terminal-1525660398-line-9)">│</text><text class="terminal-1525660398-r4" x="61" y="239.6" textLength="793" clip-path="url(#terminal-1525660398-line-9)">&#160;&#160;Use&#160;this&#160;skill&#160;when&#160;building&#160;or&#160;debugging&#160;a&#160;Python&#160;terminal&#160;UI&#160;</text><text class="terminal-1525660398-r2" x="915" y="239.6" textLength="12.2" clip-path="url(#terminal-1525660398-line-9)">│</text><text class="terminal-1525660398-r1" x="951.6" y="239.6" textLength="12.2" clip-path="url(#terminal-1525660398-line-9)">
</text><text class="terminal-1525660398-r2" x="24.4" y="264" textLength="12.2" clip-path="url(#terminal-1525660398-line-10)">│</text><text class="terminal-1525660398-r4" x="61" y="264" textLength="561.2" clip-path="url(#terminal-1525660398-line-10)">(TUI)&#160;with&#160;Textual&#160;(Textualize&#x27;s&#160;framework)&#160;—&#160;</text><text class="terminal-1525660398-r2" x="915" y="264" textLength="12.2" clip-path="url(#terminal-1525660398-line-10)">│</text><text class="terminal-1525660398-r1" x="951.6" y="264" textLength="12.2" clip-path="url(#terminal-1525660398-line-10)">
</text><text class="terminal-1525660398-r2" x="24.4" y="288.4" textLength="12.2" clip-path="url(#terminal-1525660398-line-11)">│</text><text class="terminal-1525660398-r4" x="61" y="288.4" textLength="817.4" clip-path="url(#terminal-1525660398-line-11)">`App`/`Screen`/`Widget`,&#160;`compose()`,&#160;`reactive`/`watch_`,&#160;`@work`&#160;</text><text class="terminal-1525660398-r2" x="915" y="288.4" textLength="12.2" clip-path="url(#terminal-1525660398-line-11)">│</text><text class="terminal-1525660398-r1" x="951.6" y="288.4" textLength="12.2" clip-path="url(#terminal-1525660398-line-11)">
</text><text class="terminal-1525660398-r2" x="24.4" y="312.8" textLength="12.2" clip-path="url(#terminal-1525660398-line-12)">│</text><text class="terminal-1525660398-r4" x="61" y="312.8" textLength="793" clip-path="url(#terminal-1525660398-line-12)">workers,&#160;Textual&#160;CSS&#160;/&#160;TCSS&#160;(`dock`,&#160;`grid`,&#160;`fr`&#160;units),&#160;widget…</text><text class="terminal-1525660398-r2" x="915" y="312.8" textLength="12.2" clip-path="url(#terminal-1525660398-line-12)">│</text><text class="terminal-1525660398-r1" x="951.6" y="312.8" textLength="12.2" clip-path="url(#terminal-1525660398-line-12)">
</text><text class="terminal-1525660398-r2" x="24.4" y="337.2" textLength="12.2" clip-path="url(#terminal-1525660398-line-13)">│</text><text class="terminal-1525660398-r2" x="915" y="337.2" textLength="12.2" clip-path="url(#terminal-1525660398-line-13)">│</text><text class="terminal-1525660398-r1" x="951.6" y="337.2" textLength="12.2" clip-path="url(#terminal-1525660398-line-13)">
</text><text class="terminal-1525660398-r2" x="24.4" y="361.6" textLength="12.2" clip-path="url(#terminal-1525660398-line-14)">│</text><text class="terminal-1525660398-r9" x="61" y="361.6" textLength="73.2" clip-path="url(#terminal-1525660398-line-14)">OUTPUT</text><text class="terminal-1525660398-r2" x="915" y="361.6" textLength="12.2" clip-path="url(#terminal-1525660398-line-14)">│</text><text class="terminal-1525660398-r1" x="951.6" y="361.6" textLength="12.2" clip-path="url(#terminal-1525660398-line-14)">
</text><text class="terminal-1525660398-r2" x="24.4" y="386" textLength="12.2" clip-path="url(#terminal-1525660398-line-15)">│</text><text class="terminal-1525660398-r5" x="61" y="386" textLength="207.4" clip-path="url(#terminal-1525660398-line-15)">&#160;&#160;Type&#160;&#160;&#160;&#160;&#160;&#160;&#160;&#160;&#160;&#160;&#160;</text><text class="terminal-1525660398-r7" x="268.4" y="386" textLength="622.2" clip-path="url(#terminal-1525660398-line-15)">Code&#160;&#160;&#160;&#160;&#160;&#160;&#160;&#160;&#160;&#160;&#160;&#160;&#160;&#160;&#160;&#160;&#160;&#160;&#160;&#160;&#160;&#160;&#160;&#160;&#160;&#160;&#160;&#160;&#160;&#160;&#160;&#160;&#160;&#160;&#160;&#160;&#160;&#160;&#160;&#160;&#160;&#160;&#160;&#160;&#160;&#160;&#160;</text><text class="terminal-1525660398-r2" x="915" y="386" textLength="12.2" clip-path="url(#terminal-1525660398-line-15)">│</text><text class="terminal-1525660398-r1" x="951.6" y="386" textLength="12.2" clip-path="url(#terminal-1525660398-line-15)">
</text><text class="terminal-1525660398-r2" x="24.4" y="410.4" textLength="12.2" clip-path="url(#terminal-1525660398-line-16)">│</text><text class="terminal-1525660398-r5" x="61" y="410.4" textLength="207.4" clip-path="url(#terminal-1525660398-line-16)">&#160;&#160;Format&#160;&#160;&#160;&#160;&#160;&#160;&#160;&#160;&#160;</text><text class="terminal-1525660398-r7" x="268.4" y="410.4" textLength="622.2" clip-path="url(#terminal-1525660398-line-16)">Markdown&#160;with&#160;Python&#160;+&#160;TCSS&#160;code&#160;blocks&#160;&#160;&#160;&#160;&#160;&#160;&#160;&#160;&#160;&#160;&#160;&#160;</text><text class="terminal-1525660398-r2" x="915" y="410.4" textLength="12.2" clip-path="url(#terminal-1525660398-line-16)">│</text><text class="terminal-1525660398-r1" x="951.6" y="410.4" textLength="12.2" clip-path="url(#terminal-1525660398-line-16)">
</text><text class="terminal-1525660398-r2" x="24.4" y="434.8" textLength="12.2" clip-path="url(#terminal-1525660398-line-17)">│</text><text class="terminal-1525660398-r2" x="915" y="434.8" textLength="12.2" clip-path="url(#terminal-1525660398-line-17)">│</text><text class="terminal-1525660398-r1" x="951.6" y="434.8" textLength="12.2" clip-path="url(#terminal-1525660398-line-17)">
</text><text class="terminal-1525660398-r2" x="24.4" y="459.2" textLength="12.2" clip-path="url(#terminal-1525660398-line-18)">│</text><text class="terminal-1525660398-r9" x="61" y="459.2" textLength="146.4" clip-path="url(#terminal-1525660398-line-18)">DEPENDENCIES</text><text class="terminal-1525660398-r2" x="915" y="459.2" textLength="12.2" clip-path="url(#terminal-1525660398-line-18)">│</text><text class="terminal-1525660398-r1" x="951.6" y="459.2" textLength="12.2" clip-path="url(#terminal-1525660398-line-18)">
</text><text class="terminal-1525660398-r2" x="24.4" y="483.6" textLength="12.2" clip-path="url(#terminal-1525660398-line-19)">│</text><text class="terminal-1525660398-r7" x="61" y="483.6" textLength="207.4" clip-path="url(#terminal-1525660398-line-19)">&#160;&#160;textual&gt;=8.2,&lt;9</text><text class="terminal-1525660398-r2" x="915" y="483.6" textLength="12.2" clip-path="url(#terminal-1525660398-line-19)">│</text><text class="terminal-1525660398-r1" x="951.6" y="483.6" textLength="12.2" clip-path="url(#terminal-1525660398-line-19)">
</text><text class="terminal-1525660398-r2" x="24.4" y="508" textLength="12.2" clip-path="url(#terminal-1525660398-line-20)">│</text><text class="terminal-1525660398-r7" x="61" y="508" textLength="146.4" clip-path="url(#terminal-1525660398-line-20)">&#160;&#160;rich&gt;=15.0</text><text class="terminal-1525660398-r2" x="915" y="508" textLength="12.2" clip-path="url(#terminal-1525660398-line-20)">│</text><text class="terminal-1525660398-r1" x="951.6" y="508" textLength="12.2" clip-path="url(#terminal-1525660398-line-20)">
</text><text class="terminal-1525660398-r2" x="24.4" y="532.4" textLength="12.2" clip-path="url(#terminal-1525660398-line-21)">│</text><text class="terminal-1525660398-r7" x="61" y="532.4" textLength="158.6" clip-path="url(#terminal-1525660398-line-21)">&#160;&#160;python&gt;=3.9</text><text class="terminal-1525660398-r2" x="915" y="532.4" textLength="12.2" clip-path="url(#terminal-1525660398-line-21)">│</text><text class="terminal-1525660398-r1" x="951.6" y="532.4" textLength="12.2" clip-path="url(#terminal-1525660398-line-21)">
</text><text class="terminal-1525660398-r2" x="24.4" y="556.8" textLength="12.2" clip-path="url(#terminal-1525660398-line-22)">│</text><text class="terminal-1525660398-r2" x="915" y="556.8" textLength="12.2" clip-path="url(#terminal-1525660398-line-22)">│</text><text class="terminal-1525660398-r1" x="951.6" y="556.8" textLength="12.2" clip-path="url(#terminal-1525660398-line-22)">
</text><text class="terminal-1525660398-r2" x="24.4" y="581.2" textLength="12.2" clip-path="url(#terminal-1525660398-line-23)">│</text><text class="terminal-1525660398-r9" x="61" y="581.2" textLength="85.4" clip-path="url(#terminal-1525660398-line-23)">QUALITY</text><text class="terminal-1525660398-r2" x="915" y="581.2" textLength="12.2" clip-path="url(#terminal-1525660398-line-23)">│</text><text class="terminal-1525660398-r1" x="951.6" y="581.2" textLength="12.2" clip-path="url(#terminal-1525660398-line-23)">
</text><text class="terminal-1525660398-r2" x="24.4" y="605.6" textLength="12.2" clip-path="url(#terminal-1525660398-line-24)">│</text><text class="terminal-1525660398-r10" x="61" y="605.6" textLength="305" clip-path="url(#terminal-1525660398-line-24)">&#160;&#160;not&#160;yet&#160;measured&#160;—&#160;beta</text><text class="terminal-1525660398-r2" x="915" y="605.6" textLength="12.2" clip-path="url(#terminal-1525660398-line-24)">│</text><text class="terminal-1525660398-r1" x="951.6" y="605.6" textLength="12.2" clip-path="url(#terminal-1525660398-line-24)">
</text><text class="terminal-1525660398-r2" x="24.4" y="630" textLength="12.2" clip-path="url(#terminal-1525660398-line-25)">│</text><text class="terminal-1525660398-r2" x="915" y="630" textLength="12.2" clip-path="url(#terminal-1525660398-line-25)">│</text><text class="terminal-1525660398-r1" x="951.6" y="630" textLength="12.2" clip-path="url(#terminal-1525660398-line-25)">
</text><text class="terminal-1525660398-r2" x="24.4" y="654.4" textLength="12.2" clip-path="url(#terminal-1525660398-line-26)">│</text><text class="terminal-1525660398-r9" x="61" y="654.4" textLength="97.6" clip-path="url(#terminal-1525660398-line-26)">SECURITY</text><text class="terminal-1525660398-r2" x="915" y="654.4" textLength="12.2" clip-path="url(#terminal-1525660398-line-26)">│</text><text class="terminal-1525660398-r1" x="951.6" y="654.4" textLength="12.2" clip-path="url(#terminal-1525660398-line-26)">
</text><text class="terminal-1525660398-r2" x="24.4" y="678.8" textLength="12.2" clip-path="url(#terminal-1525660398-line-27)">│</text><text class="terminal-1525660398-r5" x="61" y="678.8" textLength="549" clip-path="url(#terminal-1525660398-line-27)">&#160;&#160;SkillSpector&#160;&#160;&#160;&#160;&#160;&#160;&#160;&#160;&#160;&#160;&#160;&#160;&#160;&#160;&#160;&#160;&#160;&#160;&#160;&#160;&#160;&#160;&#160;&#160;&#160;&#160;&#160;&#160;&#160;&#160;&#160;</text><text class="terminal-1525660398-r11" x="610" y="678.8" textLength="280.6" clip-path="url(#terminal-1525660398-line-27)">0&#160;/&#160;LOW&#160;&#160;&#160;&#160;&#160;&#160;&#160;&#160;&#160;&#160;&#160;&#160;&#160;&#160;&#160;&#160;</text><text class="terminal-1525660398-r2" x="915" y="678.8" textLength="12.2" clip-path="url(#terminal-1525660398-line-27)">│</text><text class="terminal-1525660398-r1" x="951.6" y="678.8" textLength="12.2" clip-path="url(#terminal-1525660398-line-27)">
</text><text class="terminal-1525660398-r2" x="24.4" y="703.2" textLength="12.2" clip-path="url(#terminal-1525660398-line-28)">│</text><text class="terminal-1525660398-r2" x="915" y="703.2" textLength="12.2" clip-path="url(#terminal-1525660398-line-28)">│</text><text class="terminal-1525660398-r1" x="951.6" y="703.2" textLength="12.2" clip-path="url(#terminal-1525660398-line-28)">
</text><text class="terminal-1525660398-r2" x="24.4" y="727.6" textLength="12.2" clip-path="url(#terminal-1525660398-line-29)">│</text><text class="terminal-1525660398-r4" x="61" y="727.6" textLength="756.4" clip-path="url(#terminal-1525660398-line-29)">scan&#160;&#160;skillspector@a5092dd9b9521ff57a9b53612bb129ce78019002&#160;·&#160;</text><text class="terminal-1525660398-r2" x="915" y="727.6" textLength="12.2" clip-path="url(#terminal-1525660398-line-29)">│</text><text class="terminal-1525660398-r1" x="951.6" y="727.6" textLength="12.2" clip-path="url(#terminal-1525660398-line-29)">
</text><text class="terminal-1525660398-r2" x="24.4" y="752" textLength="12.2" clip-path="url(#terminal-1525660398-line-30)">│</text><text class="terminal-1525660398-r4" x="61" y="752" textLength="122" clip-path="url(#terminal-1525660398-line-30)">2026-06-20</text><text class="terminal-1525660398-r2" x="915" y="752" textLength="12.2" clip-path="url(#terminal-1525660398-line-30)">│</text><text class="terminal-1525660398-r1" x="951.6" y="752" textLength="12.2" clip-path="url(#terminal-1525660398-line-30)">
</text><text class="terminal-1525660398-r2" x="24.4" y="776.4" textLength="12.2" clip-path="url(#terminal-1525660398-line-31)">│</text><text class="terminal-1525660398-r2" x="915" y="776.4" textLength="12.2" clip-path="url(#terminal-1525660398-line-31)">│</text><text class="terminal-1525660398-r1" x="951.6" y="776.4" textLength="12.2" clip-path="url(#terminal-1525660398-line-31)">
</text><text class="terminal-1525660398-r2" x="24.4" y="800.8" textLength="12.2" clip-path="url(#terminal-1525660398-line-32)">╰</text><text class="terminal-1525660398-r2" x="36.6" y="800.8" textLength="878.4" clip-path="url(#terminal-1525660398-line-32)">────────────────────────────────────────────────────────────────────────</text><text class="terminal-1525660398-r2" x="915" y="800.8" textLength="12.2" clip-path="url(#terminal-1525660398-line-32)">╯</text><text class="terminal-1525660398-r1" x="951.6" y="800.8" textLength="12.2" clip-path="url(#terminal-1525660398-line-32)">
</text>
    </g>
    </g>
</svg>
