<svg class="skill-scorecard" viewBox="0 0 804.1999999999999 438.2" xmlns="http://www.w3.org/2000/svg">
    <style>
    @font-face {
        font-family: "Fira Code";
        src: local("FiraCode-Regular"),
                url("https://cdnjs.cloudflare.com/ajax/libs/firacode/6.2.0/woff2/FiraCode-Regular.woff2") format("woff2"),
                url("https://cdnjs.cloudflare.com/ajax/libs/firacode/6.2.0/woff/FiraCode-Regular.woff") format("woff");
        font-style: normal;
        font-weight: 400;
    }
    @font-face {
        font-family: "Fira Code";
        src: local("FiraCode-Bold"),
                url("https://cdnjs.cloudflare.com/ajax/libs/firacode/6.2.0/woff2/FiraCode-Bold.woff2") format("woff2"),
                url("https://cdnjs.cloudflare.com/ajax/libs/firacode/6.2.0/woff/FiraCode-Bold.woff") format("woff");
        font-style: bold;
        font-weight: 700;
    }
    .terminal-2596907752-matrix {
        font-family: Fira Code, monospace;
        font-size: 20px;
        line-height: 24.4px;
        font-variant-east-asian: full-width;
    }
    .terminal-2596907752-r1 { fill: #c5c8c6 }
.terminal-2596907752-r2 { fill: #00ffff }
.terminal-2596907752-r3 { fill: #c4c5b5;font-weight: bold }
.terminal-2596907752-r4 { fill: #9e9e9e }
.terminal-2596907752-r5 { fill: #e0e0e0 }
.terminal-2596907752-r6 { fill: #fd971f }
.terminal-2596907752-r7 { fill: #c4c5b5 }
.terminal-2596907752-r8 { fill: #9e9e9e;font-style: italic; }
.terminal-2596907752-r9 { fill: #58d1eb;font-weight: bold }
    </style>
    <defs>
    <clipPath id="terminal-2596907752-clip-terminal">
      <rect x="0" y="0" width="804.1999999999999" height="438.2" />
    </clipPath>
    <clipPath id="terminal-2596907752-line-0">
    <rect x="0" y="1.5" width="805.2" height="24.65"/>
            </clipPath>
<clipPath id="terminal-2596907752-line-1">
    <rect x="0" y="25.9" width="805.2" height="24.65"/>
            </clipPath>
<clipPath id="terminal-2596907752-line-2">
    <rect x="0" y="50.3" width="805.2" height="24.65"/>
            </clipPath>
<clipPath id="terminal-2596907752-line-3">
    <rect x="0" y="74.7" width="805.2" height="24.65"/>
            </clipPath>
<clipPath id="terminal-2596907752-line-4">
    <rect x="0" y="99.1" width="805.2" height="24.65"/>
            </clipPath>
<clipPath id="terminal-2596907752-line-5">
    <rect x="0" y="123.5" width="805.2" height="24.65"/>
            </clipPath>
<clipPath id="terminal-2596907752-line-6">
    <rect x="0" y="147.9" width="805.2" height="24.65"/>
            </clipPath>
<clipPath id="terminal-2596907752-line-7">
    <rect x="0" y="172.3" width="805.2" height="24.65"/>
            </clipPath>
<clipPath id="terminal-2596907752-line-8">
    <rect x="0" y="196.7" width="805.2" height="24.65"/>
            </clipPath>
<clipPath id="terminal-2596907752-line-9">
    <rect x="0" y="221.1" width="805.2" height="24.65"/>
            </clipPath>
<clipPath id="terminal-2596907752-line-10">
    <rect x="0" y="245.5" width="805.2" height="24.65"/>
            </clipPath>
<clipPath id="terminal-2596907752-line-11">
    <rect x="0" y="269.9" width="805.2" height="24.65"/>
            </clipPath>
<clipPath id="terminal-2596907752-line-12">
    <rect x="0" y="294.3" width="805.2" height="24.65"/>
            </clipPath>
<clipPath id="terminal-2596907752-line-13">
    <rect x="0" y="318.7" width="805.2" height="24.65"/>
            </clipPath>
<clipPath id="terminal-2596907752-line-14">
    <rect x="0" y="343.1" width="805.2" height="24.65"/>
            </clipPath>
<clipPath id="terminal-2596907752-line-15">
    <rect x="0" y="367.5" width="805.2" height="24.65"/>
            </clipPath>
<clipPath id="terminal-2596907752-line-16">
    <rect x="0" y="391.9" width="805.2" height="24.65"/>
            </clipPath>
    </defs>
    <g clip-path="url(#terminal-2596907752-clip-terminal)">
    <rect fill="#121212" x="0" y="1.5" width="805.2" height="24.65" shape-rendering="crispEdges"/><rect fill="#121212" x="0" y="25.9" width="12.2" height="24.65" shape-rendering="crispEdges"/><rect fill="#1e1e1e" x="12.2" y="25.9" width="12.2" height="24.65" shape-rendering="crispEdges"/><rect fill="#1e1e1e" x="24.4" y="25.9" width="12.2" height="24.65" shape-rendering="crispEdges"/><rect fill="#1e1e1e" x="36.6" y="25.9" width="207.4" height="24.65" shape-rendering="crispEdges"/><rect fill="#1e1e1e" x="244" y="25.9" width="536.8" height="24.65" shape-rendering="crispEdges"/><rect fill="#1e1e1e" x="780.8" y="25.9" width="12.2" height="24.65" shape-rendering="crispEdges"/><rect fill="#121212" x="793" y="25.9" width="12.2" height="24.65" shape-rendering="crispEdges"/><rect fill="#121212" x="0" y="50.3" width="12.2" height="24.65" shape-rendering="crispEdges"/><rect fill="#1e1e1e" x="12.2" y="50.3" width="12.2" height="24.65" shape-rendering="crispEdges"/><rect fill="#1e1e1e" x="24.4" y="50.3" width="12.2" height="24.65" shape-rendering="crispEdges"/><rect fill="#1e1e1e" x="36.6" y="50.3" width="170.8" height="24.65" shape-rendering="crispEdges"/><rect fill="#1e1e1e" x="207.4" y="50.3" width="97.6" height="24.65" shape-rendering="crispEdges"/><rect fill="#1e1e1e" x="305" y="50.3" width="317.2" height="24.65" shape-rendering="crispEdges"/><rect fill="#1e1e1e" x="622.2" y="50.3" width="73.2" height="24.65" shape-rendering="crispEdges"/><rect fill="#1e1e1e" x="695.4" y="50.3" width="24.4" height="24.65" shape-rendering="crispEdges"/><rect fill="#1e1e1e" x="719.8" y="50.3" width="48.8" height="24.65" shape-rendering="crispEdges"/><rect fill="#1e1e1e" x="768.6" y="50.3" width="12.2" height="24.65" shape-rendering="crispEdges"/><rect fill="#1e1e1e" x="780.8" y="50.3" width="12.2" height="24.65" shape-rendering="crispEdges"/><rect fill="#121212" x="793" y="50.3" width="12.2" height="24.65" shape-rendering="crispEdges"/><rect fill="#121212" x="0" y="74.7" width="12.2" height="24.65" shape-rendering="crispEdges"/><rect fill="#1e1e1e" x="12.2" y="74.7" width="12.2" height="24.65" shape-rendering="crispEdges"/><rect fill="#1e1e1e" x="24.4" y="74.7" width="12.2" height="24.65" shape-rendering="crispEdges"/><rect fill="#1e1e1e" x="36.6" y="74.7" width="695.4" height="24.65" shape-rendering="crispEdges"/><rect fill="#1e1e1e" x="732" y="74.7" width="36.6" height="24.65" shape-rendering="crispEdges"/><rect fill="#1e1e1e" x="768.6" y="74.7" width="12.2" height="24.65" shape-rendering="crispEdges"/><rect fill="#1e1e1e" x="780.8" y="74.7" width="12.2" height="24.65" shape-rendering="crispEdges"/><rect fill="#121212" x="793" y="74.7" width="12.2" height="24.65" shape-rendering="crispEdges"/><rect fill="#121212" x="0" y="99.1" width="12.2" height="24.65" shape-rendering="crispEdges"/><rect fill="#1e1e1e" x="12.2" y="99.1" width="12.2" height="24.65" shape-rendering="crispEdges"/><rect fill="#1e1e1e" x="24.4" y="99.1" width="12.2" height="24.65" shape-rendering="crispEdges"/><rect fill="#1e1e1e" x="36.6" y="99.1" width="695.4" height="24.65" shape-rendering="crispEdges"/><rect fill="#1e1e1e" x="732" y="99.1" width="36.6" height="24.65" shape-rendering="crispEdges"/><rect fill="#1e1e1e" x="768.6" y="99.1" width="12.2" height="24.65" shape-rendering="crispEdges"/><rect fill="#1e1e1e" x="780.8" y="99.1" width="12.2" height="24.65" shape-rendering="crispEdges"/><rect fill="#121212" x="793" y="99.1" width="12.2" height="24.65" shape-rendering="crispEdges"/><rect fill="#121212" x="0" y="123.5" width="12.2" height="24.65" shape-rendering="crispEdges"/><rect fill="#1e1e1e" x="12.2" y="123.5" width="12.2" height="24.65" shape-rendering="crispEdges"/><rect fill="#1e1e1e" x="24.4" y="123.5" width="12.2" height="24.65" shape-rendering="crispEdges"/><rect fill="#1e1e1e" x="36.6" y="123.5" width="707.6" height="24.65" shape-rendering="crispEdges"/><rect fill="#1e1e1e" x="744.2" y="123.5" width="24.4" height="24.65" shape-rendering="crispEdges"/><rect fill="#1e1e1e" x="768.6" y="123.5" width="12.2" height="24.65" shape-rendering="crispEdges"/><rect fill="#1e1e1e" x="780.8" y="123.5" width="12.2" height="24.65" shape-rendering="crispEdges"/><rect fill="#121212" x="793" y="123.5" width="12.2" height="24.65" shape-rendering="crispEdges"/><rect fill="#121212" x="0" y="147.9" width="12.2" height="24.65" shape-rendering="crispEdges"/><rect fill="#1e1e1e" x="12.2" y="147.9" width="12.2" height="24.65" shape-rendering="crispEdges"/><rect fill="#1e1e1e" x="24.4" y="147.9" width="12.2" height="24.65" shape-rendering="crispEdges"/><rect fill="#1e1e1e" x="36.6" y="147.9" width="695.4" height="24.65" shape-rendering="crispEdges"/><rect fill="#1e1e1e" x="732" y="147.9" width="36.6" height="24.65" shape-rendering="crispEdges"/><rect fill="#1e1e1e" x="768.6" y="147.9" width="12.2" height="24.65" shape-rendering="crispEdges"/><rect fill="#1e1e1e" x="780.8" y="147.9" width="12.2" height="24.65" shape-rendering="crispEdges"/><rect fill="#121212" x="793" y="147.9" width="12.2" height="24.65" shape-rendering="crispEdges"/><rect fill="#121212" x="0" y="172.3" width="12.2" height="24.65" shape-rendering="crispEdges"/><rect fill="#1e1e1e" x="12.2" y="172.3" width="12.2" height="24.65" shape-rendering="crispEdges"/><rect fill="#1e1e1e" x="24.4" y="172.3" width="12.2" height="24.65" shape-rendering="crispEdges"/><rect fill="#1e1e1e" x="36.6" y="172.3" width="0" height="24.65" shape-rendering="crispEdges"/><rect fill="#1e1e1e" x="36.6" y="172.3" width="732" height="24.65" shape-rendering="crispEdges"/><rect fill="#1e1e1e" x="768.6" y="172.3" width="12.2" height="24.65" shape-rendering="crispEdges"/><rect fill="#1e1e1e" x="780.8" y="172.3" width="12.2" height="24.65" shape-rendering="crispEdges"/><rect fill="#121212" x="793" y="172.3" width="12.2" height="24.65" shape-rendering="crispEdges"/><rect fill="#121212" x="0" y="196.7" width="12.2" height="24.65" shape-rendering="crispEdges"/><rect fill="#1e1e1e" x="12.2" y="196.7" width="12.2" height="24.65" shape-rendering="crispEdges"/><rect fill="#1e1e1e" x="24.4" y="196.7" width="12.2" height="24.65" shape-rendering="crispEdges"/><rect fill="#1e1e1e" x="36.6" y="196.7" width="85.4" height="24.65" shape-rendering="crispEdges"/><rect fill="#1e1e1e" x="122" y="196.7" width="646.6" height="24.65" shape-rendering="crispEdges"/><rect fill="#1e1e1e" x="768.6" y="196.7" width="12.2" height="24.65" shape-rendering="crispEdges"/><rect fill="#1e1e1e" x="780.8" y="196.7" width="12.2" height="24.65" shape-rendering="crispEdges"/><rect fill="#121212" x="793" y="196.7" width="12.2" height="24.65" shape-rendering="crispEdges"/><rect fill="#121212" x="0" y="221.1" width="12.2" height="24.65" shape-rendering="crispEdges"/><rect fill="#1e1e1e" x="12.2" y="221.1" width="12.2" height="24.65" shape-rendering="crispEdges"/><rect fill="#1e1e1e" x="24.4" y="221.1" width="12.2" height="24.65" shape-rendering="crispEdges"/><rect fill="#1e1e1e" x="36.6" y="221.1" width="305" height="24.65" shape-rendering="crispEdges"/><rect fill="#1e1e1e" x="341.6" y="221.1" width="427" height="24.65" shape-rendering="crispEdges"/><rect fill="#1e1e1e" x="768.6" y="221.1" width="12.2" height="24.65" shape-rendering="crispEdges"/><rect fill="#1e1e1e" x="780.8" y="221.1" width="12.2" height="24.65" shape-rendering="crispEdges"/><rect fill="#121212" x="793" y="221.1" width="12.2" height="24.65" shape-rendering="crispEdges"/><rect fill="#121212" x="0" y="245.5" width="12.2" height="24.65" shape-rendering="crispEdges"/><rect fill="#1e1e1e" x="12.2" y="245.5" width="12.2" height="24.65" shape-rendering="crispEdges"/><rect fill="#1e1e1e" x="24.4" y="245.5" width="12.2" height="24.65" shape-rendering="crispEdges"/><rect fill="#1e1e1e" x="36.6" y="245.5" width="0" height="24.65" shape-rendering="crispEdges"/><rect fill="#1e1e1e" x="36.6" y="245.5" width="732" height="24.65" shape-rendering="crispEdges"/><rect fill="#1e1e1e" x="768.6" y="245.5" width="12.2" height="24.65" shape-rendering="crispEdges"/><rect fill="#1e1e1e" x="780.8" y="245.5" width="12.2" height="24.65" shape-rendering="crispEdges"/><rect fill="#121212" x="793" y="245.5" width="12.2" height="24.65" shape-rendering="crispEdges"/><rect fill="#121212" x="0" y="269.9" width="12.2" height="24.65" shape-rendering="crispEdges"/><rect fill="#1e1e1e" x="12.2" y="269.9" width="12.2" height="24.65" shape-rendering="crispEdges"/><rect fill="#1e1e1e" x="24.4" y="269.9" width="12.2" height="24.65" shape-rendering="crispEdges"/><rect fill="#1e1e1e" x="36.6" y="269.9" width="97.6" height="24.65" shape-rendering="crispEdges"/><rect fill="#1e1e1e" x="134.2" y="269.9" width="634.4" height="24.65" shape-rendering="crispEdges"/><rect fill="#1e1e1e" x="768.6" y="269.9" width="12.2" height="24.65" shape-rendering="crispEdges"/><rect fill="#1e1e1e" x="780.8" y="269.9" width="12.2" height="24.65" shape-rendering="crispEdges"/><rect fill="#121212" x="793" y="269.9" width="12.2" height="24.65" shape-rendering="crispEdges"/><rect fill="#121212" x="0" y="294.3" width="12.2" height="24.65" shape-rendering="crispEdges"/><rect fill="#1e1e1e" x="12.2" y="294.3" width="12.2" height="24.65" shape-rendering="crispEdges"/><rect fill="#1e1e1e" x="24.4" y="294.3" width="12.2" height="24.65" shape-rendering="crispEdges"/><rect fill="#1e1e1e" x="36.6" y="294.3" width="402.6" height="24.65" shape-rendering="crispEdges"/><rect fill="#1e1e1e" x="439.2" y="294.3" width="329.4" height="24.65" shape-rendering="crispEdges"/><rect fill="#1e1e1e" x="768.6" y="294.3" width="12.2" height="24.65" shape-rendering="crispEdges"/><rect fill="#1e1e1e" x="780.8" y="294.3" width="12.2" height="24.65" shape-rendering="crispEdges"/><rect fill="#121212" x="793" y="294.3" width="12.2" height="24.65" shape-rendering="crispEdges"/><rect fill="#121212" x="0" y="318.7" width="12.2" height="24.65" shape-rendering="crispEdges"/><rect fill="#1e1e1e" x="12.2" y="318.7" width="12.2" height="24.65" shape-rendering="crispEdges"/><rect fill="#1e1e1e" x="24.4" y="318.7" width="12.2" height="24.65" shape-rendering="crispEdges"/><rect fill="#1e1e1e" x="36.6" y="318.7" width="0" height="24.65" shape-rendering="crispEdges"/><rect fill="#1e1e1e" x="36.6" y="318.7" width="732" height="24.65" shape-rendering="crispEdges"/><rect fill="#1e1e1e" x="768.6" y="318.7" width="12.2" height="24.65" shape-rendering="crispEdges"/><rect fill="#1e1e1e" x="780.8" y="318.7" width="12.2" height="24.65" shape-rendering="crispEdges"/><rect fill="#121212" x="793" y="318.7" width="12.2" height="24.65" shape-rendering="crispEdges"/><rect fill="#121212" x="0" y="343.1" width="12.2" height="24.65" shape-rendering="crispEdges"/><rect fill="#1e1e1e" x="12.2" y="343.1" width="12.2" height="24.65" shape-rendering="crispEdges"/><rect fill="#1e1e1e" x="24.4" y="343.1" width="12.2" height="24.65" shape-rendering="crispEdges"/><rect fill="#1e1e1e" x="36.6" y="343.1" width="732" height="24.65" shape-rendering="crispEdges"/><rect fill="#1e1e1e" x="768.6" y="343.1" width="12.2" height="24.65" shape-rendering="crispEdges"/><rect fill="#1e1e1e" x="780.8" y="343.1" width="12.2" height="24.65" shape-rendering="crispEdges"/><rect fill="#121212" x="793" y="343.1" width="12.2" height="24.65" shape-rendering="crispEdges"/><rect fill="#121212" x="0" y="367.5" width="12.2" height="24.65" shape-rendering="crispEdges"/><rect fill="#1e1e1e" x="12.2" y="367.5" width="12.2" height="24.65" shape-rendering="crispEdges"/><rect fill="#1e1e1e" x="24.4" y="367.5" width="12.2" height="24.65" shape-rendering="crispEdges"/><rect fill="#1e1e1e" x="36.6" y="367.5" width="146.4" height="24.65" shape-rendering="crispEdges"/><rect fill="#1e1e1e" x="183" y="367.5" width="585.6" height="24.65" shape-rendering="crispEdges"/><rect fill="#1e1e1e" x="768.6" y="367.5" width="12.2" height="24.65" shape-rendering="crispEdges"/><rect fill="#1e1e1e" x="780.8" y="367.5" width="12.2" height="24.65" shape-rendering="crispEdges"/><rect fill="#121212" x="793" y="367.5" width="12.2" height="24.65" shape-rendering="crispEdges"/><rect fill="#121212" x="0" y="391.9" width="12.2" height="24.65" shape-rendering="crispEdges"/><rect fill="#1e1e1e" x="12.2" y="391.9" width="12.2" height="24.65" shape-rendering="crispEdges"/><rect fill="#1e1e1e" x="24.4" y="391.9" width="756.4" height="24.65" shape-rendering="crispEdges"/><rect fill="#1e1e1e" x="780.8" y="391.9" width="12.2" height="24.65" shape-rendering="crispEdges"/><rect fill="#121212" x="793" y="391.9" width="12.2" height="24.65" shape-rendering="crispEdges"/><rect fill="#121212" x="0" y="416.3" width="805.2" height="24.65" shape-rendering="crispEdges"/>
    <g class="terminal-2596907752-matrix">
    <text class="terminal-2596907752-r1" x="805.2" y="20" textLength="12.2" clip-path="url(#terminal-2596907752-line-0)">
</text><text class="terminal-2596907752-r2" x="12.2" y="44.4" textLength="12.2" clip-path="url(#terminal-2596907752-line-1)">╭</text><text class="terminal-2596907752-r2" x="24.4" y="44.4" textLength="12.2" clip-path="url(#terminal-2596907752-line-1)">─</text><text class="terminal-2596907752-r2" x="36.6" y="44.4" textLength="207.4" clip-path="url(#terminal-2596907752-line-1)">&#160;SKILL&#160;SCORECARD&#160;</text><text class="terminal-2596907752-r2" x="244" y="44.4" textLength="536.8" clip-path="url(#terminal-2596907752-line-1)">────────────────────────────────────────────</text><text class="terminal-2596907752-r2" x="780.8" y="44.4" textLength="12.2" clip-path="url(#terminal-2596907752-line-1)">╮</text><text class="terminal-2596907752-r1" x="805.2" y="44.4" textLength="12.2" clip-path="url(#terminal-2596907752-line-1)">
</text><text class="terminal-2596907752-r2" x="12.2" y="68.8" textLength="12.2" clip-path="url(#terminal-2596907752-line-2)">│</text><text class="terminal-2596907752-r3" x="36.6" y="68.8" textLength="170.8" clip-path="url(#terminal-2596907752-line-2)">image-to-ascii</text><text class="terminal-2596907752-r4" x="207.4" y="68.8" textLength="97.6" clip-path="url(#terminal-2596907752-line-2)">&#160;&#160;v0.1.0</text><text class="terminal-2596907752-r6" x="695.4" y="68.8" textLength="24.4" clip-path="url(#terminal-2596907752-line-2)">●&#160;</text><text class="terminal-2596907752-r7" x="719.8" y="68.8" textLength="48.8" clip-path="url(#terminal-2596907752-line-2)">beta</text><text class="terminal-2596907752-r2" x="780.8" y="68.8" textLength="12.2" clip-path="url(#terminal-2596907752-line-2)">│</text><text class="terminal-2596907752-r1" x="805.2" y="68.8" textLength="12.2" clip-path="url(#terminal-2596907752-line-2)">
</text><text class="terminal-2596907752-r2" x="12.2" y="93.2" textLength="12.2" clip-path="url(#terminal-2596907752-line-3)">│</text><text class="terminal-2596907752-r8" x="36.6" y="93.2" textLength="695.4" clip-path="url(#terminal-2596907752-line-3)">Convert&#160;an&#160;image&#160;file&#160;to&#160;ASCII&#160;art&#160;from&#160;the&#160;command&#160;line&#160;</text><text class="terminal-2596907752-r2" x="780.8" y="93.2" textLength="12.2" clip-path="url(#terminal-2596907752-line-3)">│</text><text class="terminal-2596907752-r1" x="805.2" y="93.2" textLength="12.2" clip-path="url(#terminal-2596907752-line-3)">
</text><text class="terminal-2596907752-r2" x="12.2" y="117.6" textLength="12.2" clip-path="url(#terminal-2596907752-line-4)">│</text><text class="terminal-2596907752-r8" x="36.6" y="117.6" textLength="695.4" clip-path="url(#terminal-2596907752-line-4)">with&#160;shape-aware&#160;glyph&#160;matching&#160;(6D&#160;shape&#160;vectors,&#160;not&#160;a&#160;</text><text class="terminal-2596907752-r2" x="780.8" y="117.6" textLength="12.2" clip-path="url(#terminal-2596907752-line-4)">│</text><text class="terminal-2596907752-r1" x="805.2" y="117.6" textLength="12.2" clip-path="url(#terminal-2596907752-line-4)">
</text><text class="terminal-2596907752-r2" x="12.2" y="142" textLength="12.2" clip-path="url(#terminal-2596907752-line-5)">│</text><text class="terminal-2596907752-r8" x="36.6" y="142" textLength="707.6" clip-path="url(#terminal-2596907752-line-5)">brightness&#160;ramp),&#160;output&#160;as&#160;.txt&#160;or&#160;a&#160;rendered&#160;.png/.svg,&#160;</text><text class="terminal-2596907752-r2" x="780.8" y="142" textLength="12.2" clip-path="url(#terminal-2596907752-line-5)">│</text><text class="terminal-2596907752-r1" x="805.2" y="142" textLength="12.2" clip-path="url(#terminal-2596907752-line-5)">
</text><text class="terminal-2596907752-r2" x="12.2" y="166.4" textLength="12.2" clip-path="url(#terminal-2596907752-line-6)">│</text><text class="terminal-2596907752-r8" x="36.6" y="166.4" textLength="695.4" clip-path="url(#terminal-2596907752-line-6)">using&#160;a&#160;bundled&#160;monospace&#160;font&#160;for&#160;deterministic&#160;results.</text><text class="terminal-2596907752-r2" x="780.8" y="166.4" textLength="12.2" clip-path="url(#terminal-2596907752-line-6)">│</text><text class="terminal-2596907752-r1" x="805.2" y="166.4" textLength="12.2" clip-path="url(#terminal-2596907752-line-6)">
</text><text class="terminal-2596907752-r2" x="12.2" y="190.8" textLength="12.2" clip-path="url(#terminal-2596907752-line-7)">│</text><text class="terminal-2596907752-r2" x="780.8" y="190.8" textLength="12.2" clip-path="url(#terminal-2596907752-line-7)">│</text><text class="terminal-2596907752-r1" x="805.2" y="190.8" textLength="12.2" clip-path="url(#terminal-2596907752-line-7)">
</text><text class="terminal-2596907752-r2" x="12.2" y="215.2" textLength="12.2" clip-path="url(#terminal-2596907752-line-8)">│</text><text class="terminal-2596907752-r9" x="36.6" y="215.2" textLength="85.4" clip-path="url(#terminal-2596907752-line-8)">QUALITY</text><text class="terminal-2596907752-r2" x="780.8" y="215.2" textLength="12.2" clip-path="url(#terminal-2596907752-line-8)">│</text><text class="terminal-2596907752-r1" x="805.2" y="215.2" textLength="12.2" clip-path="url(#terminal-2596907752-line-8)">
</text><text class="terminal-2596907752-r2" x="12.2" y="239.6" textLength="12.2" clip-path="url(#terminal-2596907752-line-9)">│</text><text class="terminal-2596907752-r8" x="36.6" y="239.6" textLength="305" clip-path="url(#terminal-2596907752-line-9)">&#160;&#160;not&#160;yet&#160;measured&#160;—&#160;beta</text><text class="terminal-2596907752-r2" x="780.8" y="239.6" textLength="12.2" clip-path="url(#terminal-2596907752-line-9)">│</text><text class="terminal-2596907752-r1" x="805.2" y="239.6" textLength="12.2" clip-path="url(#terminal-2596907752-line-9)">
</text><text class="terminal-2596907752-r2" x="12.2" y="264" textLength="12.2" clip-path="url(#terminal-2596907752-line-10)">│</text><text class="terminal-2596907752-r2" x="780.8" y="264" textLength="12.2" clip-path="url(#terminal-2596907752-line-10)">│</text><text class="terminal-2596907752-r1" x="805.2" y="264" textLength="12.2" clip-path="url(#terminal-2596907752-line-10)">
</text><text class="terminal-2596907752-r2" x="12.2" y="288.4" textLength="12.2" clip-path="url(#terminal-2596907752-line-11)">│</text><text class="terminal-2596907752-r9" x="36.6" y="288.4" textLength="97.6" clip-path="url(#terminal-2596907752-line-11)">SECURITY</text><text class="terminal-2596907752-r2" x="780.8" y="288.4" textLength="12.2" clip-path="url(#terminal-2596907752-line-11)">│</text><text class="terminal-2596907752-r1" x="805.2" y="288.4" textLength="12.2" clip-path="url(#terminal-2596907752-line-11)">
</text><text class="terminal-2596907752-r2" x="12.2" y="312.8" textLength="12.2" clip-path="url(#terminal-2596907752-line-12)">│</text><text class="terminal-2596907752-r5" x="36.6" y="312.8" textLength="402.6" clip-path="url(#terminal-2596907752-line-12)">&#160;&#160;SkillSpector&#160;&#160;&#160;&#160;&#160;&#160;&#160;&#160;&#160;&#160;&#160;&#160;&#160;&#160;&#160;&#160;&#160;&#160;&#160;</text><text class="terminal-2596907752-r6" x="439.2" y="312.8" textLength="329.4" clip-path="url(#terminal-2596907752-line-12)">39&#160;/&#160;MEDIUM&#160;&#160;&#160;&#160;&#160;&#160;&#160;&#160;&#160;&#160;&#160;&#160;&#160;&#160;&#160;&#160;</text><text class="terminal-2596907752-r2" x="780.8" y="312.8" textLength="12.2" clip-path="url(#terminal-2596907752-line-12)">│</text><text class="terminal-2596907752-r1" x="805.2" y="312.8" textLength="12.2" clip-path="url(#terminal-2596907752-line-12)">
</text><text class="terminal-2596907752-r2" x="12.2" y="337.2" textLength="12.2" clip-path="url(#terminal-2596907752-line-13)">│</text><text class="terminal-2596907752-r2" x="780.8" y="337.2" textLength="12.2" clip-path="url(#terminal-2596907752-line-13)">│</text><text class="terminal-2596907752-r1" x="805.2" y="337.2" textLength="12.2" clip-path="url(#terminal-2596907752-line-13)">
</text><text class="terminal-2596907752-r2" x="12.2" y="361.6" textLength="12.2" clip-path="url(#terminal-2596907752-line-14)">│</text><text class="terminal-2596907752-r4" x="36.6" y="361.6" textLength="732" clip-path="url(#terminal-2596907752-line-14)">scan&#160;&#160;skillspector@a5092dd9b9521ff57a9b53612bb129ce78019002&#160;</text><text class="terminal-2596907752-r2" x="780.8" y="361.6" textLength="12.2" clip-path="url(#terminal-2596907752-line-14)">│</text><text class="terminal-2596907752-r1" x="805.2" y="361.6" textLength="12.2" clip-path="url(#terminal-2596907752-line-14)">
</text><text class="terminal-2596907752-r2" x="12.2" y="386" textLength="12.2" clip-path="url(#terminal-2596907752-line-15)">│</text><text class="terminal-2596907752-r4" x="36.6" y="386" textLength="146.4" clip-path="url(#terminal-2596907752-line-15)">·&#160;2026-06-20</text><text class="terminal-2596907752-r2" x="780.8" y="386" textLength="12.2" clip-path="url(#terminal-2596907752-line-15)">│</text><text class="terminal-2596907752-r1" x="805.2" y="386" textLength="12.2" clip-path="url(#terminal-2596907752-line-15)">
</text><text class="terminal-2596907752-r2" x="12.2" y="410.4" textLength="12.2" clip-path="url(#terminal-2596907752-line-16)">╰</text><text class="terminal-2596907752-r2" x="24.4" y="410.4" textLength="756.4" clip-path="url(#terminal-2596907752-line-16)">──────────────────────────────────────────────────────────────</text><text class="terminal-2596907752-r2" x="780.8" y="410.4" textLength="12.2" clip-path="url(#terminal-2596907752-line-16)">╯</text><text class="terminal-2596907752-r1" x="805.2" y="410.4" textLength="12.2" clip-path="url(#terminal-2596907752-line-16)">
</text>
    </g>
    </g>
</svg>
