<svg class="skill-card" viewBox="0 0 950.5999999999999 828.5999999999999" xmlns="http://www.w3.org/2000/svg">
    <style>
    @font-face {
        font-family: "Fira Code";
        src: local("FiraCode-Regular"),
                url("https://cdnjs.cloudflare.com/ajax/libs/firacode/6.2.0/woff2/FiraCode-Regular.woff2") format("woff2"),
                url("https://cdnjs.cloudflare.com/ajax/libs/firacode/6.2.0/woff/FiraCode-Regular.woff") format("woff");
        font-style: normal;
        font-weight: 400;
    }
    @font-face {
        font-family: "Fira Code";
        src: local("FiraCode-Bold"),
                url("https://cdnjs.cloudflare.com/ajax/libs/firacode/6.2.0/woff2/FiraCode-Bold.woff2") format("woff2"),
                url("https://cdnjs.cloudflare.com/ajax/libs/firacode/6.2.0/woff/FiraCode-Bold.woff") format("woff");
        font-style: bold;
        font-weight: 700;
    }
    .terminal-4116555208-matrix {
        font-family: Fira Code, monospace;
        font-size: 20px;
        line-height: 24.4px;
        font-variant-east-asian: full-width;
    }
    .terminal-4116555208-r1 { fill: #c5c8c6 }
.terminal-4116555208-r2 { fill: #00ffff }
.terminal-4116555208-r3 { fill: #c4c5b5;font-weight: bold }
.terminal-4116555208-r4 { fill: #9e9e9e }
.terminal-4116555208-r5 { fill: #e0e0e0 }
.terminal-4116555208-r6 { fill: #fd971f }
.terminal-4116555208-r7 { fill: #c4c5b5 }
.terminal-4116555208-r8 { fill: #9e9e9e;font-style: italic; }
.terminal-4116555208-r9 { fill: #58d1eb;font-weight: bold }
.terminal-4116555208-r10 { fill: #808080;font-style: italic; }
    </style>
    <defs>
    <clipPath id="terminal-4116555208-clip-terminal">
      <rect x="0" y="0" width="950.5999999999999" height="828.5999999999999" />
    </clipPath>
    <clipPath id="terminal-4116555208-line-0">
    <rect x="0" y="1.5" width="951.6" height="24.65"/>
            </clipPath>
<clipPath id="terminal-4116555208-line-1">
    <rect x="0" y="25.9" width="951.6" height="24.65"/>
            </clipPath>
<clipPath id="terminal-4116555208-line-2">
    <rect x="0" y="50.3" width="951.6" height="24.65"/>
            </clipPath>
<clipPath id="terminal-4116555208-line-3">
    <rect x="0" y="74.7" width="951.6" height="24.65"/>
            </clipPath>
<clipPath id="terminal-4116555208-line-4">
    <rect x="0" y="99.1" width="951.6" height="24.65"/>
            </clipPath>
<clipPath id="terminal-4116555208-line-5">
    <rect x="0" y="123.5" width="951.6" height="24.65"/>
            </clipPath>
<clipPath id="terminal-4116555208-line-6">
    <rect x="0" y="147.9" width="951.6" height="24.65"/>
            </clipPath>
<clipPath id="terminal-4116555208-line-7">
    <rect x="0" y="172.3" width="951.6" height="24.65"/>
            </clipPath>
<clipPath id="terminal-4116555208-line-8">
    <rect x="0" y="196.7" width="951.6" height="24.65"/>
            </clipPath>
<clipPath id="terminal-4116555208-line-9">
    <rect x="0" y="221.1" width="951.6" height="24.65"/>
            </clipPath>
<clipPath id="terminal-4116555208-line-10">
    <rect x="0" y="245.5" width="951.6" height="24.65"/>
            </clipPath>
<clipPath id="terminal-4116555208-line-11">
    <rect x="0" y="269.9" width="951.6" height="24.65"/>
            </clipPath>
<clipPath id="terminal-4116555208-line-12">
    <rect x="0" y="294.3" width="951.6" height="24.65"/>
            </clipPath>
<clipPath id="terminal-4116555208-line-13">
    <rect x="0" y="318.7" width="951.6" height="24.65"/>
            </clipPath>
<clipPath id="terminal-4116555208-line-14">
    <rect x="0" y="343.1" width="951.6" height="24.65"/>
            </clipPath>
<clipPath id="terminal-4116555208-line-15">
    <rect x="0" y="367.5" width="951.6" height="24.65"/>
            </clipPath>
<clipPath id="terminal-4116555208-line-16">
    <rect x="0" y="391.9" width="951.6" height="24.65"/>
            </clipPath>
<clipPath id="terminal-4116555208-line-17">
    <rect x="0" y="416.3" width="951.6" height="24.65"/>
            </clipPath>
<clipPath id="terminal-4116555208-line-18">
    <rect x="0" y="440.7" width="951.6" height="24.65"/>
            </clipPath>
<clipPath id="terminal-4116555208-line-19">
    <rect x="0" y="465.1" width="951.6" height="24.65"/>
            </clipPath>
<clipPath id="terminal-4116555208-line-20">
    <rect x="0" y="489.5" width="951.6" height="24.65"/>
            </clipPath>
<clipPath id="terminal-4116555208-line-21">
    <rect x="0" y="513.9" width="951.6" height="24.65"/>
            </clipPath>
<clipPath id="terminal-4116555208-line-22">
    <rect x="0" y="538.3" width="951.6" height="24.65"/>
            </clipPath>
<clipPath id="terminal-4116555208-line-23">
    <rect x="0" y="562.7" width="951.6" height="24.65"/>
            </clipPath>
<clipPath id="terminal-4116555208-line-24">
    <rect x="0" y="587.1" width="951.6" height="24.65"/>
            </clipPath>
<clipPath id="terminal-4116555208-line-25">
    <rect x="0" y="611.5" width="951.6" height="24.65"/>
            </clipPath>
<clipPath id="terminal-4116555208-line-26">
    <rect x="0" y="635.9" width="951.6" height="24.65"/>
            </clipPath>
<clipPath id="terminal-4116555208-line-27">
    <rect x="0" y="660.3" width="951.6" height="24.65"/>
            </clipPath>
<clipPath id="terminal-4116555208-line-28">
    <rect x="0" y="684.7" width="951.6" height="24.65"/>
            </clipPath>
<clipPath id="terminal-4116555208-line-29">
    <rect x="0" y="709.1" width="951.6" height="24.65"/>
            </clipPath>
<clipPath id="terminal-4116555208-line-30">
    <rect x="0" y="733.5" width="951.6" height="24.65"/>
            </clipPath>
<clipPath id="terminal-4116555208-line-31">
    <rect x="0" y="757.9" width="951.6" height="24.65"/>
            </clipPath>
<clipPath id="terminal-4116555208-line-32">
    <rect x="0" y="782.3" width="951.6" height="24.65"/>
            </clipPath>
    </defs>
    <g clip-path="url(#terminal-4116555208-clip-terminal)">
    <rect fill="#121212" x="0" y="1.5" width="951.6" height="24.65" shape-rendering="crispEdges"/><rect fill="#121212" x="0" y="25.9" width="24.4" height="24.65" shape-rendering="crispEdges"/><rect fill="#1e1e1e" x="24.4" y="25.9" width="12.2" height="24.65" shape-rendering="crispEdges"/><rect fill="#1e1e1e" x="36.6" y="25.9" width="12.2" height="24.65" shape-rendering="crispEdges"/><rect fill="#1e1e1e" x="48.8" y="25.9" width="146.4" height="24.65" shape-rendering="crispEdges"/><rect fill="#1e1e1e" x="195.2" y="25.9" width="719.8" height="24.65" shape-rendering="crispEdges"/><rect fill="#1e1e1e" x="915" y="25.9" width="12.2" height="24.65" shape-rendering="crispEdges"/><rect fill="#121212" x="927.2" y="25.9" width="24.4" height="24.65" shape-rendering="crispEdges"/><rect fill="#121212" x="0" y="50.3" width="24.4" height="24.65" shape-rendering="crispEdges"/><rect fill="#1e1e1e" x="24.4" y="50.3" width="12.2" height="24.65" shape-rendering="crispEdges"/><rect fill="#1e1e1e" x="36.6" y="50.3" width="878.4" height="24.65" shape-rendering="crispEdges"/><rect fill="#1e1e1e" x="915" y="50.3" width="12.2" height="24.65" shape-rendering="crispEdges"/><rect fill="#121212" x="927.2" y="50.3" width="24.4" height="24.65" shape-rendering="crispEdges"/><rect fill="#121212" x="0" y="74.7" width="24.4" height="24.65" shape-rendering="crispEdges"/><rect fill="#1e1e1e" x="24.4" y="74.7" width="12.2" height="24.65" shape-rendering="crispEdges"/><rect fill="#1e1e1e" x="36.6" y="74.7" width="24.4" height="24.65" shape-rendering="crispEdges"/><rect fill="#1e1e1e" x="61" y="74.7" width="170.8" height="24.65" shape-rendering="crispEdges"/><rect fill="#1e1e1e" x="231.8" y="74.7" width="97.6" height="24.65" shape-rendering="crispEdges"/><rect fill="#1e1e1e" x="329.4" y="74.7" width="390.4" height="24.65" shape-rendering="crispEdges"/><rect fill="#1e1e1e" x="719.8" y="74.7" width="97.6" height="24.65" shape-rendering="crispEdges"/><rect fill="#1e1e1e" x="817.4" y="74.7" width="24.4" height="24.65" shape-rendering="crispEdges"/><rect fill="#1e1e1e" x="841.8" y="74.7" width="48.8" height="24.65" shape-rendering="crispEdges"/><rect fill="#1e1e1e" x="890.6" y="74.7" width="24.4" height="24.65" shape-rendering="crispEdges"/><rect fill="#1e1e1e" x="915" y="74.7" width="12.2" height="24.65" shape-rendering="crispEdges"/><rect fill="#121212" x="927.2" y="74.7" width="24.4" height="24.65" shape-rendering="crispEdges"/><rect fill="#121212" x="0" y="99.1" width="24.4" height="24.65" shape-rendering="crispEdges"/><rect fill="#1e1e1e" x="24.4" y="99.1" width="12.2" height="24.65" shape-rendering="crispEdges"/><rect fill="#1e1e1e" x="36.6" y="99.1" width="24.4" height="24.65" shape-rendering="crispEdges"/><rect fill="#1e1e1e" x="61" y="99.1" width="756.4" height="24.65" shape-rendering="crispEdges"/><rect fill="#1e1e1e" x="817.4" y="99.1" width="73.2" height="24.65" shape-rendering="crispEdges"/><rect fill="#1e1e1e" x="890.6" y="99.1" width="24.4" height="24.65" shape-rendering="crispEdges"/><rect fill="#1e1e1e" x="915" y="99.1" width="12.2" height="24.65" shape-rendering="crispEdges"/><rect fill="#121212" x="927.2" y="99.1" width="24.4" height="24.65" shape-rendering="crispEdges"/><rect fill="#121212" x="0" y="123.5" width="24.4" height="24.65" shape-rendering="crispEdges"/><rect fill="#1e1e1e" x="24.4" y="123.5" width="12.2" height="24.65" shape-rendering="crispEdges"/><rect fill="#1e1e1e" x="36.6" y="123.5" width="24.4" height="24.65" shape-rendering="crispEdges"/><rect fill="#1e1e1e" x="61" y="123.5" width="768.6" height="24.65" shape-rendering="crispEdges"/><rect fill="#1e1e1e" x="829.6" y="123.5" width="61" height="24.65" shape-rendering="crispEdges"/><rect fill="#1e1e1e" x="890.6" y="123.5" width="24.4" height="24.65" shape-rendering="crispEdges"/><rect fill="#1e1e1e" x="915" y="123.5" width="12.2" height="24.65" shape-rendering="crispEdges"/><rect fill="#121212" x="927.2" y="123.5" width="24.4" height="24.65" shape-rendering="crispEdges"/><rect fill="#121212" x="0" y="147.9" width="24.4" height="24.65" shape-rendering="crispEdges"/><rect fill="#1e1e1e" x="24.4" y="147.9" width="12.2" height="24.65" shape-rendering="crispEdges"/><rect fill="#1e1e1e" x="36.6" y="147.9" width="24.4" height="24.65" shape-rendering="crispEdges"/><rect fill="#1e1e1e" x="61" y="147.9" width="768.6" height="24.65" shape-rendering="crispEdges"/><rect fill="#1e1e1e" x="829.6" y="147.9" width="61" height="24.65" shape-rendering="crispEdges"/><rect fill="#1e1e1e" x="890.6" y="147.9" width="24.4" height="24.65" shape-rendering="crispEdges"/><rect fill="#1e1e1e" x="915" y="147.9" width="12.2" height="24.65" shape-rendering="crispEdges"/><rect fill="#121212" x="927.2" y="147.9" width="24.4" height="24.65" shape-rendering="crispEdges"/><rect fill="#121212" x="0" y="172.3" width="24.4" height="24.65" shape-rendering="crispEdges"/><rect fill="#1e1e1e" x="24.4" y="172.3" width="12.2" height="24.65" shape-rendering="crispEdges"/><rect fill="#1e1e1e" x="36.6" y="172.3" width="24.4" height="24.65" shape-rendering="crispEdges"/><rect fill="#1e1e1e" x="61" y="172.3" width="500.2" height="24.65" shape-rendering="crispEdges"/><rect fill="#1e1e1e" x="561.2" y="172.3" width="329.4" height="24.65" shape-rendering="crispEdges"/><rect fill="#1e1e1e" x="890.6" y="172.3" width="24.4" height="24.65" shape-rendering="crispEdges"/><rect fill="#1e1e1e" x="915" y="172.3" width="12.2" height="24.65" shape-rendering="crispEdges"/><rect fill="#121212" x="927.2" y="172.3" width="24.4" height="24.65" shape-rendering="crispEdges"/><rect fill="#121212" x="0" y="196.7" width="24.4" height="24.65" shape-rendering="crispEdges"/><rect fill="#1e1e1e" x="24.4" y="196.7" width="12.2" height="24.65" shape-rendering="crispEdges"/><rect fill="#1e1e1e" x="36.6" y="196.7" width="24.4" height="24.65" shape-rendering="crispEdges"/><rect fill="#1e1e1e" x="61" y="196.7" width="0" height="24.65" shape-rendering="crispEdges"/><rect fill="#1e1e1e" x="61" y="196.7" width="829.6" height="24.65" shape-rendering="crispEdges"/><rect fill="#1e1e1e" x="890.6" y="196.7" width="24.4" height="24.65" shape-rendering="crispEdges"/><rect fill="#1e1e1e" x="915" y="196.7" width="12.2" height="24.65" shape-rendering="crispEdges"/><rect fill="#121212" x="927.2" y="196.7" width="24.4" height="24.65" shape-rendering="crispEdges"/><rect fill="#121212" x="0" y="221.1" width="24.4" height="24.65" shape-rendering="crispEdges"/><rect fill="#1e1e1e" x="24.4" y="221.1" width="12.2" height="24.65" shape-rendering="crispEdges"/><rect fill="#1e1e1e" x="36.6" y="221.1" width="24.4" height="24.65" shape-rendering="crispEdges"/><rect fill="#1e1e1e" x="61" y="221.1" width="134.2" height="24.65" shape-rendering="crispEdges"/><rect fill="#1e1e1e" x="195.2" y="221.1" width="695.4" height="24.65" shape-rendering="crispEdges"/><rect fill="#1e1e1e" x="890.6" y="221.1" width="24.4" height="24.65" shape-rendering="crispEdges"/><rect fill="#1e1e1e" x="915" y="221.1" width="12.2" height="24.65" shape-rendering="crispEdges"/><rect fill="#121212" x="927.2" y="221.1" width="24.4" height="24.65" shape-rendering="crispEdges"/><rect fill="#121212" x="0" y="245.5" width="24.4" height="24.65" shape-rendering="crispEdges"/><rect fill="#1e1e1e" x="24.4" y="245.5" width="12.2" height="24.65" shape-rendering="crispEdges"/><rect fill="#1e1e1e" x="36.6" y="245.5" width="24.4" height="24.65" shape-rendering="crispEdges"/><rect fill="#1e1e1e" x="61" y="245.5" width="829.6" height="24.65" shape-rendering="crispEdges"/><rect fill="#1e1e1e" x="890.6" y="245.5" width="24.4" height="24.65" shape-rendering="crispEdges"/><rect fill="#1e1e1e" x="915" y="245.5" width="12.2" height="24.65" shape-rendering="crispEdges"/><rect fill="#121212" x="927.2" y="245.5" width="24.4" height="24.65" shape-rendering="crispEdges"/><rect fill="#121212" x="0" y="269.9" width="24.4" height="24.65" shape-rendering="crispEdges"/><rect fill="#1e1e1e" x="24.4" y="269.9" width="12.2" height="24.65" shape-rendering="crispEdges"/><rect fill="#1e1e1e" x="36.6" y="269.9" width="24.4" height="24.65" shape-rendering="crispEdges"/><rect fill="#1e1e1e" x="61" y="269.9" width="829.6" height="24.65" shape-rendering="crispEdges"/><rect fill="#1e1e1e" x="890.6" y="269.9" width="24.4" height="24.65" shape-rendering="crispEdges"/><rect fill="#1e1e1e" x="915" y="269.9" width="12.2" height="24.65" shape-rendering="crispEdges"/><rect fill="#121212" x="927.2" y="269.9" width="24.4" height="24.65" shape-rendering="crispEdges"/><rect fill="#121212" x="0" y="294.3" width="24.4" height="24.65" shape-rendering="crispEdges"/><rect fill="#1e1e1e" x="24.4" y="294.3" width="12.2" height="24.65" shape-rendering="crispEdges"/><rect fill="#1e1e1e" x="36.6" y="294.3" width="24.4" height="24.65" shape-rendering="crispEdges"/><rect fill="#1e1e1e" x="61" y="294.3" width="732" height="24.65" shape-rendering="crispEdges"/><rect fill="#1e1e1e" x="793" y="294.3" width="97.6" height="24.65" shape-rendering="crispEdges"/><rect fill="#1e1e1e" x="890.6" y="294.3" width="24.4" height="24.65" shape-rendering="crispEdges"/><rect fill="#1e1e1e" x="915" y="294.3" width="12.2" height="24.65" shape-rendering="crispEdges"/><rect fill="#121212" x="927.2" y="294.3" width="24.4" height="24.65" shape-rendering="crispEdges"/><rect fill="#121212" x="0" y="318.7" width="24.4" height="24.65" shape-rendering="crispEdges"/><rect fill="#1e1e1e" x="24.4" y="318.7" width="12.2" height="24.65" shape-rendering="crispEdges"/><rect fill="#1e1e1e" x="36.6" y="318.7" width="24.4" height="24.65" shape-rendering="crispEdges"/><rect fill="#1e1e1e" x="61" y="318.7" width="0" height="24.65" shape-rendering="crispEdges"/><rect fill="#1e1e1e" x="61" y="318.7" width="829.6" height="24.65" shape-rendering="crispEdges"/><rect fill="#1e1e1e" x="890.6" y="318.7" width="24.4" height="24.65" shape-rendering="crispEdges"/><rect fill="#1e1e1e" x="915" y="318.7" width="12.2" height="24.65" shape-rendering="crispEdges"/><rect fill="#121212" x="927.2" y="318.7" width="24.4" height="24.65" shape-rendering="crispEdges"/><rect fill="#121212" x="0" y="343.1" width="24.4" height="24.65" shape-rendering="crispEdges"/><rect fill="#1e1e1e" x="24.4" y="343.1" width="12.2" height="24.65" shape-rendering="crispEdges"/><rect fill="#1e1e1e" x="36.6" y="343.1" width="24.4" height="24.65" shape-rendering="crispEdges"/><rect fill="#1e1e1e" x="61" y="343.1" width="73.2" height="24.65" shape-rendering="crispEdges"/><rect fill="#1e1e1e" x="134.2" y="343.1" width="756.4" height="24.65" shape-rendering="crispEdges"/><rect fill="#1e1e1e" x="890.6" y="343.1" width="24.4" height="24.65" shape-rendering="crispEdges"/><rect fill="#1e1e1e" x="915" y="343.1" width="12.2" height="24.65" shape-rendering="crispEdges"/><rect fill="#121212" x="927.2" y="343.1" width="24.4" height="24.65" shape-rendering="crispEdges"/><rect fill="#121212" x="0" y="367.5" width="24.4" height="24.65" shape-rendering="crispEdges"/><rect fill="#1e1e1e" x="24.4" y="367.5" width="12.2" height="24.65" shape-rendering="crispEdges"/><rect fill="#1e1e1e" x="36.6" y="367.5" width="24.4" height="24.65" shape-rendering="crispEdges"/><rect fill="#1e1e1e" x="61" y="367.5" width="158.6" height="24.65" shape-rendering="crispEdges"/><rect fill="#1e1e1e" x="219.6" y="367.5" width="671" height="24.65" shape-rendering="crispEdges"/><rect fill="#1e1e1e" x="890.6" y="367.5" width="24.4" height="24.65" shape-rendering="crispEdges"/><rect fill="#1e1e1e" x="915" y="367.5" width="12.2" height="24.65" shape-rendering="crispEdges"/><rect fill="#121212" x="927.2" y="367.5" width="24.4" height="24.65" shape-rendering="crispEdges"/><rect fill="#121212" x="0" y="391.9" width="24.4" height="24.65" shape-rendering="crispEdges"/><rect fill="#1e1e1e" x="24.4" y="391.9" width="12.2" height="24.65" shape-rendering="crispEdges"/><rect fill="#1e1e1e" x="36.6" y="391.9" width="24.4" height="24.65" shape-rendering="crispEdges"/><rect fill="#1e1e1e" x="61" y="391.9" width="158.6" height="24.65" shape-rendering="crispEdges"/><rect fill="#1e1e1e" x="219.6" y="391.9" width="671" height="24.65" shape-rendering="crispEdges"/><rect fill="#1e1e1e" x="890.6" y="391.9" width="24.4" height="24.65" shape-rendering="crispEdges"/><rect fill="#1e1e1e" x="915" y="391.9" width="12.2" height="24.65" shape-rendering="crispEdges"/><rect fill="#121212" x="927.2" y="391.9" width="24.4" height="24.65" shape-rendering="crispEdges"/><rect fill="#121212" x="0" y="416.3" width="24.4" height="24.65" shape-rendering="crispEdges"/><rect fill="#1e1e1e" x="24.4" y="416.3" width="12.2" height="24.65" shape-rendering="crispEdges"/><rect fill="#1e1e1e" x="36.6" y="416.3" width="24.4" height="24.65" shape-rendering="crispEdges"/><rect fill="#1e1e1e" x="61" y="416.3" width="158.6" height="24.65" shape-rendering="crispEdges"/><rect fill="#1e1e1e" x="219.6" y="416.3" width="671" height="24.65" shape-rendering="crispEdges"/><rect fill="#1e1e1e" x="890.6" y="416.3" width="24.4" height="24.65" shape-rendering="crispEdges"/><rect fill="#1e1e1e" x="915" y="416.3" width="12.2" height="24.65" shape-rendering="crispEdges"/><rect fill="#121212" x="927.2" y="416.3" width="24.4" height="24.65" shape-rendering="crispEdges"/><rect fill="#121212" x="0" y="440.7" width="24.4" height="24.65" shape-rendering="crispEdges"/><rect fill="#1e1e1e" x="24.4" y="440.7" width="12.2" height="24.65" shape-rendering="crispEdges"/><rect fill="#1e1e1e" x="36.6" y="440.7" width="24.4" height="24.65" shape-rendering="crispEdges"/><rect fill="#1e1e1e" x="61" y="440.7" width="0" height="24.65" shape-rendering="crispEdges"/><rect fill="#1e1e1e" x="61" y="440.7" width="829.6" height="24.65" shape-rendering="crispEdges"/><rect fill="#1e1e1e" x="890.6" y="440.7" width="24.4" height="24.65" shape-rendering="crispEdges"/><rect fill="#1e1e1e" x="915" y="440.7" width="12.2" height="24.65" shape-rendering="crispEdges"/><rect fill="#121212" x="927.2" y="440.7" width="24.4" height="24.65" shape-rendering="crispEdges"/><rect fill="#121212" x="0" y="465.1" width="24.4" height="24.65" shape-rendering="crispEdges"/><rect fill="#1e1e1e" x="24.4" y="465.1" width="12.2" height="24.65" shape-rendering="crispEdges"/><rect fill="#1e1e1e" x="36.6" y="465.1" width="24.4" height="24.65" shape-rendering="crispEdges"/><rect fill="#1e1e1e" x="61" y="465.1" width="146.4" height="24.65" shape-rendering="crispEdges"/><rect fill="#1e1e1e" x="207.4" y="465.1" width="683.2" height="24.65" shape-rendering="crispEdges"/><rect fill="#1e1e1e" x="890.6" y="465.1" width="24.4" height="24.65" shape-rendering="crispEdges"/><rect fill="#1e1e1e" x="915" y="465.1" width="12.2" height="24.65" shape-rendering="crispEdges"/><rect fill="#121212" x="927.2" y="465.1" width="24.4" height="24.65" shape-rendering="crispEdges"/><rect fill="#121212" x="0" y="489.5" width="24.4" height="24.65" shape-rendering="crispEdges"/><rect fill="#1e1e1e" x="24.4" y="489.5" width="12.2" height="24.65" shape-rendering="crispEdges"/><rect fill="#1e1e1e" x="36.6" y="489.5" width="24.4" height="24.65" shape-rendering="crispEdges"/><rect fill="#1e1e1e" x="61" y="489.5" width="97.6" height="24.65" shape-rendering="crispEdges"/><rect fill="#1e1e1e" x="158.6" y="489.5" width="732" height="24.65" shape-rendering="crispEdges"/><rect fill="#1e1e1e" x="890.6" y="489.5" width="24.4" height="24.65" shape-rendering="crispEdges"/><rect fill="#1e1e1e" x="915" y="489.5" width="12.2" height="24.65" shape-rendering="crispEdges"/><rect fill="#121212" x="927.2" y="489.5" width="24.4" height="24.65" shape-rendering="crispEdges"/><rect fill="#121212" x="0" y="513.9" width="24.4" height="24.65" shape-rendering="crispEdges"/><rect fill="#1e1e1e" x="24.4" y="513.9" width="12.2" height="24.65" shape-rendering="crispEdges"/><rect fill="#1e1e1e" x="36.6" y="513.9" width="24.4" height="24.65" shape-rendering="crispEdges"/><rect fill="#1e1e1e" x="61" y="513.9" width="158.6" height="24.65" shape-rendering="crispEdges"/><rect fill="#1e1e1e" x="219.6" y="513.9" width="671" height="24.65" shape-rendering="crispEdges"/><rect fill="#1e1e1e" x="890.6" y="513.9" width="24.4" height="24.65" shape-rendering="crispEdges"/><rect fill="#1e1e1e" x="915" y="513.9" width="12.2" height="24.65" shape-rendering="crispEdges"/><rect fill="#121212" x="927.2" y="513.9" width="24.4" height="24.65" shape-rendering="crispEdges"/><rect fill="#121212" x="0" y="538.3" width="24.4" height="24.65" shape-rendering="crispEdges"/><rect fill="#1e1e1e" x="24.4" y="538.3" width="12.2" height="24.65" shape-rendering="crispEdges"/><rect fill="#1e1e1e" x="36.6" y="538.3" width="24.4" height="24.65" shape-rendering="crispEdges"/><rect fill="#1e1e1e" x="61" y="538.3" width="0" height="24.65" shape-rendering="crispEdges"/><rect fill="#1e1e1e" x="61" y="538.3" width="829.6" height="24.65" shape-rendering="crispEdges"/><rect fill="#1e1e1e" x="890.6" y="538.3" width="24.4" height="24.65" shape-rendering="crispEdges"/><rect fill="#1e1e1e" x="915" y="538.3" width="12.2" height="24.65" shape-rendering="crispEdges"/><rect fill="#121212" x="927.2" y="538.3" width="24.4" height="24.65" shape-rendering="crispEdges"/><rect fill="#121212" x="0" y="562.7" width="24.4" height="24.65" shape-rendering="crispEdges"/><rect fill="#1e1e1e" x="24.4" y="562.7" width="12.2" height="24.65" shape-rendering="crispEdges"/><rect fill="#1e1e1e" x="36.6" y="562.7" width="24.4" height="24.65" shape-rendering="crispEdges"/><rect fill="#1e1e1e" x="61" y="562.7" width="85.4" height="24.65" shape-rendering="crispEdges"/><rect fill="#1e1e1e" x="146.4" y="562.7" width="744.2" height="24.65" shape-rendering="crispEdges"/><rect fill="#1e1e1e" x="890.6" y="562.7" width="24.4" height="24.65" shape-rendering="crispEdges"/><rect fill="#1e1e1e" x="915" y="562.7" width="12.2" height="24.65" shape-rendering="crispEdges"/><rect fill="#121212" x="927.2" y="562.7" width="24.4" height="24.65" shape-rendering="crispEdges"/><rect fill="#121212" x="0" y="587.1" width="24.4" height="24.65" shape-rendering="crispEdges"/><rect fill="#1e1e1e" x="24.4" y="587.1" width="12.2" height="24.65" shape-rendering="crispEdges"/><rect fill="#1e1e1e" x="36.6" y="587.1" width="24.4" height="24.65" shape-rendering="crispEdges"/><rect fill="#1e1e1e" x="61" y="587.1" width="305" height="24.65" shape-rendering="crispEdges"/><rect fill="#1e1e1e" x="366" y="587.1" width="524.6" height="24.65" shape-rendering="crispEdges"/><rect fill="#1e1e1e" x="890.6" y="587.1" width="24.4" height="24.65" shape-rendering="crispEdges"/><rect fill="#1e1e1e" x="915" y="587.1" width="12.2" height="24.65" shape-rendering="crispEdges"/><rect fill="#121212" x="927.2" y="587.1" width="24.4" height="24.65" shape-rendering="crispEdges"/><rect fill="#121212" x="0" y="611.5" width="24.4" height="24.65" shape-rendering="crispEdges"/><rect fill="#1e1e1e" x="24.4" y="611.5" width="12.2" height="24.65" shape-rendering="crispEdges"/><rect fill="#1e1e1e" x="36.6" y="611.5" width="24.4" height="24.65" shape-rendering="crispEdges"/><rect fill="#1e1e1e" x="61" y="611.5" width="0" height="24.65" shape-rendering="crispEdges"/><rect fill="#1e1e1e" x="61" y="611.5" width="829.6" height="24.65" shape-rendering="crispEdges"/><rect fill="#1e1e1e" x="890.6" y="611.5" width="24.4" height="24.65" shape-rendering="crispEdges"/><rect fill="#1e1e1e" x="915" y="611.5" width="12.2" height="24.65" shape-rendering="crispEdges"/><rect fill="#121212" x="927.2" y="611.5" width="24.4" height="24.65" shape-rendering="crispEdges"/><rect fill="#121212" x="0" y="635.9" width="24.4" height="24.65" shape-rendering="crispEdges"/><rect fill="#1e1e1e" x="24.4" y="635.9" width="12.2" height="24.65" shape-rendering="crispEdges"/><rect fill="#1e1e1e" x="36.6" y="635.9" width="24.4" height="24.65" shape-rendering="crispEdges"/><rect fill="#1e1e1e" x="61" y="635.9" width="97.6" height="24.65" shape-rendering="crispEdges"/><rect fill="#1e1e1e" x="158.6" y="635.9" width="732" height="24.65" shape-rendering="crispEdges"/><rect fill="#1e1e1e" x="890.6" y="635.9" width="24.4" height="24.65" shape-rendering="crispEdges"/><rect fill="#1e1e1e" x="915" y="635.9" width="12.2" height="24.65" shape-rendering="crispEdges"/><rect fill="#121212" x="927.2" y="635.9" width="24.4" height="24.65" shape-rendering="crispEdges"/><rect fill="#121212" x="0" y="660.3" width="24.4" height="24.65" shape-rendering="crispEdges"/><rect fill="#1e1e1e" x="24.4" y="660.3" width="12.2" height="24.65" shape-rendering="crispEdges"/><rect fill="#1e1e1e" x="36.6" y="660.3" width="24.4" height="24.65" shape-rendering="crispEdges"/><rect fill="#1e1e1e" x="61" y="660.3" width="451.4" height="24.65" shape-rendering="crispEdges"/><rect fill="#1e1e1e" x="512.4" y="660.3" width="378.2" height="24.65" shape-rendering="crispEdges"/><rect fill="#1e1e1e" x="890.6" y="660.3" width="24.4" height="24.65" shape-rendering="crispEdges"/><rect fill="#1e1e1e" x="915" y="660.3" width="12.2" height="24.65" shape-rendering="crispEdges"/><rect fill="#121212" x="927.2" y="660.3" width="24.4" height="24.65" shape-rendering="crispEdges"/><rect fill="#121212" x="0" y="684.7" width="24.4" height="24.65" shape-rendering="crispEdges"/><rect fill="#1e1e1e" x="24.4" y="684.7" width="12.2" height="24.65" shape-rendering="crispEdges"/><rect fill="#1e1e1e" x="36.6" y="684.7" width="24.4" height="24.65" shape-rendering="crispEdges"/><rect fill="#1e1e1e" x="61" y="684.7" width="0" height="24.65" shape-rendering="crispEdges"/><rect fill="#1e1e1e" x="61" y="684.7" width="829.6" height="24.65" shape-rendering="crispEdges"/><rect fill="#1e1e1e" x="890.6" y="684.7" width="24.4" height="24.65" shape-rendering="crispEdges"/><rect fill="#1e1e1e" x="915" y="684.7" width="12.2" height="24.65" shape-rendering="crispEdges"/><rect fill="#121212" x="927.2" y="684.7" width="24.4" height="24.65" shape-rendering="crispEdges"/><rect fill="#121212" x="0" y="709.1" width="24.4" height="24.65" shape-rendering="crispEdges"/><rect fill="#1e1e1e" x="24.4" y="709.1" width="12.2" height="24.65" shape-rendering="crispEdges"/><rect fill="#1e1e1e" x="36.6" y="709.1" width="24.4" height="24.65" shape-rendering="crispEdges"/><rect fill="#1e1e1e" x="61" y="709.1" width="756.4" height="24.65" shape-rendering="crispEdges"/><rect fill="#1e1e1e" x="817.4" y="709.1" width="73.2" height="24.65" shape-rendering="crispEdges"/><rect fill="#1e1e1e" x="890.6" y="709.1" width="24.4" height="24.65" shape-rendering="crispEdges"/><rect fill="#1e1e1e" x="915" y="709.1" width="12.2" height="24.65" shape-rendering="crispEdges"/><rect fill="#121212" x="927.2" y="709.1" width="24.4" height="24.65" shape-rendering="crispEdges"/><rect fill="#121212" x="0" y="733.5" width="24.4" height="24.65" shape-rendering="crispEdges"/><rect fill="#1e1e1e" x="24.4" y="733.5" width="12.2" height="24.65" shape-rendering="crispEdges"/><rect fill="#1e1e1e" x="36.6" y="733.5" width="24.4" height="24.65" shape-rendering="crispEdges"/><rect fill="#1e1e1e" x="61" y="733.5" width="122" height="24.65" shape-rendering="crispEdges"/><rect fill="#1e1e1e" x="183" y="733.5" width="707.6" height="24.65" shape-rendering="crispEdges"/><rect fill="#1e1e1e" x="890.6" y="733.5" width="24.4" height="24.65" shape-rendering="crispEdges"/><rect fill="#1e1e1e" x="915" y="733.5" width="12.2" height="24.65" shape-rendering="crispEdges"/><rect fill="#121212" x="927.2" y="733.5" width="24.4" height="24.65" shape-rendering="crispEdges"/><rect fill="#121212" x="0" y="757.9" width="24.4" height="24.65" shape-rendering="crispEdges"/><rect fill="#1e1e1e" x="24.4" y="757.9" width="12.2" height="24.65" shape-rendering="crispEdges"/><rect fill="#1e1e1e" x="36.6" y="757.9" width="878.4" height="24.65" shape-rendering="crispEdges"/><rect fill="#1e1e1e" x="915" y="757.9" width="12.2" height="24.65" shape-rendering="crispEdges"/><rect fill="#121212" x="927.2" y="757.9" width="24.4" height="24.65" shape-rendering="crispEdges"/><rect fill="#121212" x="0" y="782.3" width="24.4" height="24.65" shape-rendering="crispEdges"/><rect fill="#1e1e1e" x="24.4" y="782.3" width="12.2" height="24.65" shape-rendering="crispEdges"/><rect fill="#1e1e1e" x="36.6" y="782.3" width="878.4" height="24.65" shape-rendering="crispEdges"/><rect fill="#1e1e1e" x="915" y="782.3" width="12.2" height="24.65" shape-rendering="crispEdges"/><rect fill="#121212" x="927.2" y="782.3" width="24.4" height="24.65" shape-rendering="crispEdges"/><rect fill="#121212" x="0" y="806.7" width="951.6" height="24.65" shape-rendering="crispEdges"/>
    <g class="terminal-4116555208-matrix">
    <text class="terminal-4116555208-r1" x="951.6" y="20" textLength="12.2" clip-path="url(#terminal-4116555208-line-0)">
</text><text class="terminal-4116555208-r2" x="24.4" y="44.4" textLength="12.2" clip-path="url(#terminal-4116555208-line-1)">╭</text><text class="terminal-4116555208-r2" x="36.6" y="44.4" textLength="12.2" clip-path="url(#terminal-4116555208-line-1)">─</text><text class="terminal-4116555208-r2" x="48.8" y="44.4" textLength="146.4" clip-path="url(#terminal-4116555208-line-1)">&#160;SKILL&#160;CARD&#160;</text><text class="terminal-4116555208-r2" x="195.2" y="44.4" textLength="719.8" clip-path="url(#terminal-4116555208-line-1)">───────────────────────────────────────────────────────────</text><text class="terminal-4116555208-r2" x="915" y="44.4" textLength="12.2" clip-path="url(#terminal-4116555208-line-1)">╮</text><text class="terminal-4116555208-r1" x="951.6" y="44.4" textLength="12.2" clip-path="url(#terminal-4116555208-line-1)">
</text><text class="terminal-4116555208-r2" x="24.4" y="68.8" textLength="12.2" clip-path="url(#terminal-4116555208-line-2)">│</text><text class="terminal-4116555208-r2" x="915" y="68.8" textLength="12.2" clip-path="url(#terminal-4116555208-line-2)">│</text><text class="terminal-4116555208-r1" x="951.6" y="68.8" textLength="12.2" clip-path="url(#terminal-4116555208-line-2)">
</text><text class="terminal-4116555208-r2" x="24.4" y="93.2" textLength="12.2" clip-path="url(#terminal-4116555208-line-3)">│</text><text class="terminal-4116555208-r3" x="61" y="93.2" textLength="170.8" clip-path="url(#terminal-4116555208-line-3)">image-to-ascii</text><text class="terminal-4116555208-r4" x="231.8" y="93.2" textLength="97.6" clip-path="url(#terminal-4116555208-line-3)">&#160;&#160;v0.1.0</text><text class="terminal-4116555208-r6" x="817.4" y="93.2" textLength="24.4" clip-path="url(#terminal-4116555208-line-3)">●&#160;</text><text class="terminal-4116555208-r7" x="841.8" y="93.2" textLength="48.8" clip-path="url(#terminal-4116555208-line-3)">beta</text><text class="terminal-4116555208-r2" x="915" y="93.2" textLength="12.2" clip-path="url(#terminal-4116555208-line-3)">│</text><text class="terminal-4116555208-r1" x="951.6" y="93.2" textLength="12.2" clip-path="url(#terminal-4116555208-line-3)">
</text><text class="terminal-4116555208-r2" x="24.4" y="117.6" textLength="12.2" clip-path="url(#terminal-4116555208-line-4)">│</text><text class="terminal-4116555208-r8" x="61" y="117.6" textLength="756.4" clip-path="url(#terminal-4116555208-line-4)">Convert&#160;an&#160;image&#160;file&#160;to&#160;ASCII&#160;art&#160;from&#160;the&#160;command&#160;line&#160;with&#160;</text><text class="terminal-4116555208-r2" x="915" y="117.6" textLength="12.2" clip-path="url(#terminal-4116555208-line-4)">│</text><text class="terminal-4116555208-r1" x="951.6" y="117.6" textLength="12.2" clip-path="url(#terminal-4116555208-line-4)">
</text><text class="terminal-4116555208-r2" x="24.4" y="142" textLength="12.2" clip-path="url(#terminal-4116555208-line-5)">│</text><text class="terminal-4116555208-r8" x="61" y="142" textLength="768.6" clip-path="url(#terminal-4116555208-line-5)">shape-aware&#160;glyph&#160;matching&#160;(6D&#160;shape&#160;vectors,&#160;not&#160;a&#160;brightness&#160;</text><text class="terminal-4116555208-r2" x="915" y="142" textLength="12.2" clip-path="url(#terminal-4116555208-line-5)">│</text><text class="terminal-4116555208-r1" x="951.6" y="142" textLength="12.2" clip-path="url(#terminal-4116555208-line-5)">
</text><text class="terminal-4116555208-r2" x="24.4" y="166.4" textLength="12.2" clip-path="url(#terminal-4116555208-line-6)">│</text><text class="terminal-4116555208-r8" x="61" y="166.4" textLength="768.6" clip-path="url(#terminal-4116555208-line-6)">ramp),&#160;output&#160;as&#160;.txt&#160;or&#160;a&#160;rendered&#160;.png/.svg,&#160;using&#160;a&#160;bundled&#160;</text><text class="terminal-4116555208-r2" x="915" y="166.4" textLength="12.2" clip-path="url(#terminal-4116555208-line-6)">│</text><text class="terminal-4116555208-r1" x="951.6" y="166.4" textLength="12.2" clip-path="url(#terminal-4116555208-line-6)">
</text><text class="terminal-4116555208-r2" x="24.4" y="190.8" textLength="12.2" clip-path="url(#terminal-4116555208-line-7)">│</text><text class="terminal-4116555208-r8" x="61" y="190.8" textLength="500.2" clip-path="url(#terminal-4116555208-line-7)">monospace&#160;font&#160;for&#160;deterministic&#160;results.</text><text class="terminal-4116555208-r2" x="915" y="190.8" textLength="12.2" clip-path="url(#terminal-4116555208-line-7)">│</text><text class="terminal-4116555208-r1" x="951.6" y="190.8" textLength="12.2" clip-path="url(#terminal-4116555208-line-7)">
</text><text class="terminal-4116555208-r2" x="24.4" y="215.2" textLength="12.2" clip-path="url(#terminal-4116555208-line-8)">│</text><text class="terminal-4116555208-r2" x="915" y="215.2" textLength="12.2" clip-path="url(#terminal-4116555208-line-8)">│</text><text class="terminal-4116555208-r1" x="951.6" y="215.2" textLength="12.2" clip-path="url(#terminal-4116555208-line-8)">
</text><text class="terminal-4116555208-r2" x="24.4" y="239.6" textLength="12.2" clip-path="url(#terminal-4116555208-line-9)">│</text><text class="terminal-4116555208-r9" x="61" y="239.6" textLength="134.2" clip-path="url(#terminal-4116555208-line-9)">WHEN&#160;TO&#160;USE</text><text class="terminal-4116555208-r2" x="915" y="239.6" textLength="12.2" clip-path="url(#terminal-4116555208-line-9)">│</text><text class="terminal-4116555208-r1" x="951.6" y="239.6" textLength="12.2" clip-path="url(#terminal-4116555208-line-9)">
</text><text class="terminal-4116555208-r2" x="24.4" y="264" textLength="12.2" clip-path="url(#terminal-4116555208-line-10)">│</text><text class="terminal-4116555208-r4" x="61" y="264" textLength="829.6" clip-path="url(#terminal-4116555208-line-10)">&#160;&#160;Use&#160;when&#160;converting&#160;an&#160;image&#160;file&#160;to&#160;ASCII&#160;art&#160;outside&#160;the&#160;browser</text><text class="terminal-4116555208-r2" x="915" y="264" textLength="12.2" clip-path="url(#terminal-4116555208-line-10)">│</text><text class="terminal-4116555208-r1" x="951.6" y="264" textLength="12.2" clip-path="url(#terminal-4116555208-line-10)">
</text><text class="terminal-4116555208-r2" x="24.4" y="288.4" textLength="12.2" clip-path="url(#terminal-4116555208-line-11)">│</text><text class="terminal-4116555208-r4" x="61" y="288.4" textLength="829.6" clip-path="url(#terminal-4116555208-line-11)">—&#160;a&#160;command-line&#160;or&#160;script&#160;run&#160;that&#160;turns&#160;a&#160;photo,&#160;logo,&#160;screenshot,</text><text class="terminal-4116555208-r2" x="915" y="288.4" textLength="12.2" clip-path="url(#terminal-4116555208-line-11)">│</text><text class="terminal-4116555208-r1" x="951.6" y="288.4" textLength="12.2" clip-path="url(#terminal-4116555208-line-11)">
</text><text class="terminal-4116555208-r2" x="24.4" y="312.8" textLength="12.2" clip-path="url(#terminal-4116555208-line-12)">│</text><text class="terminal-4116555208-r4" x="61" y="312.8" textLength="732" clip-path="url(#terminal-4116555208-line-12)">or&#160;render&#160;into&#160;text,&#160;saved&#160;as&#160;.txt&#160;or&#160;rendered&#160;to&#160;.png/.svg.</text><text class="terminal-4116555208-r2" x="915" y="312.8" textLength="12.2" clip-path="url(#terminal-4116555208-line-12)">│</text><text class="terminal-4116555208-r1" x="951.6" y="312.8" textLength="12.2" clip-path="url(#terminal-4116555208-line-12)">
</text><text class="terminal-4116555208-r2" x="24.4" y="337.2" textLength="12.2" clip-path="url(#terminal-4116555208-line-13)">│</text><text class="terminal-4116555208-r2" x="915" y="337.2" textLength="12.2" clip-path="url(#terminal-4116555208-line-13)">│</text><text class="terminal-4116555208-r1" x="951.6" y="337.2" textLength="12.2" clip-path="url(#terminal-4116555208-line-13)">
</text><text class="terminal-4116555208-r2" x="24.4" y="361.6" textLength="12.2" clip-path="url(#terminal-4116555208-line-14)">│</text><text class="terminal-4116555208-r9" x="61" y="361.6" textLength="73.2" clip-path="url(#terminal-4116555208-line-14)">OUTPUT</text><text class="terminal-4116555208-r2" x="915" y="361.6" textLength="12.2" clip-path="url(#terminal-4116555208-line-14)">│</text><text class="terminal-4116555208-r1" x="951.6" y="361.6" textLength="12.2" clip-path="url(#terminal-4116555208-line-14)">
</text><text class="terminal-4116555208-r2" x="24.4" y="386" textLength="12.2" clip-path="url(#terminal-4116555208-line-15)">│</text><text class="terminal-4116555208-r5" x="61" y="386" textLength="158.6" clip-path="url(#terminal-4116555208-line-15)">&#160;&#160;Type&#160;&#160;&#160;&#160;&#160;&#160;&#160;</text><text class="terminal-4116555208-r7" x="219.6" y="386" textLength="671" clip-path="url(#terminal-4116555208-line-15)">ASCII&#160;art&#160;&#160;&#160;&#160;&#160;&#160;&#160;&#160;&#160;&#160;&#160;&#160;&#160;&#160;&#160;&#160;&#160;&#160;&#160;&#160;&#160;&#160;&#160;&#160;&#160;&#160;&#160;&#160;&#160;&#160;&#160;&#160;&#160;&#160;&#160;&#160;&#160;&#160;&#160;&#160;&#160;&#160;&#160;&#160;&#160;&#160;</text><text class="terminal-4116555208-r2" x="915" y="386" textLength="12.2" clip-path="url(#terminal-4116555208-line-15)">│</text><text class="terminal-4116555208-r1" x="951.6" y="386" textLength="12.2" clip-path="url(#terminal-4116555208-line-15)">
</text><text class="terminal-4116555208-r2" x="24.4" y="410.4" textLength="12.2" clip-path="url(#terminal-4116555208-line-16)">│</text><text class="terminal-4116555208-r5" x="61" y="410.4" textLength="158.6" clip-path="url(#terminal-4116555208-line-16)">&#160;&#160;Format&#160;&#160;&#160;&#160;&#160;</text><text class="terminal-4116555208-r7" x="219.6" y="410.4" textLength="671" clip-path="url(#terminal-4116555208-line-16)">.txt,&#160;.png,&#160;or&#160;.svg&#160;produced&#160;by&#160;&#160;&#160;&#160;&#160;&#160;&#160;&#160;&#160;&#160;&#160;&#160;&#160;&#160;&#160;&#160;&#160;&#160;&#160;&#160;&#160;&#160;&#160;&#160;</text><text class="terminal-4116555208-r2" x="915" y="410.4" textLength="12.2" clip-path="url(#terminal-4116555208-line-16)">│</text><text class="terminal-4116555208-r1" x="951.6" y="410.4" textLength="12.2" clip-path="url(#terminal-4116555208-line-16)">
</text><text class="terminal-4116555208-r2" x="24.4" y="434.8" textLength="12.2" clip-path="url(#terminal-4116555208-line-17)">│</text><text class="terminal-4116555208-r7" x="219.6" y="434.8" textLength="671" clip-path="url(#terminal-4116555208-line-17)">scripts/image_to_ascii.py&#160;(a&#160;shell&#160;invocation)&#160;&#160;&#160;&#160;&#160;&#160;&#160;&#160;&#160;</text><text class="terminal-4116555208-r2" x="915" y="434.8" textLength="12.2" clip-path="url(#terminal-4116555208-line-17)">│</text><text class="terminal-4116555208-r1" x="951.6" y="434.8" textLength="12.2" clip-path="url(#terminal-4116555208-line-17)">
</text><text class="terminal-4116555208-r2" x="24.4" y="459.2" textLength="12.2" clip-path="url(#terminal-4116555208-line-18)">│</text><text class="terminal-4116555208-r2" x="915" y="459.2" textLength="12.2" clip-path="url(#terminal-4116555208-line-18)">│</text><text class="terminal-4116555208-r1" x="951.6" y="459.2" textLength="12.2" clip-path="url(#terminal-4116555208-line-18)">
</text><text class="terminal-4116555208-r2" x="24.4" y="483.6" textLength="12.2" clip-path="url(#terminal-4116555208-line-19)">│</text><text class="terminal-4116555208-r9" x="61" y="483.6" textLength="146.4" clip-path="url(#terminal-4116555208-line-19)">DEPENDENCIES</text><text class="terminal-4116555208-r2" x="915" y="483.6" textLength="12.2" clip-path="url(#terminal-4116555208-line-19)">│</text><text class="terminal-4116555208-r1" x="951.6" y="483.6" textLength="12.2" clip-path="url(#terminal-4116555208-line-19)">
</text><text class="terminal-4116555208-r2" x="24.4" y="508" textLength="12.2" clip-path="url(#terminal-4116555208-line-20)">│</text><text class="terminal-4116555208-r7" x="61" y="508" textLength="97.6" clip-path="url(#terminal-4116555208-line-20)">&#160;&#160;Pillow</text><text class="terminal-4116555208-r2" x="915" y="508" textLength="12.2" clip-path="url(#terminal-4116555208-line-20)">│</text><text class="terminal-4116555208-r1" x="951.6" y="508" textLength="12.2" clip-path="url(#terminal-4116555208-line-20)">
</text><text class="terminal-4116555208-r2" x="24.4" y="532.4" textLength="12.2" clip-path="url(#terminal-4116555208-line-21)">│</text><text class="terminal-4116555208-r7" x="61" y="532.4" textLength="158.6" clip-path="url(#terminal-4116555208-line-21)">&#160;&#160;python&gt;=3.9</text><text class="terminal-4116555208-r2" x="915" y="532.4" textLength="12.2" clip-path="url(#terminal-4116555208-line-21)">│</text><text class="terminal-4116555208-r1" x="951.6" y="532.4" textLength="12.2" clip-path="url(#terminal-4116555208-line-21)">
</text><text class="terminal-4116555208-r2" x="24.4" y="556.8" textLength="12.2" clip-path="url(#terminal-4116555208-line-22)">│</text><text class="terminal-4116555208-r2" x="915" y="556.8" textLength="12.2" clip-path="url(#terminal-4116555208-line-22)">│</text><text class="terminal-4116555208-r1" x="951.6" y="556.8" textLength="12.2" clip-path="url(#terminal-4116555208-line-22)">
</text><text class="terminal-4116555208-r2" x="24.4" y="581.2" textLength="12.2" clip-path="url(#terminal-4116555208-line-23)">│</text><text class="terminal-4116555208-r9" x="61" y="581.2" textLength="85.4" clip-path="url(#terminal-4116555208-line-23)">QUALITY</text><text class="terminal-4116555208-r2" x="915" y="581.2" textLength="12.2" clip-path="url(#terminal-4116555208-line-23)">│</text><text class="terminal-4116555208-r1" x="951.6" y="581.2" textLength="12.2" clip-path="url(#terminal-4116555208-line-23)">
</text><text class="terminal-4116555208-r2" x="24.4" y="605.6" textLength="12.2" clip-path="url(#terminal-4116555208-line-24)">│</text><text class="terminal-4116555208-r10" x="61" y="605.6" textLength="305" clip-path="url(#terminal-4116555208-line-24)">&#160;&#160;not&#160;yet&#160;measured&#160;—&#160;beta</text><text class="terminal-4116555208-r2" x="915" y="605.6" textLength="12.2" clip-path="url(#terminal-4116555208-line-24)">│</text><text class="terminal-4116555208-r1" x="951.6" y="605.6" textLength="12.2" clip-path="url(#terminal-4116555208-line-24)">
</text><text class="terminal-4116555208-r2" x="24.4" y="630" textLength="12.2" clip-path="url(#terminal-4116555208-line-25)">│</text><text class="terminal-4116555208-r2" x="915" y="630" textLength="12.2" clip-path="url(#terminal-4116555208-line-25)">│</text><text class="terminal-4116555208-r1" x="951.6" y="630" textLength="12.2" clip-path="url(#terminal-4116555208-line-25)">
</text><text class="terminal-4116555208-r2" x="24.4" y="654.4" textLength="12.2" clip-path="url(#terminal-4116555208-line-26)">│</text><text class="terminal-4116555208-r9" x="61" y="654.4" textLength="97.6" clip-path="url(#terminal-4116555208-line-26)">SECURITY</text><text class="terminal-4116555208-r2" x="915" y="654.4" textLength="12.2" clip-path="url(#terminal-4116555208-line-26)">│</text><text class="terminal-4116555208-r1" x="951.6" y="654.4" textLength="12.2" clip-path="url(#terminal-4116555208-line-26)">
</text><text class="terminal-4116555208-r2" x="24.4" y="678.8" textLength="12.2" clip-path="url(#terminal-4116555208-line-27)">│</text><text class="terminal-4116555208-r5" x="61" y="678.8" textLength="451.4" clip-path="url(#terminal-4116555208-line-27)">&#160;&#160;SkillSpector&#160;&#160;&#160;&#160;&#160;&#160;&#160;&#160;&#160;&#160;&#160;&#160;&#160;&#160;&#160;&#160;&#160;&#160;&#160;&#160;&#160;&#160;&#160;</text><text class="terminal-4116555208-r6" x="512.4" y="678.8" textLength="378.2" clip-path="url(#terminal-4116555208-line-27)">39&#160;/&#160;MEDIUM&#160;&#160;&#160;&#160;&#160;&#160;&#160;&#160;&#160;&#160;&#160;&#160;&#160;&#160;&#160;&#160;&#160;&#160;&#160;&#160;</text><text class="terminal-4116555208-r2" x="915" y="678.8" textLength="12.2" clip-path="url(#terminal-4116555208-line-27)">│</text><text class="terminal-4116555208-r1" x="951.6" y="678.8" textLength="12.2" clip-path="url(#terminal-4116555208-line-27)">
</text><text class="terminal-4116555208-r2" x="24.4" y="703.2" textLength="12.2" clip-path="url(#terminal-4116555208-line-28)">│</text><text class="terminal-4116555208-r2" x="915" y="703.2" textLength="12.2" clip-path="url(#terminal-4116555208-line-28)">│</text><text class="terminal-4116555208-r1" x="951.6" y="703.2" textLength="12.2" clip-path="url(#terminal-4116555208-line-28)">
</text><text class="terminal-4116555208-r2" x="24.4" y="727.6" textLength="12.2" clip-path="url(#terminal-4116555208-line-29)">│</text><text class="terminal-4116555208-r4" x="61" y="727.6" textLength="756.4" clip-path="url(#terminal-4116555208-line-29)">scan&#160;&#160;skillspector@a5092dd9b9521ff57a9b53612bb129ce78019002&#160;·&#160;</text><text class="terminal-4116555208-r2" x="915" y="727.6" textLength="12.2" clip-path="url(#terminal-4116555208-line-29)">│</text><text class="terminal-4116555208-r1" x="951.6" y="727.6" textLength="12.2" clip-path="url(#terminal-4116555208-line-29)">
</text><text class="terminal-4116555208-r2" x="24.4" y="752" textLength="12.2" clip-path="url(#terminal-4116555208-line-30)">│</text><text class="terminal-4116555208-r4" x="61" y="752" textLength="122" clip-path="url(#terminal-4116555208-line-30)">2026-06-20</text><text class="terminal-4116555208-r2" x="915" y="752" textLength="12.2" clip-path="url(#terminal-4116555208-line-30)">│</text><text class="terminal-4116555208-r1" x="951.6" y="752" textLength="12.2" clip-path="url(#terminal-4116555208-line-30)">
</text><text class="terminal-4116555208-r2" x="24.4" y="776.4" textLength="12.2" clip-path="url(#terminal-4116555208-line-31)">│</text><text class="terminal-4116555208-r2" x="915" y="776.4" textLength="12.2" clip-path="url(#terminal-4116555208-line-31)">│</text><text class="terminal-4116555208-r1" x="951.6" y="776.4" textLength="12.2" clip-path="url(#terminal-4116555208-line-31)">
</text><text class="terminal-4116555208-r2" x="24.4" y="800.8" textLength="12.2" clip-path="url(#terminal-4116555208-line-32)">╰</text><text class="terminal-4116555208-r2" x="36.6" y="800.8" textLength="878.4" clip-path="url(#terminal-4116555208-line-32)">────────────────────────────────────────────────────────────────────────</text><text class="terminal-4116555208-r2" x="915" y="800.8" textLength="12.2" clip-path="url(#terminal-4116555208-line-32)">╯</text><text class="terminal-4116555208-r1" x="951.6" y="800.8" textLength="12.2" clip-path="url(#terminal-4116555208-line-32)">
</text>
    </g>
    </g>
</svg>
