<svg class="skill-card" viewBox="0 0 950.5999999999999 706.5999999999999" xmlns="http://www.w3.org/2000/svg">
    <style>
    @font-face {
        font-family: "Fira Code";
        src: local("FiraCode-Regular"),
                url("https://cdnjs.cloudflare.com/ajax/libs/firacode/6.2.0/woff2/FiraCode-Regular.woff2") format("woff2"),
                url("https://cdnjs.cloudflare.com/ajax/libs/firacode/6.2.0/woff/FiraCode-Regular.woff") format("woff");
        font-style: normal;
        font-weight: 400;
    }
    @font-face {
        font-family: "Fira Code";
        src: local("FiraCode-Bold"),
                url("https://cdnjs.cloudflare.com/ajax/libs/firacode/6.2.0/woff2/FiraCode-Bold.woff2") format("woff2"),
                url("https://cdnjs.cloudflare.com/ajax/libs/firacode/6.2.0/woff/FiraCode-Bold.woff") format("woff");
        font-style: bold;
        font-weight: 700;
    }
    .terminal-900002670-matrix {
        font-family: Fira Code, monospace;
        font-size: 20px;
        line-height: 24.4px;
        font-variant-east-asian: full-width;
    }
    .terminal-900002670-r1 { fill: #c5c8c6 }
.terminal-900002670-r2 { fill: #00ffff }
.terminal-900002670-r3 { fill: #c4c5b5;font-weight: bold }
.terminal-900002670-r4 { fill: #e0e0e0 }
.terminal-900002670-r5 { fill: #808080 }
.terminal-900002670-r6 { fill: #c4c5b5 }
.terminal-900002670-r7 { fill: #9e9e9e;font-style: italic; }
.terminal-900002670-r8 { fill: #58d1eb;font-weight: bold }
.terminal-900002670-r9 { fill: #9e9e9e }
.terminal-900002670-r10 { fill: #808080;font-style: italic; }
    </style>
    <defs>
    <clipPath id="terminal-900002670-clip-terminal">
      <rect x="0" y="0" width="950.5999999999999" height="706.5999999999999" />
    </clipPath>
    <clipPath id="terminal-900002670-line-0">
    <rect x="0" y="1.5" width="951.6" height="24.65"/>
            </clipPath>
<clipPath id="terminal-900002670-line-1">
    <rect x="0" y="25.9" width="951.6" height="24.65"/>
            </clipPath>
<clipPath id="terminal-900002670-line-2">
    <rect x="0" y="50.3" width="951.6" height="24.65"/>
            </clipPath>
<clipPath id="terminal-900002670-line-3">
    <rect x="0" y="74.7" width="951.6" height="24.65"/>
            </clipPath>
<clipPath id="terminal-900002670-line-4">
    <rect x="0" y="99.1" width="951.6" height="24.65"/>
            </clipPath>
<clipPath id="terminal-900002670-line-5">
    <rect x="0" y="123.5" width="951.6" height="24.65"/>
            </clipPath>
<clipPath id="terminal-900002670-line-6">
    <rect x="0" y="147.9" width="951.6" height="24.65"/>
            </clipPath>
<clipPath id="terminal-900002670-line-7">
    <rect x="0" y="172.3" width="951.6" height="24.65"/>
            </clipPath>
<clipPath id="terminal-900002670-line-8">
    <rect x="0" y="196.7" width="951.6" height="24.65"/>
            </clipPath>
<clipPath id="terminal-900002670-line-9">
    <rect x="0" y="221.1" width="951.6" height="24.65"/>
            </clipPath>
<clipPath id="terminal-900002670-line-10">
    <rect x="0" y="245.5" width="951.6" height="24.65"/>
            </clipPath>
<clipPath id="terminal-900002670-line-11">
    <rect x="0" y="269.9" width="951.6" height="24.65"/>
            </clipPath>
<clipPath id="terminal-900002670-line-12">
    <rect x="0" y="294.3" width="951.6" height="24.65"/>
            </clipPath>
<clipPath id="terminal-900002670-line-13">
    <rect x="0" y="318.7" width="951.6" height="24.65"/>
            </clipPath>
<clipPath id="terminal-900002670-line-14">
    <rect x="0" y="343.1" width="951.6" height="24.65"/>
            </clipPath>
<clipPath id="terminal-900002670-line-15">
    <rect x="0" y="367.5" width="951.6" height="24.65"/>
            </clipPath>
<clipPath id="terminal-900002670-line-16">
    <rect x="0" y="391.9" width="951.6" height="24.65"/>
            </clipPath>
<clipPath id="terminal-900002670-line-17">
    <rect x="0" y="416.3" width="951.6" height="24.65"/>
            </clipPath>
<clipPath id="terminal-900002670-line-18">
    <rect x="0" y="440.7" width="951.6" height="24.65"/>
            </clipPath>
<clipPath id="terminal-900002670-line-19">
    <rect x="0" y="465.1" width="951.6" height="24.65"/>
            </clipPath>
<clipPath id="terminal-900002670-line-20">
    <rect x="0" y="489.5" width="951.6" height="24.65"/>
            </clipPath>
<clipPath id="terminal-900002670-line-21">
    <rect x="0" y="513.9" width="951.6" height="24.65"/>
            </clipPath>
<clipPath id="terminal-900002670-line-22">
    <rect x="0" y="538.3" width="951.6" height="24.65"/>
            </clipPath>
<clipPath id="terminal-900002670-line-23">
    <rect x="0" y="562.7" width="951.6" height="24.65"/>
            </clipPath>
<clipPath id="terminal-900002670-line-24">
    <rect x="0" y="587.1" width="951.6" height="24.65"/>
            </clipPath>
<clipPath id="terminal-900002670-line-25">
    <rect x="0" y="611.5" width="951.6" height="24.65"/>
            </clipPath>
<clipPath id="terminal-900002670-line-26">
    <rect x="0" y="635.9" width="951.6" height="24.65"/>
            </clipPath>
<clipPath id="terminal-900002670-line-27">
    <rect x="0" y="660.3" width="951.6" height="24.65"/>
            </clipPath>
    </defs>
    <g clip-path="url(#terminal-900002670-clip-terminal)">
    <rect fill="#121212" x="0" y="1.5" width="951.6" height="24.65" shape-rendering="crispEdges"/><rect fill="#121212" x="0" y="25.9" width="24.4" height="24.65" shape-rendering="crispEdges"/><rect fill="#1e1e1e" x="24.4" y="25.9" width="12.2" height="24.65" shape-rendering="crispEdges"/><rect fill="#1e1e1e" x="36.6" y="25.9" width="12.2" height="24.65" shape-rendering="crispEdges"/><rect fill="#1e1e1e" x="48.8" y="25.9" width="146.4" height="24.65" shape-rendering="crispEdges"/><rect fill="#1e1e1e" x="195.2" y="25.9" width="719.8" height="24.65" shape-rendering="crispEdges"/><rect fill="#1e1e1e" x="915" y="25.9" width="12.2" height="24.65" shape-rendering="crispEdges"/><rect fill="#121212" x="927.2" y="25.9" width="24.4" height="24.65" shape-rendering="crispEdges"/><rect fill="#121212" x="0" y="50.3" width="24.4" height="24.65" shape-rendering="crispEdges"/><rect fill="#1e1e1e" x="24.4" y="50.3" width="12.2" height="24.65" shape-rendering="crispEdges"/><rect fill="#1e1e1e" x="36.6" y="50.3" width="878.4" height="24.65" shape-rendering="crispEdges"/><rect fill="#1e1e1e" x="915" y="50.3" width="12.2" height="24.65" shape-rendering="crispEdges"/><rect fill="#121212" x="927.2" y="50.3" width="24.4" height="24.65" shape-rendering="crispEdges"/><rect fill="#121212" x="0" y="74.7" width="24.4" height="24.65" shape-rendering="crispEdges"/><rect fill="#1e1e1e" x="24.4" y="74.7" width="12.2" height="24.65" shape-rendering="crispEdges"/><rect fill="#1e1e1e" x="36.6" y="74.7" width="24.4" height="24.65" shape-rendering="crispEdges"/><rect fill="#1e1e1e" x="61" y="74.7" width="134.2" height="24.65" shape-rendering="crispEdges"/><rect fill="#1e1e1e" x="195.2" y="74.7" width="378.2" height="24.65" shape-rendering="crispEdges"/><rect fill="#1e1e1e" x="573.4" y="74.7" width="231.8" height="24.65" shape-rendering="crispEdges"/><rect fill="#1e1e1e" x="805.2" y="74.7" width="24.4" height="24.65" shape-rendering="crispEdges"/><rect fill="#1e1e1e" x="829.6" y="74.7" width="61" height="24.65" shape-rendering="crispEdges"/><rect fill="#1e1e1e" x="890.6" y="74.7" width="24.4" height="24.65" shape-rendering="crispEdges"/><rect fill="#1e1e1e" x="915" y="74.7" width="12.2" height="24.65" shape-rendering="crispEdges"/><rect fill="#121212" x="927.2" y="74.7" width="24.4" height="24.65" shape-rendering="crispEdges"/><rect fill="#121212" x="0" y="99.1" width="24.4" height="24.65" shape-rendering="crispEdges"/><rect fill="#1e1e1e" x="24.4" y="99.1" width="12.2" height="24.65" shape-rendering="crispEdges"/><rect fill="#1e1e1e" x="36.6" y="99.1" width="24.4" height="24.65" shape-rendering="crispEdges"/><rect fill="#1e1e1e" x="61" y="99.1" width="756.4" height="24.65" shape-rendering="crispEdges"/><rect fill="#1e1e1e" x="817.4" y="99.1" width="73.2" height="24.65" shape-rendering="crispEdges"/><rect fill="#1e1e1e" x="890.6" y="99.1" width="24.4" height="24.65" shape-rendering="crispEdges"/><rect fill="#1e1e1e" x="915" y="99.1" width="12.2" height="24.65" shape-rendering="crispEdges"/><rect fill="#121212" x="927.2" y="99.1" width="24.4" height="24.65" shape-rendering="crispEdges"/><rect fill="#121212" x="0" y="123.5" width="24.4" height="24.65" shape-rendering="crispEdges"/><rect fill="#1e1e1e" x="24.4" y="123.5" width="12.2" height="24.65" shape-rendering="crispEdges"/><rect fill="#1e1e1e" x="36.6" y="123.5" width="24.4" height="24.65" shape-rendering="crispEdges"/><rect fill="#1e1e1e" x="61" y="123.5" width="451.4" height="24.65" shape-rendering="crispEdges"/><rect fill="#1e1e1e" x="512.4" y="123.5" width="378.2" height="24.65" shape-rendering="crispEdges"/><rect fill="#1e1e1e" x="890.6" y="123.5" width="24.4" height="24.65" shape-rendering="crispEdges"/><rect fill="#1e1e1e" x="915" y="123.5" width="12.2" height="24.65" shape-rendering="crispEdges"/><rect fill="#121212" x="927.2" y="123.5" width="24.4" height="24.65" shape-rendering="crispEdges"/><rect fill="#121212" x="0" y="147.9" width="24.4" height="24.65" shape-rendering="crispEdges"/><rect fill="#1e1e1e" x="24.4" y="147.9" width="12.2" height="24.65" shape-rendering="crispEdges"/><rect fill="#1e1e1e" x="36.6" y="147.9" width="24.4" height="24.65" shape-rendering="crispEdges"/><rect fill="#1e1e1e" x="61" y="147.9" width="0" height="24.65" shape-rendering="crispEdges"/><rect fill="#1e1e1e" x="61" y="147.9" width="829.6" height="24.65" shape-rendering="crispEdges"/><rect fill="#1e1e1e" x="890.6" y="147.9" width="24.4" height="24.65" shape-rendering="crispEdges"/><rect fill="#1e1e1e" x="915" y="147.9" width="12.2" height="24.65" shape-rendering="crispEdges"/><rect fill="#121212" x="927.2" y="147.9" width="24.4" height="24.65" shape-rendering="crispEdges"/><rect fill="#121212" x="0" y="172.3" width="24.4" height="24.65" shape-rendering="crispEdges"/><rect fill="#1e1e1e" x="24.4" y="172.3" width="12.2" height="24.65" shape-rendering="crispEdges"/><rect fill="#1e1e1e" x="36.6" y="172.3" width="24.4" height="24.65" shape-rendering="crispEdges"/><rect fill="#1e1e1e" x="61" y="172.3" width="134.2" height="24.65" shape-rendering="crispEdges"/><rect fill="#1e1e1e" x="195.2" y="172.3" width="695.4" height="24.65" shape-rendering="crispEdges"/><rect fill="#1e1e1e" x="890.6" y="172.3" width="24.4" height="24.65" shape-rendering="crispEdges"/><rect fill="#1e1e1e" x="915" y="172.3" width="12.2" height="24.65" shape-rendering="crispEdges"/><rect fill="#121212" x="927.2" y="172.3" width="24.4" height="24.65" shape-rendering="crispEdges"/><rect fill="#121212" x="0" y="196.7" width="24.4" height="24.65" shape-rendering="crispEdges"/><rect fill="#1e1e1e" x="24.4" y="196.7" width="12.2" height="24.65" shape-rendering="crispEdges"/><rect fill="#1e1e1e" x="36.6" y="196.7" width="24.4" height="24.65" shape-rendering="crispEdges"/><rect fill="#1e1e1e" x="61" y="196.7" width="780.8" height="24.65" shape-rendering="crispEdges"/><rect fill="#1e1e1e" x="841.8" y="196.7" width="48.8" height="24.65" shape-rendering="crispEdges"/><rect fill="#1e1e1e" x="890.6" y="196.7" width="24.4" height="24.65" shape-rendering="crispEdges"/><rect fill="#1e1e1e" x="915" y="196.7" width="12.2" height="24.65" shape-rendering="crispEdges"/><rect fill="#121212" x="927.2" y="196.7" width="24.4" height="24.65" shape-rendering="crispEdges"/><rect fill="#121212" x="0" y="221.1" width="24.4" height="24.65" shape-rendering="crispEdges"/><rect fill="#1e1e1e" x="24.4" y="221.1" width="12.2" height="24.65" shape-rendering="crispEdges"/><rect fill="#1e1e1e" x="36.6" y="221.1" width="24.4" height="24.65" shape-rendering="crispEdges"/><rect fill="#1e1e1e" x="61" y="221.1" width="744.2" height="24.65" shape-rendering="crispEdges"/><rect fill="#1e1e1e" x="805.2" y="221.1" width="85.4" height="24.65" shape-rendering="crispEdges"/><rect fill="#1e1e1e" x="890.6" y="221.1" width="24.4" height="24.65" shape-rendering="crispEdges"/><rect fill="#1e1e1e" x="915" y="221.1" width="12.2" height="24.65" shape-rendering="crispEdges"/><rect fill="#121212" x="927.2" y="221.1" width="24.4" height="24.65" shape-rendering="crispEdges"/><rect fill="#121212" x="0" y="245.5" width="24.4" height="24.65" shape-rendering="crispEdges"/><rect fill="#1e1e1e" x="24.4" y="245.5" width="12.2" height="24.65" shape-rendering="crispEdges"/><rect fill="#1e1e1e" x="36.6" y="245.5" width="24.4" height="24.65" shape-rendering="crispEdges"/><rect fill="#1e1e1e" x="61" y="245.5" width="829.6" height="24.65" shape-rendering="crispEdges"/><rect fill="#1e1e1e" x="890.6" y="245.5" width="24.4" height="24.65" shape-rendering="crispEdges"/><rect fill="#1e1e1e" x="915" y="245.5" width="12.2" height="24.65" shape-rendering="crispEdges"/><rect fill="#121212" x="927.2" y="245.5" width="24.4" height="24.65" shape-rendering="crispEdges"/><rect fill="#121212" x="0" y="269.9" width="24.4" height="24.65" shape-rendering="crispEdges"/><rect fill="#1e1e1e" x="24.4" y="269.9" width="12.2" height="24.65" shape-rendering="crispEdges"/><rect fill="#1e1e1e" x="36.6" y="269.9" width="24.4" height="24.65" shape-rendering="crispEdges"/><rect fill="#1e1e1e" x="61" y="269.9" width="610" height="24.65" shape-rendering="crispEdges"/><rect fill="#1e1e1e" x="671" y="269.9" width="219.6" height="24.65" shape-rendering="crispEdges"/><rect fill="#1e1e1e" x="890.6" y="269.9" width="24.4" height="24.65" shape-rendering="crispEdges"/><rect fill="#1e1e1e" x="915" y="269.9" width="12.2" height="24.65" shape-rendering="crispEdges"/><rect fill="#121212" x="927.2" y="269.9" width="24.4" height="24.65" shape-rendering="crispEdges"/><rect fill="#121212" x="0" y="294.3" width="24.4" height="24.65" shape-rendering="crispEdges"/><rect fill="#1e1e1e" x="24.4" y="294.3" width="12.2" height="24.65" shape-rendering="crispEdges"/><rect fill="#1e1e1e" x="36.6" y="294.3" width="24.4" height="24.65" shape-rendering="crispEdges"/><rect fill="#1e1e1e" x="61" y="294.3" width="0" height="24.65" shape-rendering="crispEdges"/><rect fill="#1e1e1e" x="61" y="294.3" width="829.6" height="24.65" shape-rendering="crispEdges"/><rect fill="#1e1e1e" x="890.6" y="294.3" width="24.4" height="24.65" shape-rendering="crispEdges"/><rect fill="#1e1e1e" x="915" y="294.3" width="12.2" height="24.65" shape-rendering="crispEdges"/><rect fill="#121212" x="927.2" y="294.3" width="24.4" height="24.65" shape-rendering="crispEdges"/><rect fill="#121212" x="0" y="318.7" width="24.4" height="24.65" shape-rendering="crispEdges"/><rect fill="#1e1e1e" x="24.4" y="318.7" width="12.2" height="24.65" shape-rendering="crispEdges"/><rect fill="#1e1e1e" x="36.6" y="318.7" width="24.4" height="24.65" shape-rendering="crispEdges"/><rect fill="#1e1e1e" x="61" y="318.7" width="73.2" height="24.65" shape-rendering="crispEdges"/><rect fill="#1e1e1e" x="134.2" y="318.7" width="756.4" height="24.65" shape-rendering="crispEdges"/><rect fill="#1e1e1e" x="890.6" y="318.7" width="24.4" height="24.65" shape-rendering="crispEdges"/><rect fill="#1e1e1e" x="915" y="318.7" width="12.2" height="24.65" shape-rendering="crispEdges"/><rect fill="#121212" x="927.2" y="318.7" width="24.4" height="24.65" shape-rendering="crispEdges"/><rect fill="#121212" x="0" y="343.1" width="24.4" height="24.65" shape-rendering="crispEdges"/><rect fill="#1e1e1e" x="24.4" y="343.1" width="12.2" height="24.65" shape-rendering="crispEdges"/><rect fill="#1e1e1e" x="36.6" y="343.1" width="24.4" height="24.65" shape-rendering="crispEdges"/><rect fill="#1e1e1e" x="61" y="343.1" width="195.2" height="24.65" shape-rendering="crispEdges"/><rect fill="#1e1e1e" x="256.2" y="343.1" width="634.4" height="24.65" shape-rendering="crispEdges"/><rect fill="#1e1e1e" x="890.6" y="343.1" width="24.4" height="24.65" shape-rendering="crispEdges"/><rect fill="#1e1e1e" x="915" y="343.1" width="12.2" height="24.65" shape-rendering="crispEdges"/><rect fill="#121212" x="927.2" y="343.1" width="24.4" height="24.65" shape-rendering="crispEdges"/><rect fill="#121212" x="0" y="367.5" width="24.4" height="24.65" shape-rendering="crispEdges"/><rect fill="#1e1e1e" x="24.4" y="367.5" width="12.2" height="24.65" shape-rendering="crispEdges"/><rect fill="#1e1e1e" x="36.6" y="367.5" width="24.4" height="24.65" shape-rendering="crispEdges"/><rect fill="#1e1e1e" x="61" y="367.5" width="0" height="24.65" shape-rendering="crispEdges"/><rect fill="#1e1e1e" x="61" y="367.5" width="829.6" height="24.65" shape-rendering="crispEdges"/><rect fill="#1e1e1e" x="890.6" y="367.5" width="24.4" height="24.65" shape-rendering="crispEdges"/><rect fill="#1e1e1e" x="915" y="367.5" width="12.2" height="24.65" shape-rendering="crispEdges"/><rect fill="#121212" x="927.2" y="367.5" width="24.4" height="24.65" shape-rendering="crispEdges"/><rect fill="#121212" x="0" y="391.9" width="24.4" height="24.65" shape-rendering="crispEdges"/><rect fill="#1e1e1e" x="24.4" y="391.9" width="12.2" height="24.65" shape-rendering="crispEdges"/><rect fill="#1e1e1e" x="36.6" y="391.9" width="24.4" height="24.65" shape-rendering="crispEdges"/><rect fill="#1e1e1e" x="61" y="391.9" width="146.4" height="24.65" shape-rendering="crispEdges"/><rect fill="#1e1e1e" x="207.4" y="391.9" width="683.2" height="24.65" shape-rendering="crispEdges"/><rect fill="#1e1e1e" x="890.6" y="391.9" width="24.4" height="24.65" shape-rendering="crispEdges"/><rect fill="#1e1e1e" x="915" y="391.9" width="12.2" height="24.65" shape-rendering="crispEdges"/><rect fill="#121212" x="927.2" y="391.9" width="24.4" height="24.65" shape-rendering="crispEdges"/><rect fill="#121212" x="0" y="416.3" width="24.4" height="24.65" shape-rendering="crispEdges"/><rect fill="#1e1e1e" x="24.4" y="416.3" width="12.2" height="24.65" shape-rendering="crispEdges"/><rect fill="#1e1e1e" x="36.6" y="416.3" width="24.4" height="24.65" shape-rendering="crispEdges"/><rect fill="#1e1e1e" x="61" y="416.3" width="195.2" height="24.65" shape-rendering="crispEdges"/><rect fill="#1e1e1e" x="256.2" y="416.3" width="634.4" height="24.65" shape-rendering="crispEdges"/><rect fill="#1e1e1e" x="890.6" y="416.3" width="24.4" height="24.65" shape-rendering="crispEdges"/><rect fill="#1e1e1e" x="915" y="416.3" width="12.2" height="24.65" shape-rendering="crispEdges"/><rect fill="#121212" x="927.2" y="416.3" width="24.4" height="24.65" shape-rendering="crispEdges"/><rect fill="#121212" x="0" y="440.7" width="24.4" height="24.65" shape-rendering="crispEdges"/><rect fill="#1e1e1e" x="24.4" y="440.7" width="12.2" height="24.65" shape-rendering="crispEdges"/><rect fill="#1e1e1e" x="36.6" y="440.7" width="24.4" height="24.65" shape-rendering="crispEdges"/><rect fill="#1e1e1e" x="61" y="440.7" width="0" height="24.65" shape-rendering="crispEdges"/><rect fill="#1e1e1e" x="61" y="440.7" width="829.6" height="24.65" shape-rendering="crispEdges"/><rect fill="#1e1e1e" x="890.6" y="440.7" width="24.4" height="24.65" shape-rendering="crispEdges"/><rect fill="#1e1e1e" x="915" y="440.7" width="12.2" height="24.65" shape-rendering="crispEdges"/><rect fill="#121212" x="927.2" y="440.7" width="24.4" height="24.65" shape-rendering="crispEdges"/><rect fill="#121212" x="0" y="465.1" width="24.4" height="24.65" shape-rendering="crispEdges"/><rect fill="#1e1e1e" x="24.4" y="465.1" width="12.2" height="24.65" shape-rendering="crispEdges"/><rect fill="#1e1e1e" x="36.6" y="465.1" width="24.4" height="24.65" shape-rendering="crispEdges"/><rect fill="#1e1e1e" x="61" y="465.1" width="85.4" height="24.65" shape-rendering="crispEdges"/><rect fill="#1e1e1e" x="146.4" y="465.1" width="744.2" height="24.65" shape-rendering="crispEdges"/><rect fill="#1e1e1e" x="890.6" y="465.1" width="24.4" height="24.65" shape-rendering="crispEdges"/><rect fill="#1e1e1e" x="915" y="465.1" width="12.2" height="24.65" shape-rendering="crispEdges"/><rect fill="#121212" x="927.2" y="465.1" width="24.4" height="24.65" shape-rendering="crispEdges"/><rect fill="#121212" x="0" y="489.5" width="24.4" height="24.65" shape-rendering="crispEdges"/><rect fill="#1e1e1e" x="24.4" y="489.5" width="12.2" height="24.65" shape-rendering="crispEdges"/><rect fill="#1e1e1e" x="36.6" y="489.5" width="24.4" height="24.65" shape-rendering="crispEdges"/><rect fill="#1e1e1e" x="61" y="489.5" width="195.2" height="24.65" shape-rendering="crispEdges"/><rect fill="#1e1e1e" x="256.2" y="489.5" width="634.4" height="24.65" shape-rendering="crispEdges"/><rect fill="#1e1e1e" x="890.6" y="489.5" width="24.4" height="24.65" shape-rendering="crispEdges"/><rect fill="#1e1e1e" x="915" y="489.5" width="12.2" height="24.65" shape-rendering="crispEdges"/><rect fill="#121212" x="927.2" y="489.5" width="24.4" height="24.65" shape-rendering="crispEdges"/><rect fill="#121212" x="0" y="513.9" width="24.4" height="24.65" shape-rendering="crispEdges"/><rect fill="#1e1e1e" x="24.4" y="513.9" width="12.2" height="24.65" shape-rendering="crispEdges"/><rect fill="#1e1e1e" x="36.6" y="513.9" width="24.4" height="24.65" shape-rendering="crispEdges"/><rect fill="#1e1e1e" x="61" y="513.9" width="0" height="24.65" shape-rendering="crispEdges"/><rect fill="#1e1e1e" x="61" y="513.9" width="829.6" height="24.65" shape-rendering="crispEdges"/><rect fill="#1e1e1e" x="890.6" y="513.9" width="24.4" height="24.65" shape-rendering="crispEdges"/><rect fill="#1e1e1e" x="915" y="513.9" width="12.2" height="24.65" shape-rendering="crispEdges"/><rect fill="#121212" x="927.2" y="513.9" width="24.4" height="24.65" shape-rendering="crispEdges"/><rect fill="#121212" x="0" y="538.3" width="24.4" height="24.65" shape-rendering="crispEdges"/><rect fill="#1e1e1e" x="24.4" y="538.3" width="12.2" height="24.65" shape-rendering="crispEdges"/><rect fill="#1e1e1e" x="36.6" y="538.3" width="24.4" height="24.65" shape-rendering="crispEdges"/><rect fill="#1e1e1e" x="61" y="538.3" width="97.6" height="24.65" shape-rendering="crispEdges"/><rect fill="#1e1e1e" x="158.6" y="538.3" width="732" height="24.65" shape-rendering="crispEdges"/><rect fill="#1e1e1e" x="890.6" y="538.3" width="24.4" height="24.65" shape-rendering="crispEdges"/><rect fill="#1e1e1e" x="915" y="538.3" width="12.2" height="24.65" shape-rendering="crispEdges"/><rect fill="#121212" x="927.2" y="538.3" width="24.4" height="24.65" shape-rendering="crispEdges"/><rect fill="#121212" x="0" y="562.7" width="24.4" height="24.65" shape-rendering="crispEdges"/><rect fill="#1e1e1e" x="24.4" y="562.7" width="12.2" height="24.65" shape-rendering="crispEdges"/><rect fill="#1e1e1e" x="36.6" y="562.7" width="24.4" height="24.65" shape-rendering="crispEdges"/><rect fill="#1e1e1e" x="61" y="562.7" width="195.2" height="24.65" shape-rendering="crispEdges"/><rect fill="#1e1e1e" x="256.2" y="562.7" width="634.4" height="24.65" shape-rendering="crispEdges"/><rect fill="#1e1e1e" x="890.6" y="562.7" width="24.4" height="24.65" shape-rendering="crispEdges"/><rect fill="#1e1e1e" x="915" y="562.7" width="12.2" height="24.65" shape-rendering="crispEdges"/><rect fill="#121212" x="927.2" y="562.7" width="24.4" height="24.65" shape-rendering="crispEdges"/><rect fill="#121212" x="0" y="587.1" width="24.4" height="24.65" shape-rendering="crispEdges"/><rect fill="#1e1e1e" x="24.4" y="587.1" width="12.2" height="24.65" shape-rendering="crispEdges"/><rect fill="#1e1e1e" x="36.6" y="587.1" width="24.4" height="24.65" shape-rendering="crispEdges"/><rect fill="#1e1e1e" x="61" y="587.1" width="0" height="24.65" shape-rendering="crispEdges"/><rect fill="#1e1e1e" x="61" y="587.1" width="829.6" height="24.65" shape-rendering="crispEdges"/><rect fill="#1e1e1e" x="890.6" y="587.1" width="24.4" height="24.65" shape-rendering="crispEdges"/><rect fill="#1e1e1e" x="915" y="587.1" width="12.2" height="24.65" shape-rendering="crispEdges"/><rect fill="#121212" x="927.2" y="587.1" width="24.4" height="24.65" shape-rendering="crispEdges"/><rect fill="#121212" x="0" y="611.5" width="24.4" height="24.65" shape-rendering="crispEdges"/><rect fill="#1e1e1e" x="24.4" y="611.5" width="12.2" height="24.65" shape-rendering="crispEdges"/><rect fill="#1e1e1e" x="36.6" y="611.5" width="24.4" height="24.65" shape-rendering="crispEdges"/><rect fill="#1e1e1e" x="61" y="611.5" width="341.6" height="24.65" shape-rendering="crispEdges"/><rect fill="#1e1e1e" x="402.6" y="611.5" width="488" height="24.65" shape-rendering="crispEdges"/><rect fill="#1e1e1e" x="890.6" y="611.5" width="24.4" height="24.65" shape-rendering="crispEdges"/><rect fill="#1e1e1e" x="915" y="611.5" width="12.2" height="24.65" shape-rendering="crispEdges"/><rect fill="#121212" x="927.2" y="611.5" width="24.4" height="24.65" shape-rendering="crispEdges"/><rect fill="#121212" x="0" y="635.9" width="24.4" height="24.65" shape-rendering="crispEdges"/><rect fill="#1e1e1e" x="24.4" y="635.9" width="12.2" height="24.65" shape-rendering="crispEdges"/><rect fill="#1e1e1e" x="36.6" y="635.9" width="878.4" height="24.65" shape-rendering="crispEdges"/><rect fill="#1e1e1e" x="915" y="635.9" width="12.2" height="24.65" shape-rendering="crispEdges"/><rect fill="#121212" x="927.2" y="635.9" width="24.4" height="24.65" shape-rendering="crispEdges"/><rect fill="#121212" x="0" y="660.3" width="24.4" height="24.65" shape-rendering="crispEdges"/><rect fill="#1e1e1e" x="24.4" y="660.3" width="12.2" height="24.65" shape-rendering="crispEdges"/><rect fill="#1e1e1e" x="36.6" y="660.3" width="878.4" height="24.65" shape-rendering="crispEdges"/><rect fill="#1e1e1e" x="915" y="660.3" width="12.2" height="24.65" shape-rendering="crispEdges"/><rect fill="#121212" x="927.2" y="660.3" width="24.4" height="24.65" shape-rendering="crispEdges"/><rect fill="#121212" x="0" y="684.7" width="951.6" height="24.65" shape-rendering="crispEdges"/>
    <g class="terminal-900002670-matrix">
    <text class="terminal-900002670-r1" x="951.6" y="20" textLength="12.2" clip-path="url(#terminal-900002670-line-0)">
</text><text class="terminal-900002670-r2" x="24.4" y="44.4" textLength="12.2" clip-path="url(#terminal-900002670-line-1)">╭</text><text class="terminal-900002670-r2" x="36.6" y="44.4" textLength="12.2" clip-path="url(#terminal-900002670-line-1)">─</text><text class="terminal-900002670-r2" x="48.8" y="44.4" textLength="146.4" clip-path="url(#terminal-900002670-line-1)">&#160;SKILL&#160;CARD&#160;</text><text class="terminal-900002670-r2" x="195.2" y="44.4" textLength="719.8" clip-path="url(#terminal-900002670-line-1)">───────────────────────────────────────────────────────────</text><text class="terminal-900002670-r2" x="915" y="44.4" textLength="12.2" clip-path="url(#terminal-900002670-line-1)">╮</text><text class="terminal-900002670-r1" x="951.6" y="44.4" textLength="12.2" clip-path="url(#terminal-900002670-line-1)">
</text><text class="terminal-900002670-r2" x="24.4" y="68.8" textLength="12.2" clip-path="url(#terminal-900002670-line-2)">│</text><text class="terminal-900002670-r2" x="915" y="68.8" textLength="12.2" clip-path="url(#terminal-900002670-line-2)">│</text><text class="terminal-900002670-r1" x="951.6" y="68.8" textLength="12.2" clip-path="url(#terminal-900002670-line-2)">
</text><text class="terminal-900002670-r2" x="24.4" y="93.2" textLength="12.2" clip-path="url(#terminal-900002670-line-3)">│</text><text class="terminal-900002670-r3" x="61" y="93.2" textLength="134.2" clip-path="url(#terminal-900002670-line-3)">textmode-js</text><text class="terminal-900002670-r5" x="805.2" y="93.2" textLength="24.4" clip-path="url(#terminal-900002670-line-3)">●&#160;</text><text class="terminal-900002670-r6" x="829.6" y="93.2" textLength="61" clip-path="url(#terminal-900002670-line-3)">draft</text><text class="terminal-900002670-r2" x="915" y="93.2" textLength="12.2" clip-path="url(#terminal-900002670-line-3)">│</text><text class="terminal-900002670-r1" x="951.6" y="93.2" textLength="12.2" clip-path="url(#terminal-900002670-line-3)">
</text><text class="terminal-900002670-r2" x="24.4" y="117.6" textLength="12.2" clip-path="url(#terminal-900002670-line-4)">│</text><text class="terminal-900002670-r7" x="61" y="117.6" textLength="756.4" clip-path="url(#terminal-900002670-line-4)">Use&#160;when&#160;building&#160;real-time&#160;ASCII&#160;or&#160;textmode&#160;graphics&#160;in&#160;the&#160;</text><text class="terminal-900002670-r2" x="915" y="117.6" textLength="12.2" clip-path="url(#terminal-900002670-line-4)">│</text><text class="terminal-900002670-r1" x="951.6" y="117.6" textLength="12.2" clip-path="url(#terminal-900002670-line-4)">
</text><text class="terminal-900002670-r2" x="24.4" y="142" textLength="12.2" clip-path="url(#terminal-900002670-line-5)">│</text><text class="terminal-900002670-r7" x="61" y="142" textLength="451.4" clip-path="url(#terminal-900002670-line-5)">browser&#160;with&#160;the&#160;textmode.js&#160;library.</text><text class="terminal-900002670-r2" x="915" y="142" textLength="12.2" clip-path="url(#terminal-900002670-line-5)">│</text><text class="terminal-900002670-r1" x="951.6" y="142" textLength="12.2" clip-path="url(#terminal-900002670-line-5)">
</text><text class="terminal-900002670-r2" x="24.4" y="166.4" textLength="12.2" clip-path="url(#terminal-900002670-line-6)">│</text><text class="terminal-900002670-r2" x="915" y="166.4" textLength="12.2" clip-path="url(#terminal-900002670-line-6)">│</text><text class="terminal-900002670-r1" x="951.6" y="166.4" textLength="12.2" clip-path="url(#terminal-900002670-line-6)">
</text><text class="terminal-900002670-r2" x="24.4" y="190.8" textLength="12.2" clip-path="url(#terminal-900002670-line-7)">│</text><text class="terminal-900002670-r8" x="61" y="190.8" textLength="134.2" clip-path="url(#terminal-900002670-line-7)">WHEN&#160;TO&#160;USE</text><text class="terminal-900002670-r2" x="915" y="190.8" textLength="12.2" clip-path="url(#terminal-900002670-line-7)">│</text><text class="terminal-900002670-r1" x="951.6" y="190.8" textLength="12.2" clip-path="url(#terminal-900002670-line-7)">
</text><text class="terminal-900002670-r2" x="24.4" y="215.2" textLength="12.2" clip-path="url(#terminal-900002670-line-8)">│</text><text class="terminal-900002670-r9" x="61" y="215.2" textLength="780.8" clip-path="url(#terminal-900002670-line-8)">&#160;&#160;Use&#160;when&#160;building&#160;real-time&#160;ASCII&#160;or&#160;textmode&#160;graphics&#160;in&#160;the&#160;</text><text class="terminal-900002670-r2" x="915" y="215.2" textLength="12.2" clip-path="url(#terminal-900002670-line-8)">│</text><text class="terminal-900002670-r1" x="951.6" y="215.2" textLength="12.2" clip-path="url(#terminal-900002670-line-8)">
</text><text class="terminal-900002670-r2" x="24.4" y="239.6" textLength="12.2" clip-path="url(#terminal-900002670-line-9)">│</text><text class="terminal-900002670-r9" x="61" y="239.6" textLength="744.2" clip-path="url(#terminal-900002670-line-9)">browser&#160;with&#160;the&#160;textmode.js&#160;library&#160;—&#160;generative&#160;glyph-grid&#160;</text><text class="terminal-900002670-r2" x="915" y="239.6" textLength="12.2" clip-path="url(#terminal-900002670-line-9)">│</text><text class="terminal-900002670-r1" x="951.6" y="239.6" textLength="12.2" clip-path="url(#terminal-900002670-line-9)">
</text><text class="terminal-900002670-r2" x="24.4" y="264" textLength="12.2" clip-path="url(#terminal-900002670-line-10)">│</text><text class="terminal-900002670-r9" x="61" y="264" textLength="829.6" clip-path="url(#terminal-900002670-line-10)">sketches,&#160;retro/terminal&#160;visuals,&#160;audio-reactive&#160;or&#160;VJ&#160;textmode,&#160;or&#160;</text><text class="terminal-900002670-r2" x="915" y="264" textLength="12.2" clip-path="url(#terminal-900002670-line-10)">│</text><text class="terminal-900002670-r1" x="951.6" y="264" textLength="12.2" clip-path="url(#terminal-900002670-line-10)">
</text><text class="terminal-900002670-r2" x="24.4" y="288.4" textLength="12.2" clip-path="url(#terminal-900002670-line-11)">│</text><text class="terminal-900002670-r9" x="61" y="288.4" textLength="610" clip-path="url(#terminal-900002670-line-11)">turning&#160;images&#160;and&#160;video&#160;into&#160;ASCII&#160;on&#160;a&#160;WebGL2&#160;c…</text><text class="terminal-900002670-r2" x="915" y="288.4" textLength="12.2" clip-path="url(#terminal-900002670-line-11)">│</text><text class="terminal-900002670-r1" x="951.6" y="288.4" textLength="12.2" clip-path="url(#terminal-900002670-line-11)">
</text><text class="terminal-900002670-r2" x="24.4" y="312.8" textLength="12.2" clip-path="url(#terminal-900002670-line-12)">│</text><text class="terminal-900002670-r2" x="915" y="312.8" textLength="12.2" clip-path="url(#terminal-900002670-line-12)">│</text><text class="terminal-900002670-r1" x="951.6" y="312.8" textLength="12.2" clip-path="url(#terminal-900002670-line-12)">
</text><text class="terminal-900002670-r2" x="24.4" y="337.2" textLength="12.2" clip-path="url(#terminal-900002670-line-13)">│</text><text class="terminal-900002670-r8" x="61" y="337.2" textLength="73.2" clip-path="url(#terminal-900002670-line-13)">OUTPUT</text><text class="terminal-900002670-r2" x="915" y="337.2" textLength="12.2" clip-path="url(#terminal-900002670-line-13)">│</text><text class="terminal-900002670-r1" x="951.6" y="337.2" textLength="12.2" clip-path="url(#terminal-900002670-line-13)">
</text><text class="terminal-900002670-r2" x="24.4" y="361.6" textLength="12.2" clip-path="url(#terminal-900002670-line-14)">│</text><text class="terminal-900002670-r10" x="61" y="361.6" textLength="195.2" clip-path="url(#terminal-900002670-line-14)">&#160;&#160;not&#160;yet&#160;carded</text><text class="terminal-900002670-r2" x="915" y="361.6" textLength="12.2" clip-path="url(#terminal-900002670-line-14)">│</text><text class="terminal-900002670-r1" x="951.6" y="361.6" textLength="12.2" clip-path="url(#terminal-900002670-line-14)">
</text><text class="terminal-900002670-r2" x="24.4" y="386" textLength="12.2" clip-path="url(#terminal-900002670-line-15)">│</text><text class="terminal-900002670-r2" x="915" y="386" textLength="12.2" clip-path="url(#terminal-900002670-line-15)">│</text><text class="terminal-900002670-r1" x="951.6" y="386" textLength="12.2" clip-path="url(#terminal-900002670-line-15)">
</text><text class="terminal-900002670-r2" x="24.4" y="410.4" textLength="12.2" clip-path="url(#terminal-900002670-line-16)">│</text><text class="terminal-900002670-r8" x="61" y="410.4" textLength="146.4" clip-path="url(#terminal-900002670-line-16)">DEPENDENCIES</text><text class="terminal-900002670-r2" x="915" y="410.4" textLength="12.2" clip-path="url(#terminal-900002670-line-16)">│</text><text class="terminal-900002670-r1" x="951.6" y="410.4" textLength="12.2" clip-path="url(#terminal-900002670-line-16)">
</text><text class="terminal-900002670-r2" x="24.4" y="434.8" textLength="12.2" clip-path="url(#terminal-900002670-line-17)">│</text><text class="terminal-900002670-r10" x="61" y="434.8" textLength="195.2" clip-path="url(#terminal-900002670-line-17)">&#160;&#160;not&#160;yet&#160;carded</text><text class="terminal-900002670-r2" x="915" y="434.8" textLength="12.2" clip-path="url(#terminal-900002670-line-17)">│</text><text class="terminal-900002670-r1" x="951.6" y="434.8" textLength="12.2" clip-path="url(#terminal-900002670-line-17)">
</text><text class="terminal-900002670-r2" x="24.4" y="459.2" textLength="12.2" clip-path="url(#terminal-900002670-line-18)">│</text><text class="terminal-900002670-r2" x="915" y="459.2" textLength="12.2" clip-path="url(#terminal-900002670-line-18)">│</text><text class="terminal-900002670-r1" x="951.6" y="459.2" textLength="12.2" clip-path="url(#terminal-900002670-line-18)">
</text><text class="terminal-900002670-r2" x="24.4" y="483.6" textLength="12.2" clip-path="url(#terminal-900002670-line-19)">│</text><text class="terminal-900002670-r8" x="61" y="483.6" textLength="85.4" clip-path="url(#terminal-900002670-line-19)">QUALITY</text><text class="terminal-900002670-r2" x="915" y="483.6" textLength="12.2" clip-path="url(#terminal-900002670-line-19)">│</text><text class="terminal-900002670-r1" x="951.6" y="483.6" textLength="12.2" clip-path="url(#terminal-900002670-line-19)">
</text><text class="terminal-900002670-r2" x="24.4" y="508" textLength="12.2" clip-path="url(#terminal-900002670-line-20)">│</text><text class="terminal-900002670-r10" x="61" y="508" textLength="195.2" clip-path="url(#terminal-900002670-line-20)">&#160;&#160;not&#160;yet&#160;carded</text><text class="terminal-900002670-r2" x="915" y="508" textLength="12.2" clip-path="url(#terminal-900002670-line-20)">│</text><text class="terminal-900002670-r1" x="951.6" y="508" textLength="12.2" clip-path="url(#terminal-900002670-line-20)">
</text><text class="terminal-900002670-r2" x="24.4" y="532.4" textLength="12.2" clip-path="url(#terminal-900002670-line-21)">│</text><text class="terminal-900002670-r2" x="915" y="532.4" textLength="12.2" clip-path="url(#terminal-900002670-line-21)">│</text><text class="terminal-900002670-r1" x="951.6" y="532.4" textLength="12.2" clip-path="url(#terminal-900002670-line-21)">
</text><text class="terminal-900002670-r2" x="24.4" y="556.8" textLength="12.2" clip-path="url(#terminal-900002670-line-22)">│</text><text class="terminal-900002670-r8" x="61" y="556.8" textLength="97.6" clip-path="url(#terminal-900002670-line-22)">SECURITY</text><text class="terminal-900002670-r2" x="915" y="556.8" textLength="12.2" clip-path="url(#terminal-900002670-line-22)">│</text><text class="terminal-900002670-r1" x="951.6" y="556.8" textLength="12.2" clip-path="url(#terminal-900002670-line-22)">
</text><text class="terminal-900002670-r2" x="24.4" y="581.2" textLength="12.2" clip-path="url(#terminal-900002670-line-23)">│</text><text class="terminal-900002670-r10" x="61" y="581.2" textLength="195.2" clip-path="url(#terminal-900002670-line-23)">&#160;&#160;not&#160;yet&#160;carded</text><text class="terminal-900002670-r2" x="915" y="581.2" textLength="12.2" clip-path="url(#terminal-900002670-line-23)">│</text><text class="terminal-900002670-r1" x="951.6" y="581.2" textLength="12.2" clip-path="url(#terminal-900002670-line-23)">
</text><text class="terminal-900002670-r2" x="24.4" y="605.6" textLength="12.2" clip-path="url(#terminal-900002670-line-24)">│</text><text class="terminal-900002670-r2" x="915" y="605.6" textLength="12.2" clip-path="url(#terminal-900002670-line-24)">│</text><text class="terminal-900002670-r1" x="951.6" y="605.6" textLength="12.2" clip-path="url(#terminal-900002670-line-24)">
</text><text class="terminal-900002670-r2" x="24.4" y="630" textLength="12.2" clip-path="url(#terminal-900002670-line-25)">│</text><text class="terminal-900002670-r9" x="61" y="630" textLength="341.6" clip-path="url(#terminal-900002670-line-25)">SKILL.md&#160;only&#160;·&#160;card&#160;pending</text><text class="terminal-900002670-r2" x="915" y="630" textLength="12.2" clip-path="url(#terminal-900002670-line-25)">│</text><text class="terminal-900002670-r1" x="951.6" y="630" textLength="12.2" clip-path="url(#terminal-900002670-line-25)">
</text><text class="terminal-900002670-r2" x="24.4" y="654.4" textLength="12.2" clip-path="url(#terminal-900002670-line-26)">│</text><text class="terminal-900002670-r2" x="915" y="654.4" textLength="12.2" clip-path="url(#terminal-900002670-line-26)">│</text><text class="terminal-900002670-r1" x="951.6" y="654.4" textLength="12.2" clip-path="url(#terminal-900002670-line-26)">
</text><text class="terminal-900002670-r2" x="24.4" y="678.8" textLength="12.2" clip-path="url(#terminal-900002670-line-27)">╰</text><text class="terminal-900002670-r2" x="36.6" y="678.8" textLength="878.4" clip-path="url(#terminal-900002670-line-27)">────────────────────────────────────────────────────────────────────────</text><text class="terminal-900002670-r2" x="915" y="678.8" textLength="12.2" clip-path="url(#terminal-900002670-line-27)">╯</text><text class="terminal-900002670-r1" x="951.6" y="678.8" textLength="12.2" clip-path="url(#terminal-900002670-line-27)">
</text>
    </g>
    </g>
</svg>
